<svg xmlns="http://www.w3.org/2000/svg" xmlns:xlink="http://www.w3.org/1999/xlink" width="1024" zoomAndPan="magnify" viewBox="0 0 768 767.999994" height="1024" preserveAspectRatio="xMidYMid meet" version="1.0"><path fill="#ffffff" d="M 599.632812 407.742188 C 599.613281 402.976562 600.058594 398.253906 600.972656 393.574219 C 601.890625 388.898438 603.257812 384.355469 605.074219 379.949219 C 606.890625 375.542969 609.125 371.355469 611.773438 367.394531 C 614.421875 363.429688 617.4375 359.765625 620.8125 356.402344 C 621.929688 355.28125 623.019531 354.136719 624.078125 352.960938 C 625.140625 351.789062 626.171875 350.589844 627.171875 349.367188 C 628.175781 348.144531 629.144531 346.898438 630.085938 345.625 C 631.027344 344.355469 631.9375 343.0625 632.8125 341.746094 C 633.691406 340.429688 634.535156 339.09375 635.347656 337.738281 C 636.160156 336.378906 636.9375 335.003906 637.683594 333.609375 C 638.425781 332.214844 639.136719 330.800781 639.8125 329.371094 C 640.488281 327.941406 641.125 326.496094 641.730469 325.035156 C 642.335938 323.570312 642.902344 322.097656 643.433594 320.605469 C 643.96875 319.117188 644.460938 317.617188 644.921875 316.101562 C 645.378906 314.589844 645.800781 313.066406 646.183594 311.53125 C 646.566406 309.996094 646.914062 308.457031 647.222656 306.902344 C 647.527344 305.351562 647.796875 303.796875 648.03125 302.230469 C 648.261719 300.667969 648.457031 299.097656 648.609375 297.523438 C 648.765625 295.949219 648.882812 294.375 648.957031 292.792969 C 649.035156 291.214844 649.074219 289.632812 649.074219 288.050781 C 649.074219 286.472656 649.035156 284.890625 648.957031 283.3125 C 648.882812 281.730469 648.765625 280.15625 648.609375 278.582031 C 648.457031 277.007812 648.261719 275.4375 648.03125 273.875 C 647.796875 272.308594 647.527344 270.753906 647.222656 269.203125 C 646.914062 267.648438 646.566406 266.109375 646.183594 264.574219 C 645.800781 263.039062 645.378906 261.515625 644.921875 260.003906 C 644.460938 258.488281 643.96875 256.988281 643.433594 255.496094 C 642.902344 254.007812 642.335938 252.535156 641.730469 251.070312 C 641.125 249.609375 640.488281 248.164062 639.8125 246.734375 C 639.136719 245.304688 638.425781 243.890625 637.683594 242.496094 C 636.9375 241.101562 636.160156 239.726562 635.347656 238.367188 C 634.535156 237.011719 633.691406 235.675781 632.8125 234.359375 C 631.9375 233.042969 631.027344 231.75 630.085938 230.480469 C 629.144531 229.207031 628.175781 227.960938 627.171875 226.738281 C 626.171875 225.515625 625.140625 224.316406 624.078125 223.144531 C 623.019531 221.96875 621.929688 220.824219 620.8125 219.703125 C 617.425781 216.347656 614.402344 212.6875 611.746094 208.726562 C 609.089844 204.765625 606.851562 200.582031 605.035156 196.171875 C 603.214844 191.765625 601.851562 187.21875 600.941406 182.539062 C 600.035156 177.855469 599.597656 173.132812 599.632812 168.363281 C 599.625 166.78125 599.578125 165.203125 599.492188 163.625 C 599.40625 162.046875 599.285156 160.472656 599.121094 158.902344 C 598.957031 157.332031 598.757812 155.765625 598.515625 154.203125 C 598.277344 152.640625 598 151.085938 597.683594 149.539062 C 597.367188 147.992188 597.015625 146.449219 596.625 144.921875 C 596.234375 143.390625 595.804688 141.871094 595.339844 140.359375 C 594.875 138.851562 594.371094 137.351562 593.832031 135.867188 C 593.292969 134.382812 592.71875 132.910156 592.109375 131.453125 C 591.496094 129.996094 590.851562 128.554688 590.171875 127.128906 C 589.488281 125.707031 588.773438 124.296875 588.023438 122.90625 C 587.273438 121.515625 586.488281 120.144531 585.671875 118.792969 C 584.851562 117.441406 584.003906 116.109375 583.121094 114.800781 C 582.238281 113.492188 581.324219 112.203125 580.378906 110.9375 C 579.429688 109.671875 578.453125 108.429688 577.449219 107.210938 C 576.441406 105.996094 575.40625 104.800781 574.339844 103.636719 C 573.277344 102.46875 572.183594 101.328125 571.0625 100.214844 C 569.941406 99.101562 568.792969 98.015625 567.621094 96.960938 C 566.445312 95.902344 565.246094 94.875 564.023438 93.875 C 562.796875 92.878906 561.550781 91.910156 560.277344 90.972656 C 559.007812 90.035156 557.710938 89.128906 556.398438 88.253906 C 555.082031 87.378906 553.742188 86.539062 552.386719 85.730469 C 551.027344 84.921875 549.652344 84.148438 548.257812 83.40625 C 546.863281 82.664062 545.449219 81.957031 544.019531 81.285156 C 542.589844 80.613281 541.144531 79.976562 539.683594 79.375 C 538.222656 78.777344 536.75 78.210938 535.257812 77.683594 C 533.769531 77.152344 532.269531 76.660156 530.757812 76.207031 C 529.246094 75.75 527.722656 75.332031 526.1875 74.949219 C 524.65625 74.570312 523.113281 74.226562 521.5625 73.921875 C 520.011719 73.617188 518.457031 73.347656 516.894531 73.121094 C 515.328125 72.890625 513.761719 72.699219 512.191406 72.546875 C 510.617188 72.394531 509.042969 72.28125 507.464844 72.207031 C 505.886719 72.128906 504.308594 72.09375 502.726562 72.097656 C 497.957031 72.132812 493.234375 71.695312 488.550781 70.789062 C 483.871094 69.878906 479.324219 68.515625 474.914062 66.695312 C 470.507812 64.878906 466.320312 62.640625 462.359375 59.984375 C 458.398438 57.328125 454.742188 54.304688 451.386719 50.917969 C 450.265625 49.800781 449.121094 48.710938 447.945312 47.652344 C 446.773438 46.589844 445.574219 45.558594 444.351562 44.558594 C 443.128906 43.554688 441.882812 42.585938 440.609375 41.644531 C 439.339844 40.703125 438.046875 39.792969 436.730469 38.917969 C 435.414062 38.039062 434.078125 37.195312 432.71875 36.382812 C 431.363281 35.570312 429.988281 34.792969 428.59375 34.046875 C 427.195312 33.304688 425.785156 32.59375 424.355469 31.917969 C 422.925781 31.246094 421.476562 30.605469 420.015625 30 C 418.554688 29.394531 417.082031 28.828125 415.589844 28.296875 C 414.101562 27.765625 412.601562 27.269531 411.085938 26.808594 C 409.574219 26.351562 408.050781 25.929688 406.515625 25.546875 C 404.980469 25.164062 403.4375 24.816406 401.886719 24.511719 C 400.335938 24.203125 398.777344 23.933594 397.214844 23.699219 C 395.652344 23.46875 394.082031 23.277344 392.507812 23.121094 C 390.933594 22.964844 389.355469 22.851562 387.777344 22.773438 C 386.199219 22.695312 384.617188 22.65625 383.035156 22.65625 C 381.457031 22.65625 379.875 22.695312 378.296875 22.773438 C 376.714844 22.851562 375.140625 22.964844 373.566406 23.121094 C 371.992188 23.277344 370.421875 23.46875 368.859375 23.699219 C 367.292969 23.933594 365.734375 24.203125 364.183594 24.511719 C 362.632812 24.816406 361.089844 25.164062 359.558594 25.546875 C 358.023438 25.929688 356.5 26.351562 354.984375 26.808594 C 353.472656 27.269531 351.972656 27.765625 350.480469 28.296875 C 348.992188 28.828125 347.515625 29.394531 346.054688 30 C 344.59375 30.605469 343.148438 31.246094 341.71875 31.917969 C 340.289062 32.59375 338.875 33.304688 337.480469 34.046875 C 336.085938 34.792969 334.710938 35.570312 333.351562 36.382812 C 331.996094 37.195312 330.660156 38.039062 329.34375 38.917969 C 328.027344 39.792969 326.734375 40.703125 325.464844 41.644531 C 324.191406 42.585938 322.945312 43.554688 321.722656 44.558594 C 320.496094 45.558594 319.300781 46.589844 318.125 47.652344 C 316.953125 48.710938 315.808594 49.800781 314.6875 50.917969 C 311.328125 54.300781 307.664062 57.316406 303.703125 59.96875 C 299.742188 62.621094 295.558594 64.859375 291.148438 66.675781 C 286.742188 68.496094 282.199219 69.859375 277.519531 70.773438 C 272.835938 71.683594 268.113281 72.125 263.347656 72.097656 C 261.765625 72.097656 260.183594 72.140625 258.605469 72.21875 C 257.027344 72.296875 255.449219 72.417969 253.875 72.574219 C 252.304688 72.730469 250.734375 72.925781 249.171875 73.160156 C 247.605469 73.394531 246.050781 73.664062 244.5 73.972656 C 242.949219 74.285156 241.40625 74.632812 239.875 75.019531 C 238.339844 75.402344 236.816406 75.828125 235.304688 76.285156 C 233.792969 76.746094 232.289062 77.242188 230.800781 77.777344 C 229.3125 78.3125 227.839844 78.882812 226.378906 79.488281 C 224.917969 80.09375 223.472656 80.734375 222.046875 81.410156 C 220.617188 82.089844 219.203125 82.800781 217.808594 83.546875 C 216.417969 84.292969 215.042969 85.070312 213.683594 85.886719 C 212.328125 86.699219 210.996094 87.546875 209.679688 88.425781 C 208.367188 89.304688 207.074219 90.214844 205.804688 91.15625 C 204.535156 92.097656 203.289062 93.070312 202.066406 94.074219 C 200.84375 95.078125 199.648438 96.109375 198.476562 97.171875 C 197.304688 98.234375 196.160156 99.324219 195.039062 100.441406 C 193.921875 101.558594 192.832031 102.703125 191.769531 103.875 C 190.707031 105.046875 189.675781 106.246094 188.671875 107.46875 C 187.667969 108.6875 186.695312 109.933594 185.753906 111.203125 C 184.8125 112.472656 183.902344 113.765625 183.023438 115.082031 C 182.144531 116.394531 181.296875 117.730469 180.484375 119.085938 C 179.671875 120.441406 178.890625 121.816406 178.144531 123.210938 C 177.398438 124.605469 176.6875 126.015625 176.011719 127.445312 C 175.332031 128.875 174.691406 130.320312 174.085938 131.78125 C 173.480469 133.242188 172.910156 134.714844 172.375 136.203125 C 171.84375 137.691406 171.347656 139.191406 170.886719 140.707031 C 170.425781 142.21875 170.003906 143.742188 169.617188 145.273438 C 169.230469 146.808594 168.882812 148.351562 168.574219 149.898438 C 168.261719 151.449219 167.992188 153.007812 167.757812 154.570312 C 167.523438 156.136719 167.328125 157.703125 167.171875 159.277344 C 167.015625 160.851562 166.898438 162.425781 166.816406 164.007812 C 166.738281 165.585938 166.695312 167.164062 166.695312 168.746094 C 166.71875 173.515625 166.269531 178.238281 165.355469 182.914062 C 164.4375 187.59375 163.074219 192.136719 161.253906 196.542969 C 159.4375 200.949219 157.203125 205.132812 154.554688 209.097656 C 151.90625 213.058594 148.894531 216.722656 145.515625 220.089844 C 144.40625 221.210938 143.324219 222.355469 142.273438 223.53125 C 141.21875 224.703125 140.195312 225.902344 139.203125 227.128906 C 138.207031 228.351562 137.246094 229.597656 136.3125 230.871094 C 135.378906 232.140625 134.476562 233.433594 133.605469 234.75 C 132.738281 236.066406 131.898438 237.402344 131.097656 238.757812 C 130.292969 240.113281 129.519531 241.488281 128.785156 242.882812 C 128.046875 244.277344 127.34375 245.6875 126.675781 247.117188 C 126.007812 248.542969 125.378906 249.988281 124.78125 251.449219 C 124.183594 252.90625 123.621094 254.382812 123.097656 255.867188 C 122.574219 257.355469 122.085938 258.855469 121.632812 260.363281 C 121.183594 261.875 120.769531 263.398438 120.390625 264.929688 C 120.015625 266.460938 119.675781 268 119.375 269.546875 C 119.074219 271.09375 118.808594 272.648438 118.585938 274.210938 C 118.359375 275.769531 118.171875 277.335938 118.023438 278.90625 C 117.875 280.476562 117.765625 282.046875 117.695312 283.625 C 117.625 285.199219 117.589844 286.773438 117.597656 288.351562 C 117.601562 289.929688 117.648438 291.503906 117.730469 293.078125 C 117.8125 294.652344 117.9375 296.226562 118.097656 297.792969 C 118.257812 299.363281 118.453125 300.925781 118.691406 302.484375 C 118.929688 304.042969 119.203125 305.597656 119.515625 307.140625 C 119.828125 308.6875 120.179688 310.222656 120.566406 311.753906 C 120.957031 313.28125 121.382812 314.796875 121.84375 316.304688 C 122.308594 317.8125 122.804688 319.308594 123.34375 320.792969 C 123.878906 322.273438 124.449219 323.742188 125.058594 325.199219 C 125.664062 326.652344 126.308594 328.09375 126.988281 329.515625 C 127.667969 330.941406 128.378906 332.347656 129.125 333.734375 C 129.875 335.121094 130.65625 336.492188 131.46875 337.84375 C 132.285156 339.191406 133.128906 340.523438 134.011719 341.832031 C 134.890625 343.140625 135.800781 344.425781 136.742188 345.691406 C 137.6875 346.953125 138.660156 348.195312 139.664062 349.410156 C 140.667969 350.628906 141.699219 351.816406 142.761719 352.984375 C 143.824219 354.148438 144.914062 355.289062 146.03125 356.402344 C 149.394531 359.773438 152.398438 363.445312 155.039062 367.410156 C 157.683594 371.375 159.910156 375.558594 161.730469 379.964844 C 163.546875 384.371094 164.914062 388.910156 165.835938 393.582031 C 166.757812 398.257812 167.214844 402.976562 167.207031 407.742188 C 167.203125 410.535156 167.324219 413.324219 167.5625 416.109375 C 167.800781 418.890625 168.15625 421.660156 168.636719 424.410156 C 169.113281 427.164062 169.710938 429.890625 170.425781 432.589844 C 171.140625 435.289062 171.96875 437.953125 172.914062 440.582031 C 173.859375 443.210938 174.917969 445.792969 176.085938 448.332031 C 177.257812 450.867188 178.535156 453.347656 179.917969 455.773438 C 181.304688 458.199219 182.789062 460.5625 184.378906 462.859375 C 185.96875 465.15625 187.65625 467.378906 189.4375 469.53125 C 191.21875 471.679688 193.089844 473.75 195.054688 475.738281 C 197.015625 477.726562 199.058594 479.628906 201.183594 481.441406 C 203.3125 483.25 205.511719 484.96875 207.789062 486.585938 C 210.0625 488.207031 212.402344 489.726562 214.8125 491.144531 C 217.21875 492.5625 219.683594 493.871094 222.203125 495.078125 C 224.722656 496.28125 227.289062 497.375 229.90625 498.355469 C 232.519531 499.335938 235.175781 500.203125 237.863281 500.953125 C 240.554688 501.703125 243.273438 502.339844 246.019531 502.855469 L 148.597656 737.871094 C 148.429688 738.324219 148.289062 738.789062 148.175781 739.257812 C 148.0625 739.730469 147.976562 740.203125 147.921875 740.6875 C 147.863281 741.167969 147.835938 741.648438 147.835938 742.132812 C 147.835938 742.617188 147.867188 743.101562 147.925781 743.582031 C 147.984375 744.0625 148.070312 744.539062 148.1875 745.007812 C 148.300781 745.476562 148.445312 745.941406 148.613281 746.394531 C 148.785156 746.847656 148.980469 747.289062 149.203125 747.71875 C 149.425781 748.148438 149.671875 748.5625 149.945312 748.964844 C 150.21875 749.363281 150.511719 749.746094 150.832031 750.113281 C 151.148438 750.476562 151.488281 750.824219 151.847656 751.148438 C 152.203125 751.472656 152.582031 751.777344 152.976562 752.054688 C 153.371094 752.335938 153.78125 752.589844 154.207031 752.824219 C 154.632812 753.054688 155.070312 753.257812 155.519531 753.4375 C 155.96875 753.617188 156.429688 753.769531 156.898438 753.894531 C 157.367188 754.019531 157.839844 754.113281 158.320312 754.183594 C 158.796875 754.25 159.28125 754.289062 159.765625 754.300781 L 162.074219 754.300781 L 383.355469 711.300781 L 604.640625 754.300781 L 606.949219 754.300781 C 608.757812 754.246094 610.480469 753.828125 612.109375 753.042969 C 613.742188 752.261719 615.144531 751.183594 616.320312 749.808594 C 617.074219 748.9375 617.6875 747.980469 618.160156 746.933594 C 618.636719 745.886719 618.953125 744.792969 619.113281 743.65625 C 619.273438 742.515625 619.265625 741.378906 619.097656 740.242188 C 618.929688 739.105469 618.601562 738.015625 618.117188 736.972656 L 520.441406 502.855469 C 523.191406 502.34375 525.917969 501.71875 528.617188 500.972656 C 531.316406 500.226562 533.976562 499.367188 536.597656 498.390625 C 539.222656 497.414062 541.800781 496.328125 544.328125 495.128906 C 546.859375 493.929688 549.328125 492.621094 551.746094 491.207031 C 554.160156 489.792969 556.511719 488.277344 558.796875 486.660156 C 561.082031 485.042969 563.289062 483.328125 565.425781 481.519531 C 567.5625 479.707031 569.613281 477.808594 571.585938 475.820312 C 573.554688 473.832031 575.4375 471.761719 577.226562 469.613281 C 579.019531 467.460938 580.714844 465.238281 582.3125 462.9375 C 583.910156 460.640625 585.40625 458.277344 586.796875 455.847656 C 588.191406 453.421875 589.476562 450.9375 590.65625 448.398438 C 591.832031 445.859375 592.898438 443.273438 593.851562 440.640625 C 594.804688 438.007812 595.640625 435.339844 596.363281 432.636719 C 597.085938 429.929688 597.6875 427.199219 598.171875 424.441406 C 598.65625 421.6875 599.023438 418.914062 599.265625 416.125 C 599.511719 413.335938 599.632812 410.542969 599.632812 407.742188 Z M 502.726562 480.390625 C 499.558594 480.382812 496.398438 480.527344 493.246094 480.832031 C 490.089844 481.132812 486.960938 481.589844 483.851562 482.199219 C 480.742188 482.8125 477.671875 483.574219 474.640625 484.488281 C 471.605469 485.402344 468.625 486.464844 465.699219 487.671875 C 462.769531 488.882812 459.910156 490.230469 457.113281 491.722656 C 454.320312 493.214844 451.605469 494.839844 448.96875 496.597656 C 446.335938 498.359375 443.792969 500.242188 441.34375 502.253906 C 438.894531 504.261719 436.550781 506.386719 434.3125 508.628906 C 433.472656 509.472656 432.613281 510.292969 431.734375 511.089844 C 430.855469 511.890625 429.957031 512.667969 429.039062 513.421875 C 428.121094 514.175781 427.183594 514.910156 426.230469 515.617188 C 425.277344 516.328125 424.304688 517.011719 423.316406 517.675781 C 422.328125 518.335938 421.324219 518.972656 420.308594 519.585938 C 419.289062 520.195312 418.253906 520.78125 417.207031 521.34375 C 416.160156 521.90625 415.097656 522.441406 414.023438 522.949219 C 412.949219 523.457031 411.863281 523.941406 410.765625 524.394531 C 409.667969 524.851562 408.558594 525.28125 407.441406 525.679688 C 406.320312 526.082031 405.191406 526.453125 404.054688 526.800781 C 402.917969 527.144531 401.773438 527.464844 400.621094 527.753906 C 399.46875 528.042969 398.308594 528.300781 397.140625 528.535156 C 395.976562 528.765625 394.804688 528.96875 393.628906 529.144531 C 392.453125 529.320312 391.273438 529.464844 390.089844 529.582031 C 388.910156 529.699219 387.722656 529.785156 386.535156 529.84375 C 385.347656 529.902344 384.160156 529.933594 382.972656 529.933594 C 381.785156 529.933594 380.59375 529.902344 379.410156 529.84375 C 378.222656 529.785156 377.035156 529.699219 375.851562 529.582031 C 374.671875 529.464844 373.492188 529.320312 372.316406 529.144531 C 371.140625 528.96875 369.96875 528.765625 368.800781 528.535156 C 367.636719 528.300781 366.476562 528.042969 365.324219 527.753906 C 364.171875 527.464844 363.027344 527.144531 361.890625 526.800781 C 360.75 526.453125 359.625 526.082031 358.503906 525.679688 C 357.386719 525.28125 356.277344 524.851562 355.179688 524.394531 C 354.082031 523.941406 352.996094 523.457031 351.921875 522.949219 C 350.847656 522.441406 349.785156 521.90625 348.738281 521.34375 C 347.691406 520.78125 346.65625 520.195312 345.636719 519.585938 C 344.617188 518.972656 343.613281 518.335938 342.628906 517.675781 C 341.640625 517.011719 340.667969 516.328125 339.714844 515.617188 C 338.761719 514.910156 337.824219 514.175781 336.90625 513.421875 C 335.988281 512.667969 335.089844 511.890625 334.210938 511.089844 C 333.328125 510.292969 332.46875 509.472656 331.628906 508.628906 C 329.398438 506.386719 327.0625 504.261719 324.621094 502.25 C 322.179688 500.242188 319.644531 498.355469 317.015625 496.59375 C 314.386719 494.835938 311.675781 493.210938 308.886719 491.71875 C 306.097656 490.226562 303.242188 488.878906 300.316406 487.667969 C 297.394531 486.460938 294.417969 485.398438 291.390625 484.484375 C 288.363281 483.570312 285.296875 482.808594 282.191406 482.195312 C 279.089844 481.585938 275.960938 481.128906 272.8125 480.828125 C 269.664062 480.527344 266.507812 480.378906 263.347656 480.390625 C 262.164062 480.382812 260.980469 480.34375 259.800781 480.273438 C 258.621094 480.207031 257.445312 480.109375 256.269531 479.984375 C 255.09375 479.859375 253.921875 479.703125 252.753906 479.519531 C 251.585938 479.335938 250.421875 479.125 249.265625 478.886719 C 248.105469 478.648438 246.953125 478.378906 245.808594 478.082031 C 244.664062 477.789062 243.527344 477.464844 242.398438 477.113281 C 241.269531 476.761719 240.152344 476.382812 239.042969 475.976562 C 237.929688 475.570312 236.832031 475.136719 235.742188 474.679688 C 234.652344 474.21875 233.574219 473.734375 232.507812 473.21875 C 231.445312 472.707031 230.390625 472.171875 229.351562 471.605469 C 228.3125 471.042969 227.289062 470.453125 226.277344 469.839844 C 225.265625 469.226562 224.273438 468.589844 223.292969 467.925781 C 222.3125 467.265625 221.351562 466.578125 220.40625 465.871094 C 219.457031 465.160156 218.53125 464.429688 217.621094 463.671875 C 216.710938 462.917969 215.820312 462.144531 214.945312 461.34375 C 214.074219 460.546875 213.222656 459.726562 212.390625 458.886719 C 211.558594 458.046875 210.746094 457.1875 209.957031 456.308594 C 209.164062 455.429688 208.398438 454.53125 207.652344 453.613281 C 206.90625 452.699219 206.179688 451.765625 205.480469 450.8125 C 204.777344 449.859375 204.101562 448.890625 203.449219 447.90625 C 202.792969 446.921875 202.164062 445.917969 201.5625 444.902344 C 200.957031 443.886719 200.375 442.859375 199.820312 441.8125 C 199.269531 440.769531 198.738281 439.710938 198.234375 438.640625 C 197.734375 437.570312 197.257812 436.492188 196.808594 435.398438 C 196.355469 434.304688 195.933594 433.199219 195.539062 432.085938 C 195.140625 430.972656 194.773438 429.847656 194.433594 428.71875 C 194.089844 427.585938 193.777344 426.445312 193.492188 425.296875 C 193.207031 424.152344 192.949219 422.996094 192.71875 421.839844 C 192.488281 420.679688 192.289062 419.511719 192.117188 418.34375 C 191.945312 417.175781 191.800781 416 191.683594 414.824219 C 191.570312 413.648438 191.484375 412.46875 191.425781 411.289062 C 191.367188 410.105469 191.339844 408.925781 191.339844 407.742188 C 191.351562 404.578125 191.203125 401.425781 190.902344 398.273438 C 190.601562 395.125 190.144531 392 189.535156 388.894531 C 188.925781 385.792969 188.160156 382.726562 187.246094 379.699219 C 186.332031 376.671875 185.269531 373.695312 184.0625 370.769531 C 182.855469 367.847656 181.503906 364.992188 180.011719 362.203125 C 178.519531 359.414062 176.894531 356.703125 175.136719 354.074219 C 173.375 351.445312 171.492188 348.910156 169.480469 346.46875 C 167.46875 344.027344 165.34375 341.691406 163.101562 339.457031 C 162.257812 338.617188 161.4375 337.757812 160.640625 336.878906 C 159.839844 336 159.0625 335.101562 158.308594 334.183594 C 157.554688 333.265625 156.820312 332.328125 156.113281 331.375 C 155.402344 330.421875 154.71875 329.449219 154.058594 328.460938 C 153.394531 327.472656 152.757812 326.46875 152.148438 325.453125 C 151.535156 324.433594 150.949219 323.398438 150.386719 322.351562 C 149.824219 321.304688 149.289062 320.242188 148.78125 319.167969 C 148.273438 318.09375 147.789062 317.007812 147.335938 315.910156 C 146.878906 314.8125 146.453125 313.703125 146.050781 312.585938 C 145.648438 311.464844 145.277344 310.335938 144.929688 309.199219 C 144.585938 308.0625 144.265625 306.917969 143.976562 305.765625 C 143.6875 304.613281 143.429688 303.453125 143.195312 302.285156 C 142.964844 301.121094 142.761719 299.949219 142.585938 298.773438 C 142.410156 297.597656 142.265625 296.417969 142.148438 295.234375 C 142.03125 294.054688 141.945312 292.867188 141.886719 291.679688 C 141.828125 290.492188 141.796875 289.304688 141.796875 288.117188 C 141.796875 286.929688 141.828125 285.738281 141.886719 284.554688 C 141.945312 283.367188 142.03125 282.179688 142.148438 280.996094 C 142.265625 279.816406 142.410156 278.636719 142.585938 277.460938 C 142.761719 276.285156 142.964844 275.113281 143.195312 273.945312 C 143.429688 272.78125 143.6875 271.621094 143.976562 270.46875 C 144.265625 269.316406 144.585938 268.171875 144.929688 267.035156 C 145.277344 265.894531 145.648438 264.769531 146.050781 263.648438 C 146.453125 262.53125 146.878906 261.421875 147.335938 260.324219 C 147.789062 259.226562 148.273438 258.140625 148.78125 257.066406 C 149.289062 255.992188 149.824219 254.929688 150.386719 253.882812 C 150.949219 252.835938 151.535156 251.800781 152.148438 250.78125 C 152.757812 249.761719 153.394531 248.757812 154.058594 247.773438 C 154.71875 246.785156 155.402344 245.8125 156.113281 244.859375 C 156.820312 243.90625 157.554688 242.96875 158.308594 242.050781 C 159.0625 241.132812 159.839844 240.234375 160.640625 239.355469 C 161.4375 238.472656 162.257812 237.613281 163.101562 236.773438 C 165.34375 234.539062 167.472656 232.195312 169.484375 229.75 C 171.5 227.300781 173.386719 224.761719 175.144531 222.128906 C 176.90625 219.492188 178.535156 216.78125 180.027344 213.984375 C 181.519531 211.1875 182.867188 208.328125 184.078125 205.398438 C 185.285156 202.46875 186.347656 199.488281 187.261719 196.457031 C 188.175781 193.421875 188.9375 190.351562 189.546875 187.242188 C 190.15625 184.132812 190.609375 181 190.910156 177.847656 C 191.210938 174.691406 191.351562 171.53125 191.339844 168.363281 C 191.339844 167.175781 191.371094 165.992188 191.433594 164.808594 C 191.492188 163.625 191.582031 162.441406 191.699219 161.261719 C 191.816406 160.082031 191.964844 158.90625 192.140625 157.734375 C 192.316406 156.5625 192.519531 155.394531 192.753906 154.230469 C 192.988281 153.070312 193.25 151.914062 193.539062 150.765625 C 193.828125 149.613281 194.144531 148.472656 194.492188 147.339844 C 194.835938 146.207031 195.210938 145.082031 195.613281 143.964844 C 196.011719 142.847656 196.441406 141.742188 196.894531 140.648438 C 197.351562 139.554688 197.832031 138.472656 198.339844 137.402344 C 198.847656 136.328125 199.382812 135.273438 199.945312 134.226562 C 200.503906 133.183594 201.089844 132.152344 201.699219 131.136719 C 202.308594 130.121094 202.945312 129.117188 203.605469 128.132812 C 204.265625 127.148438 204.949219 126.179688 205.65625 125.230469 C 206.363281 124.277344 207.09375 123.34375 207.847656 122.429688 C 208.597656 121.511719 209.375 120.617188 210.171875 119.738281 C 210.96875 118.859375 211.785156 118.003906 212.625 117.164062 C 213.464844 116.328125 214.324219 115.511719 215.203125 114.714844 C 216.082031 113.921875 216.980469 113.148438 217.894531 112.394531 C 218.8125 111.644531 219.75 110.917969 220.699219 110.210938 C 221.652344 109.503906 222.621094 108.824219 223.609375 108.164062 C 224.59375 107.507812 225.597656 106.875 226.613281 106.265625 C 227.632812 105.65625 228.664062 105.074219 229.707031 104.515625 C 230.753906 103.957031 231.8125 103.421875 232.886719 102.917969 C 233.957031 102.410156 235.042969 101.929688 236.136719 101.476562 C 237.230469 101.023438 238.339844 100.597656 239.453125 100.199219 C 240.570312 99.800781 241.695312 99.429688 242.832031 99.085938 C 243.964844 98.742188 245.109375 98.425781 246.257812 98.136719 C 247.40625 97.851562 248.5625 97.589844 249.726562 97.359375 C 250.890625 97.128906 252.058594 96.925781 253.230469 96.753906 C 254.402344 96.578125 255.578125 96.433594 256.757812 96.320312 C 257.9375 96.203125 259.121094 96.117188 260.304688 96.058594 C 261.488281 96 262.675781 95.96875 263.859375 95.96875 C 267.023438 95.980469 270.179688 95.835938 273.328125 95.535156 C 276.476562 95.234375 279.601562 94.777344 282.707031 94.164062 C 285.808594 93.554688 288.875 92.792969 291.902344 91.878906 C 294.933594 90.964844 297.90625 89.902344 300.832031 88.695312 C 303.753906 87.484375 306.609375 86.132812 309.398438 84.644531 C 312.191406 83.152344 314.898438 81.527344 317.527344 79.765625 C 320.15625 78.007812 322.691406 76.121094 325.132812 74.109375 C 327.574219 72.101562 329.914062 69.972656 332.144531 67.730469 C 332.984375 66.890625 333.84375 66.070312 334.722656 65.269531 C 335.601562 64.472656 336.5 63.695312 337.417969 62.9375 C 338.335938 62.183594 339.273438 61.453125 340.226562 60.742188 C 341.183594 60.035156 342.152344 59.347656 343.140625 58.6875 C 344.128906 58.027344 345.132812 57.390625 346.152344 56.777344 C 347.171875 56.164062 348.203125 55.578125 349.25 55.019531 C 350.300781 54.457031 351.359375 53.921875 352.433594 53.414062 C 353.507812 52.902344 354.59375 52.421875 355.691406 51.964844 C 356.789062 51.511719 357.898438 51.082031 359.019531 50.679688 C 360.136719 50.28125 361.265625 49.90625 362.402344 49.5625 C 363.539062 49.214844 364.683594 48.898438 365.839844 48.609375 C 366.992188 48.320312 368.148438 48.058594 369.316406 47.828125 C 370.480469 47.59375 371.652344 47.390625 372.828125 47.214844 C 374.003906 47.042969 375.183594 46.894531 376.367188 46.78125 C 377.550781 46.664062 378.734375 46.574219 379.921875 46.515625 C 381.109375 46.457031 382.296875 46.429688 383.484375 46.429688 C 384.675781 46.429688 385.863281 46.457031 387.050781 46.515625 C 388.238281 46.574219 389.421875 46.664062 390.605469 46.78125 C 391.789062 46.894531 392.96875 47.042969 394.144531 47.214844 C 395.320312 47.390625 396.488281 47.59375 397.65625 47.828125 C 398.820312 48.058594 399.980469 48.320312 401.132812 48.609375 C 402.285156 48.898438 403.429688 49.214844 404.570312 49.5625 C 405.707031 49.90625 406.835938 50.28125 407.953125 50.679688 C 409.074219 51.082031 410.179688 51.511719 411.277344 51.964844 C 412.375 52.421875 413.460938 52.902344 414.535156 53.414062 C 415.609375 53.921875 416.671875 54.457031 417.71875 55.019531 C 418.769531 55.578125 419.800781 56.164062 420.820312 56.777344 C 421.839844 57.390625 422.84375 58.027344 423.832031 58.6875 C 424.820312 59.347656 425.789062 60.035156 426.742188 60.742188 C 427.699219 61.453125 428.632812 62.183594 429.550781 62.9375 C 430.46875 63.695312 431.367188 64.472656 432.25 65.269531 C 433.128906 66.070312 433.988281 66.890625 434.828125 67.730469 C 437.042969 69.976562 439.363281 72.105469 441.789062 74.121094 C 444.214844 76.136719 446.730469 78.027344 449.339844 79.796875 C 451.953125 81.566406 454.644531 83.199219 457.414062 84.703125 C 460.1875 86.207031 463.023438 87.574219 465.929688 88.796875 C 468.835938 90.023438 471.792969 91.101562 474.804688 92.035156 C 477.816406 92.96875 480.867188 93.753906 483.957031 94.386719 C 487.046875 95.023438 490.15625 95.503906 493.292969 95.832031 C 496.429688 96.160156 499.574219 96.335938 502.726562 96.355469 C 503.910156 96.355469 505.09375 96.386719 506.277344 96.449219 C 507.460938 96.507812 508.640625 96.597656 509.820312 96.714844 C 510.996094 96.832031 512.171875 96.980469 513.34375 97.15625 C 514.515625 97.332031 515.679688 97.535156 516.839844 97.765625 C 518.003906 98 519.15625 98.261719 520.304688 98.550781 C 521.453125 98.839844 522.59375 99.15625 523.726562 99.5 C 524.859375 99.847656 525.984375 100.21875 527.097656 100.617188 C 528.210938 101.019531 529.316406 101.445312 530.410156 101.898438 C 531.503906 102.355469 532.585938 102.835938 533.65625 103.34375 C 534.726562 103.847656 535.78125 104.382812 536.828125 104.941406 C 537.871094 105.5 538.902344 106.082031 539.917969 106.691406 C 540.929688 107.300781 541.929688 107.9375 542.914062 108.59375 C 543.898438 109.253906 544.867188 109.933594 545.820312 110.640625 C 546.769531 111.347656 547.703125 112.074219 548.617188 112.828125 C 549.53125 113.578125 550.429688 114.351562 551.304688 115.148438 C 552.183594 115.941406 553.039062 116.757812 553.878906 117.597656 C 554.714844 118.433594 555.53125 119.289062 556.328125 120.167969 C 557.121094 121.046875 557.894531 121.941406 558.648438 122.855469 C 559.398438 123.773438 560.128906 124.703125 560.832031 125.65625 C 561.539062 126.605469 562.222656 127.574219 562.878906 128.558594 C 563.539062 129.542969 564.171875 130.542969 564.78125 131.558594 C 565.390625 132.574219 565.972656 133.601562 566.53125 134.648438 C 567.09375 135.691406 567.625 136.75 568.132812 137.816406 C 568.640625 138.886719 569.121094 139.96875 569.574219 141.0625 C 570.027344 142.15625 570.457031 143.261719 570.855469 144.375 C 571.253906 145.492188 571.628906 146.613281 571.972656 147.746094 C 572.316406 148.878906 572.636719 150.019531 572.925781 151.167969 C 573.214844 152.316406 573.472656 153.472656 573.707031 154.632812 C 573.9375 155.792969 574.144531 156.960938 574.320312 158.132812 C 574.496094 159.300781 574.640625 160.476562 574.757812 161.65625 C 574.875 162.832031 574.964844 164.015625 575.027344 165.195312 C 575.085938 166.378906 575.117188 167.5625 575.117188 168.746094 C 575.105469 171.914062 575.25 175.078125 575.546875 178.230469 C 575.847656 181.386719 576.300781 184.515625 576.910156 187.625 C 577.523438 190.734375 578.28125 193.804688 579.195312 196.839844 C 580.109375 199.875 581.171875 202.855469 582.378906 205.785156 C 583.589844 208.710938 584.941406 211.574219 586.433594 214.371094 C 587.925781 217.164062 589.550781 219.878906 591.3125 222.511719 C 593.074219 225.148438 594.960938 227.6875 596.972656 230.132812 C 598.984375 232.582031 601.113281 234.921875 603.355469 237.160156 C 604.203125 237.996094 605.027344 238.855469 605.828125 239.734375 C 606.632812 240.609375 607.414062 241.507812 608.171875 242.425781 C 608.929688 243.339844 609.667969 244.277344 610.378906 245.230469 C 611.089844 246.183594 611.78125 247.152344 612.445312 248.140625 C 613.109375 249.125 613.75 250.128906 614.363281 251.148438 C 614.980469 252.164062 615.570312 253.199219 616.132812 254.246094 C 616.695312 255.292969 617.234375 256.355469 617.746094 257.429688 C 618.257812 258.503906 618.742188 259.589844 619.199219 260.6875 C 619.660156 261.785156 620.089844 262.894531 620.492188 264.015625 C 620.894531 265.132812 621.269531 266.261719 621.617188 267.402344 C 621.964844 268.539062 622.285156 269.683594 622.574219 270.839844 C 622.867188 271.992188 623.128906 273.152344 623.363281 274.320312 C 623.59375 275.484375 623.800781 276.65625 623.976562 277.835938 C 624.152344 279.011719 624.296875 280.191406 624.414062 281.375 C 624.53125 282.558594 624.621094 283.746094 624.679688 284.933594 C 624.738281 286.121094 624.765625 287.3125 624.765625 288.5 C 624.765625 289.691406 624.738281 290.878906 624.679688 292.070312 C 624.621094 293.257812 624.53125 294.445312 624.414062 295.628906 C 624.296875 296.8125 624.152344 297.992188 623.976562 299.167969 C 623.800781 300.347656 623.59375 301.519531 623.363281 302.683594 C 623.128906 303.851562 622.867188 305.011719 622.574219 306.164062 C 622.285156 307.320312 621.964844 308.464844 621.617188 309.601562 C 621.269531 310.742188 620.894531 311.871094 620.492188 312.988281 C 620.089844 314.109375 619.660156 315.21875 619.199219 316.316406 C 618.742188 317.414062 618.257812 318.5 617.746094 319.574219 C 617.234375 320.648438 616.695312 321.710938 616.132812 322.757812 C 615.570312 323.804688 614.980469 324.835938 614.363281 325.855469 C 613.75 326.875 613.109375 327.878906 612.445312 328.863281 C 611.78125 329.851562 611.089844 330.820312 610.378906 331.773438 C 609.667969 332.726562 608.929688 333.660156 608.171875 334.578125 C 607.414062 335.496094 606.632812 336.394531 605.828125 337.269531 C 605.027344 338.148438 604.203125 339.007812 603.355469 339.84375 C 601.136719 342.070312 599.035156 344.398438 597.042969 346.832031 C 595.054688 349.261719 593.1875 351.789062 591.445312 354.402344 C 589.703125 357.019531 588.09375 359.714844 586.617188 362.488281 C 585.140625 365.261719 583.804688 368.101562 582.609375 371.007812 C 581.410156 373.914062 580.359375 376.871094 579.453125 379.878906 C 578.546875 382.890625 577.789062 385.9375 577.179688 389.019531 C 576.574219 392.101562 576.121094 395.207031 575.816406 398.335938 C 575.515625 401.464844 575.367188 404.601562 575.375 407.742188 C 575.375 408.933594 575.347656 410.121094 575.289062 411.308594 C 575.230469 412.496094 575.140625 413.679688 575.027344 414.863281 C 574.910156 416.046875 574.765625 417.226562 574.589844 418.402344 C 574.414062 419.578125 574.210938 420.75 573.980469 421.917969 C 573.746094 423.082031 573.488281 424.242188 573.199219 425.394531 C 572.910156 426.546875 572.59375 427.695312 572.246094 428.832031 C 571.902344 429.96875 571.53125 431.097656 571.128906 432.21875 C 570.726562 433.335938 570.300781 434.445312 569.84375 435.542969 C 569.390625 436.644531 568.910156 437.730469 568.402344 438.804688 C 567.890625 439.878906 567.359375 440.941406 566.796875 441.988281 C 566.238281 443.039062 565.652344 444.070312 565.039062 445.09375 C 564.429688 446.113281 563.792969 447.117188 563.132812 448.105469 C 562.472656 449.09375 561.789062 450.066406 561.078125 451.019531 C 560.371094 451.976562 559.640625 452.910156 558.886719 453.832031 C 558.128906 454.75 557.355469 455.648438 556.554688 456.53125 C 555.757812 457.410156 554.9375 458.273438 554.097656 459.113281 C 553.257812 459.953125 552.394531 460.773438 551.515625 461.570312 C 550.632812 462.371094 549.734375 463.148438 548.816406 463.902344 C 547.894531 464.65625 546.957031 465.386719 546.003906 466.09375 C 545.046875 466.804688 544.078125 467.488281 543.089844 468.148438 C 542.101562 468.808594 541.09375 469.445312 540.074219 470.054688 C 539.054688 470.667969 538.023438 471.253906 536.972656 471.8125 C 535.925781 472.375 534.863281 472.910156 533.789062 473.417969 C 532.714844 473.925781 531.625 474.40625 530.527344 474.863281 C 529.429688 475.316406 528.320312 475.746094 527.203125 476.144531 C 526.082031 476.546875 524.953125 476.917969 523.816406 477.261719 C 522.679688 477.609375 521.53125 477.925781 520.378906 478.214844 C 519.226562 478.503906 518.066406 478.765625 516.898438 478.996094 C 515.734375 479.226562 514.5625 479.429688 513.386719 479.605469 C 512.210938 479.78125 511.03125 479.925781 509.847656 480.042969 C 508.664062 480.160156 507.480469 480.246094 506.292969 480.304688 C 505.105469 480.363281 503.914062 480.390625 502.726562 480.390625 Z M 371.292969 624.664062 L 371.292969 688.839844 L 279.902344 706.808594 L 314.945312 610.285156 C 315.21875 609.546875 315.417969 608.785156 315.542969 608.003906 C 315.667969 607.222656 315.714844 606.4375 315.683594 605.648438 C 315.648438 604.855469 315.539062 604.078125 315.351562 603.308594 C 315.167969 602.539062 314.90625 601.796875 314.570312 601.082031 C 314.238281 600.367188 313.835938 599.6875 313.367188 599.050781 C 312.898438 598.414062 312.371094 597.832031 311.785156 597.300781 C 311.199219 596.765625 310.570312 596.296875 309.890625 595.890625 C 309.214844 595.484375 308.5 595.148438 307.757812 594.882812 C 306.433594 594.378906 305.066406 594.121094 303.648438 594.113281 C 302.414062 594.15625 301.210938 594.375 300.042969 594.765625 C 298.871094 595.15625 297.777344 595.703125 296.765625 596.410156 C 295.75 597.113281 294.859375 597.949219 294.085938 598.914062 C 293.3125 599.875 292.695312 600.929688 292.226562 602.070312 L 252.179688 712.199219 L 179.660156 726.320312 L 271.6875 505.035156 C 275.757812 505.472656 279.757812 506.25 283.695312 507.367188 C 287.628906 508.480469 291.445312 509.917969 295.140625 511.675781 C 298.832031 513.4375 302.351562 515.492188 305.699219 517.847656 C 309.042969 520.203125 312.167969 522.820312 315.074219 525.699219 C 316.191406 526.820312 317.335938 527.914062 318.503906 528.976562 C 319.675781 530.042969 320.875 531.078125 322.09375 532.082031 C 323.316406 533.089844 324.5625 534.0625 325.832031 535.007812 C 327.105469 535.953125 328.394531 536.863281 329.710938 537.746094 C 331.027344 538.625 332.363281 539.472656 333.71875 540.289062 C 335.074219 541.101562 336.449219 541.882812 337.84375 542.632812 C 339.242188 543.378906 340.652344 544.089844 342.082031 544.769531 C 343.511719 545.445312 344.957031 546.089844 346.421875 546.695312 C 347.882812 547.300781 349.359375 547.871094 350.847656 548.40625 C 352.335938 548.941406 353.839844 549.4375 355.351562 549.898438 C 356.867188 550.359375 358.390625 550.78125 359.925781 551.164062 C 361.460938 551.550781 363.003906 551.898438 364.558594 552.207031 C 366.109375 552.515625 367.667969 552.789062 369.234375 553.019531 C 370.796875 553.253906 372.367188 553.445312 373.945312 553.601562 C 375.519531 553.757812 377.097656 553.875 378.675781 553.953125 C 380.257812 554.03125 381.839844 554.070312 383.421875 554.070312 C 385.003906 554.070312 386.585938 554.03125 388.167969 553.953125 C 389.746094 553.875 391.324219 553.757812 392.898438 553.601562 C 394.472656 553.445312 396.042969 553.253906 397.609375 553.019531 C 399.175781 552.789062 400.734375 552.515625 402.285156 552.207031 C 403.835938 551.898438 405.382812 551.550781 406.917969 551.164062 C 408.449219 550.78125 409.976562 550.359375 411.488281 549.898438 C 413.003906 549.4375 414.507812 548.941406 415.996094 548.40625 C 417.484375 547.871094 418.960938 547.300781 420.421875 546.695312 C 421.882812 546.089844 423.328125 545.445312 424.761719 544.769531 C 426.191406 544.089844 427.601562 543.378906 428.996094 542.632812 C 430.394531 541.882812 431.769531 541.101562 433.125 540.289062 C 434.480469 539.472656 435.816406 538.625 437.132812 537.746094 C 438.445312 536.863281 439.738281 535.953125 441.007812 535.007812 C 442.28125 534.0625 443.527344 533.089844 444.746094 532.082031 C 445.96875 531.078125 447.167969 530.042969 448.335938 528.976562 C 449.507812 527.914062 450.652344 526.820312 451.769531 525.699219 C 454.664062 522.824219 457.78125 520.210938 461.117188 517.863281 C 464.453125 515.511719 467.960938 513.457031 471.644531 511.699219 C 475.328125 509.9375 479.128906 508.5 483.054688 507.382812 C 486.980469 506.261719 490.96875 505.480469 495.027344 505.035156 L 587.183594 726.320312 L 514.535156 712.199219 L 474.488281 602.070312 C 474.070312 600.910156 473.484375 599.839844 472.734375 598.855469 C 471.984375 597.875 471.101562 597.027344 470.09375 596.316406 C 469.082031 595.605469 467.988281 595.0625 466.8125 594.683594 C 465.636719 594.308594 464.429688 594.117188 463.195312 594.113281 C 461.738281 594.128906 460.328125 594.386719 458.957031 594.882812 C 458.214844 595.148438 457.5 595.484375 456.824219 595.890625 C 456.144531 596.296875 455.511719 596.765625 454.929688 597.300781 C 454.34375 597.832031 453.816406 598.414062 453.347656 599.050781 C 452.878906 599.6875 452.476562 600.367188 452.144531 601.082031 C 451.808594 601.796875 451.546875 602.539062 451.359375 603.308594 C 451.175781 604.078125 451.066406 604.855469 451.03125 605.648438 C 451 606.4375 451.046875 607.222656 451.171875 608.003906 C 451.296875 608.785156 451.496094 609.546875 451.769531 610.285156 L 486.8125 706.808594 L 395.550781 688.96875 L 395.550781 624.789062 C 395.59375 624.367188 395.617188 623.941406 395.613281 623.515625 C 395.613281 623.09375 395.589844 622.667969 395.546875 622.246094 C 395.5 621.820312 395.433594 621.402344 395.34375 620.984375 C 395.253906 620.570312 395.144531 620.160156 395.011719 619.753906 C 394.878906 619.351562 394.726562 618.953125 394.554688 618.566406 C 394.378906 618.175781 394.1875 617.796875 393.972656 617.429688 C 393.761719 617.0625 393.527344 616.707031 393.277344 616.363281 C 393.027344 616.019531 392.761719 615.6875 392.476562 615.371094 C 392.191406 615.058594 391.890625 614.757812 391.574219 614.472656 C 391.257812 614.1875 390.925781 613.921875 390.582031 613.671875 C 390.238281 613.421875 389.878906 613.191406 389.511719 612.976562 C 389.144531 612.765625 388.765625 612.570312 388.375 612.398438 C 387.988281 612.226562 387.589844 612.074219 387.183594 611.941406 C 386.78125 611.8125 386.371094 611.703125 385.953125 611.613281 C 385.539062 611.523438 385.117188 611.457031 384.695312 611.414062 C 384.269531 611.371094 383.847656 611.347656 383.421875 611.347656 C 382.996094 611.347656 382.570312 611.371094 382.148438 611.414062 C 381.726562 611.457031 381.304688 611.523438 380.890625 611.613281 C 380.472656 611.703125 380.0625 611.8125 379.65625 611.941406 C 379.253906 612.074219 378.855469 612.226562 378.46875 612.398438 C 378.078125 612.570312 377.699219 612.765625 377.332031 612.976562 C 376.960938 613.191406 376.605469 613.421875 376.261719 613.671875 C 375.917969 613.921875 375.585938 614.1875 375.269531 614.472656 C 374.953125 614.757812 374.652344 615.058594 374.367188 615.371094 C 374.082031 615.6875 373.816406 616.019531 373.566406 616.363281 C 373.3125 616.707031 373.082031 617.0625 372.871094 617.429688 C 372.65625 617.796875 372.460938 618.175781 372.289062 618.566406 C 372.117188 618.953125 371.960938 619.351562 371.832031 619.753906 C 371.699219 620.160156 371.585938 620.570312 371.5 620.984375 C 371.410156 621.402344 371.34375 621.820312 371.296875 622.246094 C 371.25 622.667969 371.230469 623.09375 371.226562 623.515625 C 371.226562 623.941406 371.25 624.367188 371.292969 624.789062 Z M 371.292969 624.664062 " fill-opacity="1" fill-rule="nonzero"/><path fill="#ffffff" d="M 461.652344 210.976562 C 459.757812 209.835938 457.703125 209.28125 455.492188 209.308594 C 454.445312 209.304688 453.414062 209.4375 452.398438 209.703125 C 451.386719 209.972656 450.421875 210.363281 449.511719 210.882812 C 448.601562 211.398438 447.769531 212.023438 447.019531 212.757812 C 446.273438 213.492188 445.632812 214.308594 445.097656 215.210938 L 363.589844 352.039062 L 306.089844 279.390625 C 305.515625 278.679688 304.875 278.042969 304.160156 277.480469 C 303.445312 276.917969 302.675781 276.441406 301.855469 276.054688 C 301.03125 275.664062 300.175781 275.371094 299.289062 275.175781 C 298.398438 274.980469 297.5 274.886719 296.589844 274.894531 C 295.238281 274.878906 293.921875 275.09375 292.644531 275.535156 C 291.367188 275.972656 290.199219 276.617188 289.144531 277.464844 C 288.515625 277.957031 287.945312 278.507812 287.425781 279.117188 C 286.90625 279.722656 286.453125 280.375 286.0625 281.074219 C 285.671875 281.773438 285.355469 282.503906 285.113281 283.261719 C 284.867188 284.023438 284.703125 284.800781 284.613281 285.597656 C 284.523438 286.390625 284.511719 287.1875 284.582031 287.980469 C 284.648438 288.777344 284.796875 289.558594 285.019531 290.328125 C 285.242188 291.09375 285.539062 291.832031 285.910156 292.539062 C 286.28125 293.25 286.71875 293.914062 287.21875 294.535156 L 355.503906 380.660156 C 356.695312 382.050781 358.117188 383.140625 359.773438 383.921875 C 361.429688 384.707031 363.171875 385.117188 365.003906 385.152344 L 365.773438 385.152344 C 366.753906 385.089844 367.714844 384.910156 368.652344 384.613281 C 369.59375 384.316406 370.480469 383.910156 371.320312 383.394531 C 372.160156 382.882812 372.921875 382.273438 373.613281 381.570312 C 374.304688 380.871094 374.898438 380.097656 375.398438 379.25 L 465.890625 228.046875 C 466.285156 227.339844 466.613281 226.605469 466.871094 225.835938 C 467.125 225.066406 467.308594 224.28125 467.417969 223.480469 C 467.527344 222.675781 467.558594 221.871094 467.515625 221.0625 C 467.46875 220.253906 467.351562 219.457031 467.15625 218.671875 C 466.960938 217.886719 466.691406 217.125 466.355469 216.390625 C 466.015625 215.65625 465.609375 214.957031 465.140625 214.296875 C 464.667969 213.640625 464.140625 213.03125 463.554688 212.472656 C 462.96875 211.914062 462.335938 211.414062 461.652344 210.976562 Z M 461.652344 210.976562 " fill-opacity="1" fill-rule="nonzero"/><path fill="#ffffff" d="M 383.355469 112.527344 C 380.480469 112.527344 377.601562 112.597656 374.730469 112.738281 C 371.855469 112.882812 368.984375 113.09375 366.121094 113.375 C 363.257812 113.65625 360.402344 114.007812 357.554688 114.429688 C 354.707031 114.851562 351.875 115.34375 349.050781 115.90625 C 346.230469 116.46875 343.421875 117.097656 340.628906 117.796875 C 337.839844 118.496094 335.066406 119.265625 332.3125 120.101562 C 329.558594 120.933594 326.828125 121.835938 324.117188 122.808594 C 321.40625 123.777344 318.722656 124.8125 316.0625 125.914062 C 313.40625 127.015625 310.773438 128.179688 308.171875 129.410156 C 305.570312 130.640625 303.003906 131.933594 300.464844 133.292969 C 297.925781 134.648438 295.421875 136.066406 292.953125 137.546875 C 290.484375 139.023438 288.054688 140.5625 285.664062 142.164062 C 283.269531 143.761719 280.917969 145.417969 278.605469 147.132812 C 276.292969 148.847656 274.027344 150.617188 271.800781 152.441406 C 269.578125 154.269531 267.398438 156.148438 265.265625 158.082031 C 263.132812 160.011719 261.050781 161.996094 259.015625 164.03125 C 256.980469 166.066406 254.996094 168.152344 253.0625 170.28125 C 251.132812 172.414062 249.253906 174.59375 247.425781 176.816406 C 245.601562 179.042969 243.832031 181.3125 242.117188 183.621094 C 240.402344 185.933594 238.746094 188.285156 237.148438 190.679688 C 235.546875 193.070312 234.007812 195.503906 232.53125 197.972656 C 231.050781 200.4375 229.632812 202.941406 228.277344 205.480469 C 226.917969 208.019531 225.625 210.589844 224.394531 213.191406 C 223.164062 215.792969 222 218.421875 220.898438 221.082031 C 219.796875 223.738281 218.761719 226.421875 217.789062 229.132812 C 216.820312 231.84375 215.917969 234.574219 215.082031 237.328125 C 214.25 240.082031 213.480469 242.855469 212.78125 245.648438 C 212.082031 248.4375 211.453125 251.246094 210.890625 254.066406 C 210.328125 256.890625 209.835938 259.726562 209.414062 262.570312 C 208.992188 265.417969 208.640625 268.273438 208.359375 271.136719 C 208.078125 274 207.863281 276.871094 207.722656 279.746094 C 207.582031 282.621094 207.511719 285.496094 207.511719 288.375 C 207.511719 291.25 207.582031 294.128906 207.722656 297 C 207.863281 299.875 208.078125 302.746094 208.359375 305.609375 C 208.640625 308.472656 208.992188 311.328125 209.414062 314.175781 C 209.835938 317.023438 210.328125 319.855469 210.890625 322.679688 C 211.453125 325.5 212.082031 328.308594 212.78125 331.101562 C 213.480469 333.890625 214.25 336.664062 215.082031 339.417969 C 215.917969 342.171875 216.820312 344.90625 217.789062 347.613281 C 218.761719 350.324219 219.796875 353.007812 220.898438 355.667969 C 222 358.324219 223.164062 360.957031 224.394531 363.558594 C 225.625 366.160156 226.917969 368.726562 228.277344 371.265625 C 229.632812 373.804688 231.050781 376.308594 232.53125 378.777344 C 234.007812 381.246094 235.546875 383.675781 237.148438 386.066406 C 238.746094 388.460938 240.402344 390.8125 242.117188 393.125 C 243.832031 395.4375 245.601562 397.703125 247.425781 399.929688 C 249.253906 402.152344 251.132812 404.332031 253.0625 406.464844 C 254.996094 408.597656 256.980469 410.679688 259.015625 412.714844 C 261.050781 414.75 263.132812 416.734375 265.265625 418.667969 C 267.398438 420.597656 269.578125 422.476562 271.800781 424.304688 C 274.027344 426.128906 276.292969 427.898438 278.605469 429.613281 C 280.917969 431.328125 283.269531 432.984375 285.664062 434.582031 C 288.054688 436.183594 290.484375 437.722656 292.953125 439.203125 C 295.421875 440.679688 297.925781 442.097656 300.464844 443.457031 C 303.003906 444.8125 305.570312 446.105469 308.171875 447.335938 C 310.773438 448.566406 313.40625 449.730469 316.0625 450.832031 C 318.722656 451.933594 321.40625 452.96875 324.117188 453.941406 C 326.828125 454.910156 329.558594 455.8125 332.3125 456.648438 C 335.066406 457.484375 337.839844 458.25 340.628906 458.949219 C 343.421875 459.648438 346.230469 460.277344 349.050781 460.839844 C 351.875 461.402344 354.707031 461.894531 357.554688 462.316406 C 360.402344 462.738281 363.257812 463.089844 366.121094 463.371094 C 368.984375 463.65625 371.855469 463.867188 374.730469 464.007812 C 377.601562 464.148438 380.480469 464.21875 383.355469 464.21875 C 386.234375 464.21875 389.109375 464.148438 391.984375 464.007812 C 394.859375 463.867188 397.730469 463.65625 400.59375 463.371094 C 403.457031 463.089844 406.3125 462.738281 409.160156 462.316406 C 412.007812 461.894531 414.839844 461.402344 417.664062 460.839844 C 420.484375 460.277344 423.292969 459.648438 426.085938 458.949219 C 428.875 458.25 431.648438 457.484375 434.402344 456.648438 C 437.15625 455.8125 439.886719 454.910156 442.597656 453.941406 C 445.308594 452.96875 447.992188 451.933594 450.652344 450.832031 C 453.308594 449.730469 455.941406 448.566406 458.539062 447.335938 C 461.140625 446.105469 463.710938 444.8125 466.25 443.457031 C 468.789062 442.097656 471.292969 440.679688 473.761719 439.203125 C 476.226562 437.722656 478.660156 436.183594 481.050781 434.582031 C 483.445312 432.984375 485.796875 431.328125 488.109375 429.613281 C 490.421875 427.898438 492.6875 426.128906 494.914062 424.304688 C 497.136719 422.476562 499.316406 420.597656 501.449219 418.667969 C 503.582031 416.734375 505.664062 414.75 507.699219 412.714844 C 509.734375 410.679688 511.71875 408.597656 513.648438 406.464844 C 515.582031 404.332031 517.460938 402.152344 519.289062 399.929688 C 521.113281 397.703125 522.882812 395.4375 524.597656 393.125 C 526.3125 390.8125 527.96875 388.460938 529.566406 386.066406 C 531.167969 383.675781 532.707031 381.246094 534.183594 378.777344 C 535.664062 376.308594 537.082031 373.804688 538.4375 371.265625 C 539.796875 368.726562 541.089844 366.160156 542.320312 363.558594 C 543.550781 360.957031 544.714844 358.324219 545.816406 355.667969 C 546.917969 353.007812 547.953125 350.324219 548.921875 347.613281 C 549.894531 344.90625 550.796875 342.171875 551.632812 339.417969 C 552.464844 336.664062 553.234375 333.890625 553.933594 331.101562 C 554.632812 328.308594 555.261719 325.5 555.824219 322.679688 C 556.386719 319.855469 556.878906 317.023438 557.300781 314.175781 C 557.722656 311.328125 558.074219 308.472656 558.355469 305.609375 C 558.636719 302.746094 558.851562 299.875 558.992188 297 C 559.132812 294.128906 559.203125 291.25 559.203125 288.375 C 559.199219 285.496094 559.125 282.621094 558.980469 279.75 C 558.835938 276.875 558.617188 274.007812 558.332031 271.144531 C 558.046875 268.28125 557.691406 265.429688 557.265625 262.585938 C 556.839844 259.738281 556.347656 256.90625 555.78125 254.085938 C 555.21875 251.265625 554.585938 248.460938 553.882812 245.667969 C 553.179688 242.878906 552.410156 240.109375 551.574219 237.355469 C 550.734375 234.605469 549.832031 231.875 548.859375 229.167969 C 547.890625 226.460938 546.851562 223.777344 545.75 221.121094 C 544.644531 218.464844 543.480469 215.835938 542.246094 213.234375 C 541.015625 210.636719 539.722656 208.066406 538.363281 205.53125 C 537.007812 202.996094 535.585938 200.492188 534.109375 198.027344 C 532.628906 195.558594 531.089844 193.128906 529.488281 190.738281 C 527.890625 188.347656 526.234375 185.996094 524.519531 183.6875 C 522.804688 181.378906 521.035156 179.109375 519.210938 176.886719 C 517.382812 174.664062 515.503906 172.488281 513.574219 170.355469 C 511.640625 168.222656 509.65625 166.140625 507.625 164.105469 C 505.589844 162.074219 503.507812 160.089844 501.375 158.15625 C 499.246094 156.226562 497.066406 154.347656 494.84375 152.519531 C 492.621094 150.695312 490.355469 148.925781 488.042969 147.210938 C 485.734375 145.496094 483.382812 143.839844 480.992188 142.242188 C 478.601562 140.644531 476.171875 139.101562 473.703125 137.625 C 471.238281 136.144531 468.734375 134.722656 466.199219 133.367188 C 463.664062 132.007812 461.09375 130.714844 458.496094 129.484375 C 455.894531 128.25 453.269531 127.085938 450.609375 125.980469 C 447.953125 124.878906 445.273438 123.84375 442.5625 122.871094 C 439.855469 121.898438 437.125 120.996094 434.375 120.15625 C 431.621094 119.320312 428.851562 118.550781 426.0625 117.847656 C 423.273438 117.144531 420.464844 116.511719 417.644531 115.949219 C 414.824219 115.386719 411.992188 114.890625 409.148438 114.464844 C 406.300781 114.039062 403.449219 113.683594 400.585938 113.398438 C 397.722656 113.113281 394.855469 112.898438 391.980469 112.75 C 389.109375 112.605469 386.234375 112.53125 383.355469 112.527344 Z M 383.355469 439.960938 C 380.875 439.960938 378.398438 439.898438 375.917969 439.777344 C 373.441406 439.65625 370.96875 439.472656 368.5 439.230469 C 366.03125 438.988281 363.570312 438.683594 361.113281 438.320312 C 358.660156 437.957031 356.21875 437.53125 353.785156 437.046875 C 351.351562 436.5625 348.929688 436.019531 346.523438 435.417969 C 344.117188 434.8125 341.726562 434.152344 339.355469 433.433594 C 336.980469 432.710938 334.625 431.933594 332.289062 431.097656 C 329.953125 430.261719 327.640625 429.371094 325.347656 428.421875 C 323.054688 427.472656 320.789062 426.46875 318.546875 425.40625 C 316.304688 424.34375 314.085938 423.230469 311.898438 422.0625 C 309.710938 420.890625 307.554688 419.667969 305.425781 418.394531 C 303.296875 417.117188 301.203125 415.792969 299.140625 414.414062 C 297.078125 413.035156 295.050781 411.605469 293.058594 410.128906 C 291.066406 408.652344 289.109375 407.125 287.191406 405.550781 C 285.273438 403.976562 283.394531 402.359375 281.558594 400.691406 C 279.71875 399.027344 277.921875 397.316406 276.167969 395.5625 C 274.414062 393.808594 272.707031 392.011719 271.039062 390.171875 C 269.371094 388.335938 267.753906 386.457031 266.179688 384.539062 C 264.605469 382.621094 263.078125 380.667969 261.601562 378.671875 C 260.125 376.679688 258.695312 374.652344 257.316406 372.589844 C 255.9375 370.527344 254.613281 368.433594 253.335938 366.304688 C 252.0625 364.175781 250.839844 362.019531 249.667969 359.832031 C 248.5 357.644531 247.386719 355.429688 246.324219 353.183594 C 245.265625 350.941406 244.257812 348.675781 243.308594 346.382812 C 242.359375 344.089844 241.46875 341.777344 240.632812 339.441406 C 239.796875 337.105469 239.019531 334.75 238.296875 332.375 C 237.578125 330.003906 236.917969 327.613281 236.3125 325.207031 C 235.710938 322.800781 235.167969 320.378906 234.683594 317.945312 C 234.199219 315.511719 233.777344 313.070312 233.410156 310.617188 C 233.046875 308.160156 232.742188 305.699219 232.5 303.230469 C 232.257812 300.761719 232.074219 298.289062 231.953125 295.8125 C 231.832031 293.332031 231.769531 290.855469 231.769531 288.375 C 231.769531 285.894531 231.832031 283.414062 231.953125 280.933594 C 232.074219 278.457031 232.257812 275.984375 232.5 273.515625 C 232.742188 271.046875 233.046875 268.585938 233.410156 266.132812 C 233.777344 263.675781 234.199219 261.234375 234.683594 258.800781 C 235.167969 256.367188 235.710938 253.949219 236.3125 251.539062 C 236.917969 249.132812 237.578125 246.746094 238.296875 244.371094 C 239.019531 241.996094 239.796875 239.640625 240.632812 237.304688 C 241.46875 234.96875 242.359375 232.65625 243.308594 230.363281 C 244.257812 228.070312 245.265625 225.804688 246.324219 223.5625 C 247.386719 221.320312 248.5 219.105469 249.667969 216.917969 C 250.839844 214.726562 252.0625 212.570312 253.335938 210.441406 C 254.613281 208.316406 255.9375 206.21875 257.316406 204.15625 C 258.695312 202.09375 260.125 200.066406 261.601562 198.074219 C 263.078125 196.082031 264.605469 194.125 266.179688 192.207031 C 267.753906 190.289062 269.371094 188.414062 271.039062 186.574219 C 272.703125 184.734375 274.414062 182.941406 276.167969 181.1875 C 277.921875 179.429688 279.71875 177.722656 281.558594 176.054688 C 283.394531 174.390625 285.273438 172.769531 287.191406 171.195312 C 289.109375 169.621094 291.066406 168.097656 293.058594 166.617188 C 295.050781 165.140625 297.078125 163.710938 299.140625 162.332031 C 301.203125 160.957031 303.296875 159.628906 305.425781 158.351562 C 307.554688 157.078125 309.710938 155.855469 311.898438 154.6875 C 314.085938 153.515625 316.304688 152.402344 318.546875 151.339844 C 320.789062 150.28125 323.054688 149.273438 325.347656 148.324219 C 327.640625 147.375 329.953125 146.484375 332.289062 145.648438 C 334.625 144.8125 336.980469 144.035156 339.355469 143.3125 C 341.726562 142.59375 344.117188 141.933594 346.523438 141.328125 C 348.929688 140.726562 351.351562 140.183594 353.785156 139.699219 C 356.21875 139.214844 358.660156 138.792969 361.113281 138.425781 C 363.570312 138.0625 366.03125 137.761719 368.5 137.515625 C 370.96875 137.273438 373.441406 137.089844 375.917969 136.96875 C 378.398438 136.847656 380.875 136.785156 383.355469 136.785156 C 385.839844 136.785156 388.316406 136.847656 390.796875 136.96875 C 393.273438 137.089844 395.746094 137.273438 398.214844 137.515625 C 400.683594 137.761719 403.144531 138.0625 405.601562 138.425781 C 408.054688 138.792969 410.496094 139.214844 412.929688 139.699219 C 415.363281 140.183594 417.785156 140.726562 420.191406 141.328125 C 422.597656 141.933594 424.988281 142.59375 427.359375 143.3125 C 429.734375 144.035156 432.089844 144.8125 434.425781 145.648438 C 436.761719 146.484375 439.074219 147.375 441.367188 148.324219 C 443.660156 149.273438 445.925781 150.28125 448.167969 151.339844 C 450.410156 152.402344 452.625 153.515625 454.816406 154.6875 C 457.003906 155.855469 459.160156 157.078125 461.289062 158.351562 C 463.417969 159.628906 465.511719 160.957031 467.574219 162.332031 C 469.636719 163.710938 471.664062 165.140625 473.65625 166.617188 C 475.648438 168.097656 477.605469 169.621094 479.523438 171.195312 C 481.441406 172.769531 483.320312 174.390625 485.15625 176.054688 C 486.996094 177.722656 488.792969 179.429688 490.546875 181.1875 C 492.300781 182.941406 494.007812 184.734375 495.675781 186.574219 C 497.339844 188.414062 498.960938 190.289062 500.535156 192.207031 C 502.109375 194.125 503.636719 196.082031 505.113281 198.074219 C 506.589844 200.066406 508.019531 202.09375 509.398438 204.15625 C 510.773438 206.21875 512.101562 208.316406 513.378906 210.441406 C 514.652344 212.570312 515.875 214.726562 517.042969 216.917969 C 518.214844 219.105469 519.328125 221.320312 520.390625 223.5625 C 521.449219 225.804688 522.457031 228.070312 523.40625 230.363281 C 524.355469 232.65625 525.246094 234.96875 526.082031 237.304688 C 526.917969 239.640625 527.695312 241.996094 528.417969 244.371094 C 529.136719 246.746094 529.796875 249.132812 530.402344 251.539062 C 531.003906 253.949219 531.546875 256.367188 532.03125 258.800781 C 532.515625 261.234375 532.9375 263.675781 533.304688 266.132812 C 533.667969 268.585938 533.972656 271.046875 534.214844 273.515625 C 534.457031 275.984375 534.640625 278.457031 534.761719 280.933594 C 534.882812 283.414062 534.945312 285.894531 534.945312 288.375 C 534.941406 290.851562 534.875 293.332031 534.75 295.808594 C 534.625 298.285156 534.4375 300.757812 534.191406 303.222656 C 533.945312 305.691406 533.636719 308.152344 533.269531 310.601562 C 532.902344 313.054688 532.476562 315.496094 531.988281 317.929688 C 531.503906 320.359375 530.957031 322.777344 530.351562 325.183594 C 529.746094 327.585938 529.082031 329.976562 528.359375 332.347656 C 527.636719 334.71875 526.855469 337.074219 526.019531 339.40625 C 525.183594 341.742188 524.289062 344.054688 523.335938 346.34375 C 522.386719 348.632812 521.378906 350.898438 520.316406 353.140625 C 519.253906 355.378906 518.140625 357.59375 516.96875 359.78125 C 515.800781 361.964844 514.574219 364.121094 513.300781 366.25 C 512.023438 368.375 510.695312 370.46875 509.316406 372.53125 C 507.941406 374.589844 506.511719 376.617188 505.035156 378.609375 C 503.554688 380.601562 502.03125 382.554688 500.457031 384.46875 C 498.882812 386.386719 497.265625 388.261719 495.597656 390.101562 C 493.933594 391.9375 492.222656 393.734375 490.46875 395.488281 C 488.71875 397.238281 486.921875 398.949219 485.085938 400.613281 C 483.246094 402.28125 481.371094 403.898438 479.453125 405.472656 C 477.539062 407.046875 475.582031 408.570312 473.59375 410.050781 C 471.601562 411.527344 469.574219 412.957031 467.515625 414.335938 C 465.453125 415.714844 463.359375 417.039062 461.234375 418.316406 C 459.105469 419.59375 456.949219 420.816406 454.765625 421.984375 C 452.578125 423.15625 450.363281 424.273438 448.125 425.332031 C 445.882812 426.394531 443.617188 427.402344 441.328125 428.351562 C 439.035156 429.304688 436.726562 430.199219 434.390625 431.035156 C 432.058594 431.875 429.703125 432.652344 427.332031 433.375 C 424.960938 434.097656 422.570312 434.761719 420.167969 435.367188 C 417.761719 435.972656 415.34375 436.519531 412.914062 437.003906 C 410.480469 437.492188 408.039062 437.917969 405.585938 438.285156 C 403.132812 438.652344 400.675781 438.960938 398.207031 439.207031 C 395.738281 439.453125 393.269531 439.640625 390.792969 439.765625 C 388.316406 439.890625 385.835938 439.957031 383.355469 439.960938 Z M 383.355469 439.960938 " fill-opacity="1" fill-rule="nonzero"/></svg>