<svg xmlns="http://www.w3.org/2000/svg" xmlns:xlink="http://www.w3.org/1999/xlink" width="1024" zoomAndPan="magnify" viewBox="0 0 768 767.999994" height="1024" preserveAspectRatio="xMidYMid meet" version="1.0"><defs><clipPath id="77d7fa0271"><path d="M 28.21875 29.511719 L 739.96875 29.511719 L 739.96875 738.261719 L 28.21875 738.261719 Z M 28.21875 29.511719 " clip-rule="nonzero"/></clipPath></defs><g clip-path="url(#77d7fa0271)"><path fill="#000000" d="M 739.855469 385.339844 C 739.855469 188.808594 580.558594 29.511719 384.058594 29.511719 C 187.558594 29.511719 28.230469 188.808594 28.230469 385.339844 C 28.230469 552.203125 143.105469 692.242188 298.089844 730.695312 L 298.089844 494.082031 L 224.699219 494.082031 L 224.699219 385.339844 L 298.089844 385.339844 L 298.089844 338.492188 C 298.089844 217.390625 352.890625 161.25 471.785156 161.25 C 494.332031 161.25 533.230469 165.65625 549.132812 170.09375 L 549.132812 268.648438 C 540.734375 267.753906 526.140625 267.308594 508.035156 267.308594 C 449.6875 267.308594 427.140625 289.40625 427.140625 346.859375 L 427.140625 385.308594 L 543.355469 385.308594 L 523.394531 494.050781 L 427.140625 494.050781 L 427.140625 738.519531 C 603.328125 717.25 739.855469 567.214844 739.855469 385.308594 Z M 739.855469 385.339844 " fill-opacity="1" fill-rule="nonzero"/></g></svg>