<svg xmlns="http://www.w3.org/2000/svg" xmlns:xlink="http://www.w3.org/1999/xlink" width="1024" zoomAndPan="magnify" viewBox="0 0 768 767.999994" height="1024" preserveAspectRatio="xMidYMid meet" version="1.0"><defs><clipPath id="4fb6b1e174"><path d="M 76.800781 30.058594 L 721.800781 30.058594 L 721.800781 738 L 76.800781 738 Z M 76.800781 30.058594 " clip-rule="nonzero"/></clipPath></defs><g clip-path="url(#4fb6b1e174)"><path fill="#ffffff" d="M 626.351562 392.640625 L 627.71875 395.035156 L 628.917969 395.035156 L 629.34375 393.667969 L 629.171875 391.871094 L 631.054688 392.296875 L 632.765625 394.691406 L 632.765625 396.488281 L 635.332031 396.488281 L 635.332031 394.265625 L 636.957031 393.238281 L 636.957031 391.269531 L 638.15625 390.671875 L 639.183594 390.671875 L 640.210938 392.042969 L 640.980469 390.671875 L 640.980469 386.050781 L 640.210938 383.828125 L 639.609375 378.265625 L 639.609375 374.246094 L 638.414062 374.074219 L 637.8125 371.851562 L 640.980469 371.851562 L 642.175781 371.679688 L 643.375 370.054688 C 643.375 370.054688 644.144531 365.859375 644.402344 365.261719 C 644.574219 364.664062 643.972656 361.070312 644.402344 360.472656 C 644.828125 359.871094 644.402344 356.277344 644.402344 356.277344 L 643.375 351.660156 L 641.40625 348.835938 L 641.40625 346.867188 L 640.210938 345.753906 L 640.636719 344.300781 C 640.636719 344.300781 640.808594 343.273438 641.40625 342.933594 C 642.007812 342.503906 644.574219 345.753906 644.574219 345.753906 L 645.34375 345.753906 L 646.113281 344.128906 L 648.335938 343.359375 C 648.335938 343.359375 649.707031 343.53125 649.707031 344.386719 C 649.707031 345.15625 649.707031 345.839844 649.707031 345.839844 L 651.074219 345.839844 L 652.699219 344.558594 L 654.667969 344.558594 C 654.667969 344.558594 656.039062 345.070312 656.039062 345.839844 C 656.039062 346.527344 657.40625 347.980469 657.40625 347.980469 L 659.800781 345.839844 L 660.570312 341.390625 C 660.570312 341.390625 661.171875 339.425781 661.597656 338.570312 C 662.027344 337.800781 663.222656 336.003906 663.222656 336.003906 L 663.222656 334.035156 L 664.25 331.46875 L 664.25 330.355469 L 665.621094 330.183594 L 666.988281 328.816406 L 666.988281 327.617188 L 668.015625 325.992188 L 668.015625 324.195312 L 669.382812 322.828125 L 670.582031 320.429688 L 670.582031 317.863281 L 668.613281 315.898438 C 668.613281 315.898438 666.988281 315.726562 667.246094 314.871094 C 667.417969 314.101562 668.015625 312.902344 668.015625 312.902344 L 668.1875 309.136719 L 670.582031 308.367188 L 671.609375 307 L 672.378906 304.605469 L 673.746094 302.636719 L 675.714844 301.265625 L 675.714844 299.300781 C 675.714844 299.300781 675.714844 298.699219 675.714844 298.101562 C 675.714844 297.503906 676.144531 296.476562 676.742188 295.878906 C 677.339844 295.277344 677.941406 294.507812 677.941406 294.507812 L 676.742188 292.113281 L 676.144531 288.691406 L 675.542969 286.125 L 676.570312 282.703125 L 677.941406 280.476562 C 677.941406 280.476562 678.367188 280.050781 678.964844 279.878906 C 679.566406 279.707031 681.53125 279.28125 681.53125 279.28125 L 684.527344 275.515625 C 684.527344 275.515625 685.894531 274.316406 686.496094 274.316406 C 687.09375 274.316406 688.890625 272.347656 688.890625 272.347656 L 689.917969 270.554688 L 691.886719 270.382812 C 691.886719 270.382812 692.3125 270.382812 693.082031 269.613281 C 693.851562 268.839844 694.28125 267.214844 694.28125 267.214844 C 694.28125 267.214844 695.90625 265.847656 696.25 265.25 C 696.675781 264.648438 698.472656 263.023438 699.070312 263.023438 C 699.671875 263.023438 703.863281 261.996094 703.863281 261.996094 L 705.832031 261.398438 L 705.832031 260.199219 L 707.628906 260.371094 L 709.253906 259.945312 L 711.21875 259.773438 L 712.417969 260.96875 L 712.417969 264.136719 L 714.042969 263.964844 L 715.839844 264.992188 L 717.464844 265.589844 L 718.492188 264.820312 L 718.492188 263.023438 L 715.925781 259.429688 L 713.359375 257.632812 L 712.761719 253.269531 L 713.1875 251.902344 L 714.8125 250.703125 L 717.808594 246.683594 L 720.632812 245.3125 L 721.828125 245.3125 L 721.828125 241.722656 C 721.058594 240.09375 720.03125 238.128906 720.03125 238.128906 L 717.464844 234.535156 L 714.898438 234.363281 L 713.273438 235.132812 L 711.304688 234.960938 L 709.9375 234.960938 L 707.710938 234.789062 L 706.6875 233.765625 L 705.316406 233.765625 L 702.921875 234.535156 C 702.921875 234.535156 702.324219 233.933594 701.722656 234.707031 C 701.125 235.476562 701.296875 236.332031 701.296875 236.332031 L 700.695312 237.527344 L 697.703125 236.332031 L 698.300781 233.765625 L 698.902344 231.796875 L 699.5 230 L 700.269531 228.375 L 701.46875 227.347656 L 702.238281 226.320312 L 703.265625 224.523438 L 700.269531 223.15625 L 699.070312 220.332031 L 695.90625 220.929688 L 695.476562 223.328125 L 693.253906 224.097656 L 693.253906 221.101562 L 691.285156 219.902344 L 692.054688 218.878906 L 693.082031 217.679688 L 694.109375 215.882812 L 696.078125 215.882812 L 693.511719 214.257812 L 690.089844 210.238281 L 685.726562 213.058594 L 680.335938 216.480469 L 679.566406 219.046875 L 678.367188 221.015625 L 678.367188 222.214844 L 674.003906 222.214844 L 671.78125 220.417969 L 670.152344 220.417969 L 666.5625 220.589844 L 663.996094 219.390625 L 661.425781 217.421875 L 660.058594 217.253906 L 658.691406 219.046875 C 658.691406 219.046875 657.917969 219.648438 656.722656 220.074219 C 655.523438 220.503906 654.328125 220.503906 654.328125 220.503906 L 648.167969 228.289062 L 645 231.113281 L 641.578125 233.507812 L 637.984375 234.105469 C 637.984375 234.105469 636.359375 235.730469 635.417969 235.730469 C 634.476562 235.730469 631.398438 236.160156 631.398438 236.160156 L 630.800781 238.726562 L 629.429688 242.148438 C 629.429688 242.148438 630.199219 242.746094 628.402344 243.945312 C 626.605469 245.144531 622.414062 246.941406 622.414062 246.941406 L 621.046875 248.738281 L 621.816406 250.53125 L 621.214844 253.527344 L 619.589844 254.726562 L 617.625 256.351562 L 614.457031 256.949219 L 611.890625 257.546875 L 610.265625 257.976562 L 607.871094 259.34375 C 607.871094 259.34375 605.902344 259.773438 605.304688 259.773438 C 604.703125 259.773438 602.308594 259.945312 602.308594 259.945312 L 599.914062 259.773438 L 599.144531 264.136719 L 599.742188 265.503906 L 602.136719 267.128906 L 604.960938 266.960938 L 606.585938 266.359375 L 608.210938 265.933594 L 610.4375 267.730469 L 611.035156 269.953125 L 609.839844 271.578125 L 608.042969 273.207031 L 609.066406 274.402344 L 610.863281 276.628906 L 611.464844 279.449219 C 611.464844 279.449219 612.234375 281.246094 611.035156 281.246094 C 609.839844 281.246094 607.441406 280.648438 607.441406 280.648438 L 606.671875 282.445312 L 604.703125 281.246094 L 603.933594 282.617188 L 601.539062 283.042969 C 601.539062 283.042969 600.339844 283.214844 599.570312 283.472656 C 598.800781 283.726562 597.605469 282.101562 597.605469 282.101562 L 596.40625 282.273438 L 594.78125 283.644531 C 594.78125 283.644531 592.8125 283.644531 592.214844 283.644531 C 591.613281 283.644531 589.648438 283.8125 589.648438 283.8125 L 584.257812 283.8125 L 579.636719 283.644531 L 576.640625 281.246094 L 571.421875 280.476562 L 570.824219 282.703125 C 570.824219 282.703125 569.796875 283.300781 569.027344 283.472656 C 568.257812 283.644531 565.863281 284.242188 565.863281 284.242188 L 562.867188 285.269531 L 560.472656 286.039062 L 558.503906 286.039062 L 555.679688 285.867188 L 553.457031 286.039062 L 554.484375 284.414062 L 552.257812 284.582031 L 551.234375 283.8125 C 551.234375 283.8125 550.035156 282.1875 549.4375 282.445312 C 548.835938 282.617188 547.640625 283.472656 547.640625 283.472656 L 544.472656 284.070312 L 543.445312 282.445312 L 540.023438 280.820312 L 539.597656 279.621094 L 539 277.824219 L 537.972656 276.027344 L 538.398438 274.0625 L 539 272.433594 L 539.597656 271.410156 L 539 269.78125 L 537.800781 268.15625 L 537.371094 266.359375 C 537.371094 266.359375 537.203125 265.164062 537.542969 264.394531 C 537.972656 263.621094 538.570312 262.167969 538.570312 262.167969 L 538.742188 259.945312 L 539.167969 257.71875 L 538.742188 254.894531 L 537.714844 253.269531 L 534.292969 252.671875 L 532.925781 252.074219 L 531.125 252.5 L 528.902344 253.871094 L 527.277344 254.039062 L 526.507812 255.066406 L 522.144531 255.496094 L 522.144531 256.691406 L 523.171875 258.660156 L 523.171875 260.886719 L 522.742188 263.453125 L 520.175781 266.273438 L 520.003906 269.699219 L 519.832031 274.0625 L 520.261719 278.082031 L 521.886719 277.484375 L 522.058594 279.28125 L 522.828125 282.703125 L 525.050781 285.867188 C 525.050781 285.867188 524.453125 285.867188 524.027344 287.234375 C 523.597656 288.605469 522.828125 290.660156 522.828125 290.660156 L 520.605469 291.085938 L 519.578125 294.851562 L 516.410156 291.855469 L 515.8125 293.054688 L 512.21875 293.652344 L 509.652344 294.421875 L 506.488281 293.652344 L 505.117188 295.449219 C 503.921875 295.878906 503.148438 294.679688 503.148438 294.679688 C 501.523438 294.082031 499.984375 293.652344 499.984375 293.652344 L 499.8125 290.828125 L 498.617188 290.660156 L 497.847656 291.683594 L 496.820312 292.285156 L 495.792969 293.054688 L 494.421875 293.226562 L 492.796875 293.394531 L 491.601562 294.59375 L 490.230469 292.371094 L 485.011719 289.804688 L 482.617188 289.203125 L 481.417969 289.632812 L 477.996094 289.203125 L 475.601562 289.375 L 473.976562 290.402344 L 472.949219 291 C 472.949219 291 473.546875 288.777344 469.953125 289.03125 L 470.554688 283.8125 L 467.132812 283.8125 L 463.710938 286.378906 L 460.886719 286.980469 L 459.261719 283.8125 L 456.4375 283.644531 L 455.238281 281.847656 L 451.816406 280.820312 L 448.222656 280.050781 C 448.222656 280.050781 445.828125 280.648438 447.199219 277.484375 C 448.566406 274.316406 447.027344 272.265625 447.027344 272.265625 L 442.40625 271.664062 L 439.839844 270.636719 L 438.8125 269.011719 L 436.84375 268.242188 L 435.046875 267.472656 L 435.046875 269.441406 L 432.226562 269.441406 L 428.460938 270.636719 L 426.066406 269.613281 L 422.472656 268.839844 L 419.90625 268.839844 L 419.136719 270.210938 L 416.738281 272.605469 L 414.515625 269.183594 L 412.890625 269.011719 L 409.46875 267.984375 L 407.671875 267.386719 L 404.847656 267.214844 L 405.445312 264.820312 L 404.25 262.253906 L 401.851562 262.082031 L 399.628906 262.683594 L 398.601562 262.511719 L 395.4375 260.886719 L 394.582031 260.714844 L 389.789062 257.546875 L 388.164062 257.121094 C 388.164062 257.121094 387.394531 258.917969 386.796875 258.917969 C 386.195312 258.917969 385 257.121094 384.398438 257.121094 C 383.800781 257.121094 380.035156 255.152344 380.035156 255.152344 L 376.871094 252.328125 L 375.503906 250.960938 L 373.277344 250.789062 L 373.707031 246.511719 L 371.308594 245.484375 L 369.34375 244.714844 L 367.714844 243.6875 L 364.894531 243.6875 L 365.664062 242.320312 L 363.695312 242.148438 L 361.726562 240.179688 L 359.761719 238.382812 L 358.304688 237.957031 L 357.707031 240.523438 L 356.335938 239.152344 L 353.769531 238.726562 L 352.402344 235.902344 L 350.179688 234.707031 L 352.574219 230.34375 L 354.796875 226.320312 L 356.167969 224.351562 L 357.792969 224.183594 L 356.421875 219.820312 C 356.421875 219.820312 356.253906 219.21875 356.421875 218.191406 C 356.59375 217.167969 355.398438 217.421875 356.59375 217.167969 C 357.792969 216.996094 358.820312 217.167969 358.820312 216.566406 C 358.820312 215.96875 358.820312 210.578125 358.820312 210.578125 L 361.214844 209.980469 C 361.214844 209.980469 363.011719 208.183594 363.011719 207.585938 C 363.011719 206.984375 363.78125 205.789062 363.78125 205.789062 L 366.003906 205.617188 L 367.800781 202.621094 L 369 202.023438 L 370.625 201.851562 L 370.625 200.3125 L 368.402344 198.6875 L 366.175781 198.085938 L 364.207031 194.496094 L 362.582031 194.066406 C 361.386719 193.640625 358.820312 192.097656 358.820312 192.097656 L 355.652344 191.925781 L 354.457031 190.558594 L 354.027344 187.5625 C 354.027344 187.5625 352.660156 186.539062 352.230469 185.9375 C 351.804688 185.339844 349.835938 184.914062 349.835938 184.914062 L 347.011719 182.089844 L 345.042969 180.71875 C 345.042969 180.71875 344.445312 180.890625 343.675781 180.890625 C 342.90625 180.890625 341.453125 181.320312 341.453125 181.320312 L 339.226562 180.71875 L 338.199219 179.09375 L 336.574219 177.726562 L 335.207031 175.328125 L 333.835938 174.902344 L 334.265625 171.480469 L 332.640625 171.480469 L 329.816406 167.117188 L 329.988281 169.511719 L 328.789062 170.710938 L 327.589844 172.335938 L 326.648438 172.335938 L 326.222656 169.769531 L 324.597656 169.171875 L 323.996094 166.773438 L 325.023438 164.378906 L 325.625 161.984375 L 324.855469 160.015625 L 323.828125 158.21875 L 323.226562 156.59375 L 322.800781 154.367188 L 321.003906 153.769531 L 321.429688 150.003906 L 319.035156 148.210938 L 320.0625 146.839844 L 320.0625 143.246094 L 316.640625 142.476562 L 318.351562 141.363281 L 320.40625 139.3125 L 326.050781 139.3125 L 326.050781 142.5625 L 328.445312 145.8125 L 333.75 142.5625 L 338.199219 142.5625 L 341.878906 137.6875 L 341.878906 133.664062 L 337.859375 130.414062 L 339.054688 125.535156 C 339.054688 125.535156 336.230469 123.570312 335.035156 123.570312 C 333.835938 123.570312 330.074219 121.003906 330.074219 121.003906 L 329.902344 114.414062 L 333.496094 113.386719 L 332.296875 112.363281 L 330.671875 107.570312 L 330.15625 104.832031 L 341.878906 104.832031 L 341.878906 100.8125 L 343.761719 98.074219 L 344.1875 95.164062 L 348.382812 95.164062 L 348.382812 90.800781 L 353.6875 89.175781 L 356.507812 83.53125 L 356.507812 78.652344 L 358.90625 74.632812 L 358.90625 71.378906 L 356.851562 67.703125 L 353.601562 65.648438 L 352.832031 63.253906 L 343.078125 63.253906 L 342.308594 61.199219 L 338.628906 61.199219 L 334.605469 62.824219 L 324.511719 62.824219 C 324.511719 62.824219 322.886719 63.253906 321.6875 63.59375 C 320.492188 64.023438 316.382812 65.992188 316.382812 65.992188 L 311.507812 68.042969 L 306.203125 68.472656 L 301.324219 69.667969 L 297.304688 68.898438 L 301.753906 65.648438 L 297.304688 62.824219 L 290.375 59.144531 L 285.582031 52.300781 L 282.332031 52.300781 C 282.332031 52.300781 282.332031 50.25 280.707031 49.050781 C 279.082031 47.851562 275.058594 45.800781 275.058594 45.800781 L 271.382812 43.402344 L 271.382812 40.152344 L 268.984375 38.101562 L 266.164062 36.046875 L 262.910156 36.046875 L 262.910156 31.683594 L 257.605469 31.683594 L 254.785156 30.058594 L 241.007812 30.058594 L 236.5625 31.683594 L 230.058594 32.109375 L 230.058594 34.933594 L 228.003906 36.558594 L 223.128906 34.507812 L 218.25 33.738281 L 212.605469 38.613281 L 208.585938 41.007812 L 206.957031 43.0625 L 202.511719 46.3125 L 202.511719 52.300781 L 206.957031 53.925781 L 213.886719 53.5 L 215.515625 59.144531 L 219.191406 61.96875 L 226.894531 63.59375 L 226.121094 65.648438 L 224.496094 69.328125 L 231 72.152344 L 232.199219 74.203125 L 229.800781 79.507812 L 223.726562 81.132812 L 222.957031 85.15625 L 218.082031 85.582031 L 218.851562 89.605469 L 218.851562 102.179688 L 219.277344 110.308594 L 218.507812 117.238281 C 218.507812 117.238281 216.113281 119.632812 218.507812 121.257812 C 220.902344 122.882812 223.8125 124.511719 223.8125 124.511719 L 228.691406 126.136719 L 232.710938 128.1875 L 233.136719 130.585938 L 236.816406 131.011719 L 240.496094 129.386719 L 239.726562 135.890625 L 243.40625 137.515625 L 246.226562 138.710938 L 250.25 140.339844 L 254.699219 141.109375 L 253.074219 145.984375 L 250.675781 149.234375 L 242.976562 149.234375 L 241.179688 151.546875 C 241.179688 151.546875 238.1875 152.574219 236.5625 154.199219 C 234.933594 155.824219 234.933594 155.824219 234.933594 155.824219 L 236.902344 160.785156 L 234.933594 162.753906 L 237.929688 162.753906 C 237.929688 162.753906 235.277344 164.722656 235.277344 166.433594 C 235.277344 168.058594 234.933594 170.109375 234.933594 170.109375 L 237.585938 170.109375 C 237.585938 170.109375 238.957031 172.59375 237.929688 172.59375 C 236.902344 172.59375 236.902344 172.59375 236.902344 172.59375 L 233.480469 174.730469 L 229.460938 177.382812 L 228.433594 179.777344 L 225.78125 182.175781 C 223.898438 183.800781 222.617188 185.339844 222.617188 185.339844 L 219.964844 185.339844 L 221.84375 186.964844 L 219.964844 186.964844 L 220.734375 189.617188 L 219.964844 191.242188 L 219.964844 193.640625 L 217.054688 195.777344 L 215.429688 197.917969 C 215.429688 197.917969 213.289062 197.402344 212.007812 197.917969 C 210.636719 198.429688 209.097656 196.292969 208.328125 197.917969 C 207.558594 199.542969 206.957031 201.9375 206.957031 201.9375 L 203.023438 212.546875 C 203.023438 212.546875 198.488281 216.226562 197.976562 217.851562 C 197.460938 219.476562 195.835938 221.015625 194.296875 221.871094 C 192.671875 222.640625 187.109375 225.292969 187.109375 225.292969 C 187.109375 225.292969 181.035156 228.203125 180.777344 229.570312 C 180.523438 230.941406 180.523438 230.941406 180.523438 230.941406 C 180.523438 230.941406 180.007812 235.988281 179.152344 235.988281 C 178.296875 235.988281 174.105469 238.898438 174.105469 238.898438 C 174.105469 238.898438 171.964844 244.714844 170.425781 245.570312 C 168.800781 246.339844 165.636719 244.542969 161.445312 245.570312 C 157.164062 246.597656 154 246.941406 152.714844 247.710938 C 151.347656 248.480469 146.386719 250.875 145.53125 247.710938 C 144.761719 244.542969 144.160156 241.890625 144.160156 241.890625 C 144.160156 241.890625 142.023438 237.871094 137.488281 240.007812 C 132.953125 242.148438 133.210938 244.289062 132.953125 245.058594 C 132.695312 245.828125 129.53125 249.335938 129.53125 249.335938 C 129.53125 249.335938 128.503906 251.730469 125.511719 253.871094 C 122.601562 256.007812 120.207031 255.75 118.835938 258.402344 C 117.46875 261.054688 118.582031 261.828125 117.46875 263.453125 C 116.441406 265.078125 113.191406 263.707031 115.84375 266.875 C 118.496094 270.039062 119.863281 270.039062 121.148438 271.152344 C 122.515625 272.179688 124.054688 274.316406 124.054688 274.316406 C 124.054688 274.316406 129.359375 272.179688 130.128906 275.6875 C 130.898438 279.109375 131.5 278.59375 130.386719 280.992188 C 129.359375 283.386719 127.992188 284.414062 127.992188 284.414062 L 127.90625 289.289062 L 129.273438 290.914062 L 129.875 292.882812 C 129.875 292.882812 128.847656 295.105469 131.070312 295.707031 C 133.296875 296.304688 139.625 296.304688 139.625 296.902344 C 139.625 297.503906 138.257812 301.523438 139.199219 303.0625 C 140.226562 304.6875 143.21875 310.847656 143.820312 312.046875 C 144.417969 313.246094 149.378906 321.203125 149.378906 321.203125 C 149.378906 321.203125 151.003906 322.570312 149.378906 322.570312 C 147.753906 322.570312 146.8125 323.597656 146.8125 323.597656 C 146.8125 323.597656 147.839844 324.792969 147.582031 325.820312 C 147.414062 326.847656 146.558594 327.019531 146.386719 327.617188 C 146.214844 328.21875 146.984375 328.386719 146.984375 328.386719 L 149.808594 328.386719 L 147.242188 330.785156 C 147.242188 330.785156 144.417969 328.558594 144.074219 330.785156 C 143.648438 333.007812 140.480469 333.351562 140.480469 333.351562 L 136.71875 331.554688 L 136.71875 327.789062 L 131.15625 328.21875 C 131.15625 328.21875 130.730469 329.242188 130.128906 329.242188 L 127.308594 329.242188 C 126.535156 329.242188 122.945312 332.066406 122.945312 332.066406 L 116.785156 332.066406 L 113.363281 328.046875 L 108.144531 327.875 L 106.773438 328.472656 L 105.574219 328.046875 L 103.351562 328.046875 L 101.554688 328.21875 C 101.554688 328.21875 100.957031 326.847656 99.585938 327.617188 C 98.21875 328.386719 97.621094 325.992188 97.621094 325.992188 L 95.824219 327.960938 L 95.824219 324.964844 L 94.453125 324.964844 L 92.484375 333.351562 L 82.816406 333.351562 L 81.023438 334.71875 L 79.394531 334.71875 L 77.769531 337.882812 L 76.828125 339.511719 L 76.828125 341.734375 C 76.828125 341.734375 79.996094 341.90625 80.851562 341.734375 C 81.621094 341.5625 81.878906 338.742188 82.648438 338.570312 C 83.417969 338.398438 85.8125 338.742188 85.8125 338.742188 L 90.175781 336.34375 L 89.40625 338.3125 L 87.179688 339.9375 L 83.757812 341.820312 L 83.332031 343.960938 L 82.816406 345.671875 C 82.816406 345.671875 85.984375 344.644531 84.015625 347.46875 C 84.015625 347.46875 86.242188 345.839844 86.242188 347.46875 C 86.242188 349.09375 85.214844 350.460938 85.214844 350.460938 L 87.609375 349.09375 L 87.609375 353.285156 L 88.378906 355.253906 C 88.378906 355.253906 90.347656 356.878906 91.542969 357.476562 C 92.742188 358.074219 98.902344 361.496094 99.5 362.867188 C 100.101562 364.234375 101.898438 362.867188 102.667969 363.894531 C 103.4375 364.921875 104.035156 366.460938 104.035156 366.460938 C 104.035156 366.460938 105.40625 364.664062 107.203125 365.089844 C 109 365.519531 111.992188 366.886719 112.589844 366.460938 C 113.191406 366.03125 115.757812 365.089844 115.757812 365.089844 L 117.980469 364.492188 L 119.007812 362.695312 L 122.773438 362.695312 L 122.34375 361.582031 L 121.917969 360.472656 L 122.945312 359.101562 L 124.738281 361.925781 L 126.367188 358.332031 L 128.332031 359.101562 L 129.960938 359.703125 L 129.1875 362.867188 L 126.964844 365.261719 L 126.964844 366.546875 L 124.398438 369.027344 L 122.601562 370.824219 L 122.429688 372.621094 L 114.902344 372.621094 L 116.269531 373.816406 L 113.105469 376.382812 L 111.90625 374.757812 L 109.9375 375.1875 L 109.9375 376.382812 L 108.140625 377.15625 L 107.117188 375.785156 L 104.292969 376.214844 L 104.292969 377.238281 L 102.324219 376.46875 L 99.332031 377.238281 L 97.535156 378.4375 L 97.105469 376.46875 L 98.476562 374.503906 L 95.308594 374.671875 L 94.28125 374.246094 L 95.90625 372.449219 L 94.113281 372.019531 C 94.113281 372.019531 92.914062 373.046875 92.742188 373.648438 C 92.570312 374.246094 90.945312 376.214844 92.570312 378.4375 C 94.195312 380.664062 106.347656 396.320312 106.347656 396.320312 L 109.339844 398.886719 L 110.539062 398.886719 L 110.964844 402.820312 L 122.089844 413.003906 L 125.253906 415.824219 L 130.472656 418.222656 L 140.054688 418.222656 L 143.820312 416.59375 L 146.042969 416.59375 L 148.609375 414.796875 L 149.808594 414.027344 L 152.03125 413.429688 C 152.03125 413.429688 153.402344 413.601562 154 413.601562 C 154.597656 413.601562 156.394531 412.402344 156.394531 412.402344 C 156.394531 412.402344 159.21875 411.804688 159.988281 411.207031 C 160.757812 410.605469 161.785156 409.410156 161.785156 409.410156 L 162.984375 409.410156 L 163.410156 407.441406 L 166.40625 404.445312 C 166.40625 404.445312 168.03125 402.820312 168.03125 402.050781 C 168.03125 401.28125 168.03125 398.886719 168.03125 398.886719 L 169.398438 397.859375 L 168.628906 393.835938 L 168.203125 391.871094 L 170.597656 388.277344 L 168.800781 387.25 L 169.828125 385.453125 L 171.625 386.050781 L 172.820312 386.050781 L 174.019531 385.28125 L 172.222656 384.511719 L 173.847656 383.3125 L 176.074219 383.742188 C 176.074219 383.742188 179.496094 385.710938 180.09375 385.710938 C 180.691406 385.710938 184.457031 384.511719 184.457031 384.511719 L 182.234375 386.90625 L 179.667969 387.078125 L 176.246094 385.453125 L 174.019531 388.617188 L 175.390625 389.21875 L 174.960938 390.585938 L 174.789062 392.210938 L 176.585938 392.640625 L 178.980469 391.613281 L 180.777344 392.042969 L 179.753906 393.667969 L 177.785156 393.667969 L 174.960938 394.09375 L 174.535156 397.089844 L 173.933594 398.886719 L 178.125 399.914062 L 174.535156 400.683594 L 174.960938 402.308594 L 176.585938 401.707031 L 179.410156 400.511719 L 177.183594 403.933594 L 175.816406 404.53125 L 175.644531 406.328125 L 175.472656 407.527344 L 174.617188 408.382812 L 175.132812 409.664062 L 174.960938 411.375 L 177.355469 411.890625 L 175.644531 413.34375 L 178.8125 413.34375 L 176.929688 414.457031 L 177.269531 416.511719 L 179.667969 416.511719 L 179.835938 417.449219 L 178.125 418.222656 L 177.957031 419.332031 L 178.554688 420.273438 L 180.609375 420.273438 L 180.265625 421.730469 L 178.640625 421.730469 L 177.871094 426.175781 L 177.355469 427.632812 L 177.527344 428.402344 L 177.015625 429.34375 L 176.074219 430.113281 L 175.132812 432.167969 L 173.507812 432.9375 L 173.164062 434.21875 L 173.761719 435.160156 L 172.480469 435.757812 L 171.882812 437.386719 L 173.164062 439.953125 L 171.28125 439.011719 L 170.941406 439.953125 C 170.941406 439.953125 172.394531 440.550781 172.394531 441.0625 C 172.394531 441.578125 171.109375 442.691406 171.109375 442.691406 L 171.109375 443.800781 L 170.941406 444.742188 L 171.453125 445.511719 L 171.453125 446.625 C 171.453125 446.625 171.28125 447.136719 170.941406 447.738281 C 170.597656 448.335938 170.425781 449.621094 170.425781 449.621094 L 171.710938 449.621094 L 172.652344 448.679688 L 173.933594 449.621094 L 172.480469 450.5625 L 171.195312 451.671875 L 171.796875 452.613281 L 171.796875 454.324219 L 174.789062 454.925781 L 171.453125 456.035156 L 172.050781 459.542969 C 172.050781 459.542969 173.335938 460.484375 173.761719 460.484375 C 174.277344 460.484375 175.390625 460.484375 175.390625 460.484375 L 174.277344 462.710938 L 173.164062 465.105469 L 175.558594 466.046875 L 175.730469 466.988281 C 175.730469 466.988281 175.21875 466.816406 174.617188 466.988281 C 174.019531 467.160156 173.164062 466.988281 173.164062 466.988281 L 172.222656 467.074219 C 172.222656 467.074219 172.050781 468.269531 172.050781 469.039062 C 172.050781 469.8125 173.164062 472.207031 173.164062 472.207031 L 173.679688 473.660156 L 172.394531 473.660156 L 172.738281 477.339844 L 173.847656 477.339844 L 173.507812 479.394531 L 175.558594 479.394531 L 175.21875 480.503906 L 172.652344 480.503906 L 172.308594 481.445312 L 173.933594 481.445312 L 173.59375 483.671875 L 173.933594 485.382812 L 174.105469 486.835938 L 175.046875 486.835938 L 174.105469 487.949219 L 174.105469 489.660156 L 175.730469 491.113281 L 176.074219 492.566406 L 175.730469 496.074219 L 177.613281 496.675781 L 176.160156 497.789062 L 177.269531 500.183594 L 177.101562 501.636719 L 176.160156 503.519531 L 177.785156 503.519531 L 177.269531 504.460938 L 176.671875 505.402344 L 177.613281 506.515625 L 178.382812 506.515625 L 177.269531 507.796875 L 176.757812 508.566406 L 177.527344 509.164062 L 177.699219 510.449219 L 176.929688 510.449219 L 177.101562 511.734375 L 178.382812 511.734375 L 178.382812 512.671875 L 177.101562 512.671875 L 177.871094 514.300781 L 177.527344 521.914062 L 178.640625 523.027344 L 178.46875 526.875 L 179.410156 529.101562 L 179.066406 531.667969 L 180.179688 532.949219 L 178.898438 534.832031 L 180.007812 535.945312 L 181.464844 537.058594 L 183.089844 541.847656 L 185.484375 547.238281 L 186.769531 548.691406 L 187.878906 548.691406 L 186.253906 550.148438 L 188.820312 552.714844 L 189.589844 554.339844 C 189.589844 554.339844 189.933594 556.5625 189.589844 557.078125 C 189.25 557.589844 189.25 557.589844 189.25 557.589844 L 191.988281 562.722656 L 193.269531 564.433594 L 191.558594 565.203125 C 191.558594 565.203125 190.105469 565.71875 190.617188 565.972656 C 191.132812 566.316406 192.5 567.601562 192.5 567.601562 L 193.953125 566.832031 L 194.554688 568.457031 L 196.265625 568.457031 L 197.207031 571.023438 L 197.71875 573.074219 L 199.34375 574.1875 L 198.746094 575.472656 L 199.515625 577.695312 L 200.285156 578.980469 L 200.628906 580.691406 L 200.628906 582.144531 L 199.859375 583.769531 C 199.859375 583.769531 203.195312 587.105469 203.707031 588.5625 C 204.222656 590.015625 203.535156 592.839844 203.535156 592.839844 L 205.417969 592.839844 C 205.417969 592.839844 205.933594 593.949219 205.417969 593.949219 C 204.90625 593.949219 204.90625 593.949219 204.90625 593.949219 C 204.90625 593.949219 204.734375 595.578125 204.734375 596.003906 C 204.734375 596.433594 205.078125 598.230469 205.078125 598.230469 L 204.734375 599.683594 L 203.109375 600.796875 L 204.5625 601.90625 L 206.273438 605.246094 L 205.933594 611.320312 L 206.875 611.320312 L 207.386719 612.261719 C 207.386719 612.261719 207.984375 615.167969 208.15625 615.597656 C 208.328125 616.109375 210.039062 621.671875 210.039062 621.671875 L 211.664062 624.578125 L 213.886719 633.992188 L 214.660156 636.898438 L 216.710938 637.667969 L 217.652344 638.78125 L 218.9375 638.78125 L 217.652344 640.238281 L 219.277344 641.949219 L 221.503906 643.574219 L 222.785156 645.027344 L 224.242188 645.96875 L 224.753906 648.878906 C 224.753906 648.878906 225.097656 649.648438 225.097656 650.503906 C 225.097656 651.273438 225.097656 652.214844 225.097656 652.214844 L 226.039062 652.214844 L 227.917969 654.78125 L 228.691406 654.78125 L 228.691406 658.628906 L 230.402344 658.628906 L 228.773438 660.085938 L 230.828125 664.363281 L 231.171875 667.527344 L 231.683594 669.582031 L 231.941406 670.609375 L 232.882812 669.324219 L 233.992188 670.609375 L 233.480469 671.722656 L 232.199219 672.320312 L 232.199219 673.601562 L 233.308594 675.230469 L 235.191406 676.511719 L 235.191406 678.394531 C 235.191406 678.394531 235.707031 680.960938 235.707031 681.558594 C 235.707031 682.160156 237.160156 683.957031 237.160156 683.957031 L 237.671875 682.84375 L 238.957031 683.957031 L 238.613281 685.410156 L 237.332031 685.410156 L 237.671875 687.292969 C 237.671875 687.292969 237.160156 688.746094 238.1875 689.003906 C 239.128906 689.34375 240.582031 690.714844 240.582031 690.714844 L 241.695312 692.339844 L 241.523438 694.5625 L 241.695312 696.445312 L 242.035156 697.214844 L 242.550781 699.953125 L 243.832031 699.953125 L 244.601562 701.066406 L 243.320312 701.066406 L 240.925781 700.46875 L 240.324219 696.445312 L 239.984375 693.28125 L 239.214844 691.226562 L 239.382812 700.125 L 240.152344 703.632812 L 241.78125 707.140625 L 242.378906 709.363281 C 242.378906 709.363281 243.320312 709.964844 243.492188 711.246094 C 243.660156 712.53125 243.832031 713.984375 243.832031 713.984375 L 244.175781 715.4375 L 245.800781 714.328125 L 246.914062 714.328125 L 247.253906 715.4375 L 245.542969 716.550781 L 245.371094 717.835938 L 248.109375 717.835938 L 247.941406 718.945312 L 247.167969 720.230469 L 249.566406 723.566406 L 252.132812 725.960938 C 252.132812 725.960938 253.84375 727.589844 254.699219 728.53125 C 255.46875 729.46875 257.4375 732.378906 257.4375 732.378906 C 257.4375 732.378906 258.207031 733.492188 259.488281 734.433594 C 260.773438 735.375 262.996094 736.484375 262.996094 736.484375 L 265.992188 737.425781 C 265.992188 737.425781 268.558594 736.914062 268.984375 737.425781 C 269.5 737.941406 270.269531 737.257812 270.695312 737.425781 C 271.210938 737.597656 271.808594 736.316406 271.808594 736.316406 L 274.203125 736.144531 L 275.917969 735.03125 L 277.027344 732.636719 C 277.027344 732.636719 278.652344 732.636719 279.082031 732.464844 C 279.59375 732.292969 281.820312 731.695312 281.820312 731.695312 L 283.871094 728.785156 L 283.871094 726.734375 L 284.386719 725.277344 C 284.386719 725.277344 284.726562 723.996094 285.15625 723.566406 C 285.667969 723.054688 285.925781 722.285156 285.925781 722.285156 L 286.097656 716.550781 L 288.492188 715.097656 L 290.203125 715.269531 L 291.488281 713.644531 C 292.769531 712.703125 296.277344 711.929688 296.878906 711.929688 C 297.476562 711.929688 297.816406 711.761719 298.589844 711.761719 C 299.359375 711.761719 299.527344 710.992188 299.527344 710.992188 L 302.265625 710.050781 L 305.433594 709.707031 L 307.144531 709.707031 L 309.367188 710.050781 L 311.25 710.050781 L 312.875 710.648438 L 314.160156 710.648438 L 317.324219 712.53125 L 317.496094 710.90625 L 315.785156 710.390625 L 315.441406 708.765625 L 313.816406 708.9375 L 310.90625 708.9375 L 309.28125 708.59375 L 306.289062 707.3125 L 304.832031 705.257812 L 304.664062 702.691406 L 305.261719 701.066406 L 308.769531 696.273438 L 310.992188 693.28125 L 312.875 691.398438 L 314.332031 690.457031 C 314.332031 690.457031 313.730469 689.859375 313.730469 689.175781 C 313.730469 688.488281 314.5 686.777344 314.5 686.777344 L 315.613281 684.382812 L 317.839844 684.210938 L 321.515625 684.210938 L 321.6875 682.929688 L 325.792969 683.441406 L 326.90625 683.441406 L 328.363281 683.785156 L 328.191406 684.726562 L 329.300781 683.269531 L 328.191406 655.207031 C 328.191406 655.207031 327.421875 652.8125 327.421875 652.300781 C 327.421875 651.785156 327.421875 651.785156 327.589844 650.675781 C 327.761719 649.5625 327.933594 647.679688 327.933594 647.167969 C 327.933594 646.652344 329.816406 642.203125 329.816406 642.203125 L 329.988281 640.921875 L 329.046875 639.808594 L 329.046875 638.695312 L 331.097656 639.808594 L 331.269531 637.242188 L 334.007812 635.015625 L 336.234375 632.28125 L 335.71875 629.882812 L 337.945312 628.429688 L 338.457031 626.976562 L 339.226562 624.410156 L 340.167969 622.527344 L 339.996094 617.394531 L 340.597656 614.65625 L 341.109375 611.917969 L 341.621094 609.777344 L 340.167969 606.441406 L 337.601562 604.558594 L 337.257812 601.222656 L 336.746094 599 L 336.746094 596.261719 L 337.6875 596.261719 L 338.285156 598.144531 L 338.285156 599.597656 L 338.882812 601.222656 L 339.65625 603.449219 L 340.425781 605.328125 L 341.535156 605.328125 C 341.535156 605.328125 341.195312 604.21875 341.023438 603.703125 C 340.851562 603.191406 340.511719 600.796875 340.511719 600.796875 L 340.167969 598.230469 L 339.824219 595.234375 L 339.484375 593.011719 C 339.484375 593.011719 339.140625 590.957031 339.140625 590.273438 C 339.140625 589.585938 338.800781 588.21875 338.800781 587.707031 C 338.800781 587.191406 338.199219 585.824219 338.199219 585.824219 L 339.484375 582.914062 C 339.484375 582.914062 340.253906 582.570312 340.253906 581.632812 C 340.253906 580.691406 340.082031 577.953125 340.253906 577.523438 C 340.425781 577.011719 340.851562 576.070312 340.253906 575.128906 C 339.65625 574.1875 338.542969 569.996094 338.542969 569.996094 L 337.945312 565.972656 L 339.226562 561.183594 L 342.390625 555.109375 L 344.105469 552.882812 L 345.816406 548.605469 L 348.808594 548.605469 L 350.863281 546.980469 L 354.96875 546.640625 L 355.480469 550.917969 L 356.253906 549.804688 L 356.59375 551.257812 L 357.363281 550.917969 L 357.707031 549.546875 L 358.132812 547.921875 L 358.820312 549.976562 L 359.929688 549.804688 L 359.929688 547.921875 L 362.667969 546.039062 L 364.292969 543.816406 L 365.066406 541.933594 L 366.003906 540.992188 L 367.117188 537.996094 L 367.886719 537.484375 L 370.882812 537.140625 C 370.882812 537.140625 371.652344 537.484375 371.996094 536.972656 C 372.335938 536.457031 371.996094 535.6875 371.996094 535.6875 L 373.875 535.515625 L 376.273438 537.140625 L 377.214844 536.371094 L 377.214844 537.828125 L 378.496094 537.996094 L 381.0625 537.398438 L 383.457031 535.945312 L 384.742188 535.175781 L 389.875 533.121094 L 390.644531 531.667969 L 390.644531 527.558594 L 390.046875 526.105469 L 389.875 523.882812 L 391.5 522.941406 L 391.5 526.960938 L 393.125 524.394531 L 393.125 522.769531 L 391.5 521.144531 L 394.238281 519.859375 L 397.234375 517.292969 L 399.628906 515.667969 L 401.683594 513.445312 L 406.472656 511.21875 C 406.472656 511.21875 408.355469 510.621094 409.46875 510.277344 C 410.578125 509.9375 411.863281 509.507812 411.863281 509.507812 L 411.863281 508.226562 L 414.257812 506.941406 C 414.257812 506.941406 414.859375 505.316406 415.199219 504.886719 C 415.542969 504.375 420.160156 499.925781 423.667969 497.871094 C 427.175781 495.820312 432.3125 492.140625 432.3125 492.140625 L 433.9375 490.855469 L 433.9375 488.121094 C 433.9375 488.121094 439.070312 485.894531 440.265625 484.78125 C 441.550781 483.671875 441.894531 481.617188 441.894531 481.617188 L 443.347656 479.5625 L 444.628906 477.9375 L 447.539062 475.542969 L 448.136719 474.257812 L 448.136719 472.976562 L 450.703125 470.921875 C 450.703125 470.921875 453.273438 466.300781 453.613281 465.789062 C 453.957031 465.277344 458.40625 462.792969 458.40625 462.792969 L 461.570312 460.226562 L 464.136719 458.945312 L 466.191406 458.003906 L 471.152344 456.121094 L 477.054688 453.726562 C 477.054688 453.726562 480.734375 453.210938 482.1875 452.613281 C 483.644531 452.015625 485.695312 451.332031 486.296875 450.046875 C 486.894531 448.765625 486.808594 445.425781 488.179688 445.425781 C 489.632812 445.425781 491.515625 444.914062 492.027344 444.65625 C 492.542969 444.316406 494.421875 443.03125 494.421875 443.03125 L 495.363281 440.976562 L 495.363281 439.265625 L 494.253906 437.8125 L 500.5 433.792969 L 501.953125 430.882812 C 501.953125 430.882812 500.839844 431.652344 500.242188 431.824219 C 499.640625 431.996094 498.359375 432.765625 498.359375 432.765625 L 496.304688 433.105469 L 496.648438 430.882812 L 499.214844 430.539062 C 499.214844 430.539062 500.5 430.539062 500.328125 429.597656 C 500.15625 428.660156 498.871094 427.203125 498.617188 426.605469 C 498.273438 426.007812 497.332031 423.609375 497.332031 423.609375 L 498.273438 418.222656 C 498.273438 418.222656 500.328125 414.371094 502.125 413.601562 C 503.835938 412.832031 507.257812 411.546875 507.257812 411.546875 L 510.59375 411.890625 L 514.101562 409.066406 L 518.121094 407.953125 L 519.492188 405.472656 L 520.859375 404.445312 C 520.859375 404.445312 521.886719 402.222656 522.65625 401.878906 C 523.425781 401.453125 524.625 400.511719 524.625 400.511719 L 525.652344 398.117188 L 527.191406 398.457031 L 526.25 394.351562 L 527.789062 393.238281 L 528.472656 397.34375 L 527.703125 400.339844 L 527.535156 402.308594 L 528.558594 403.503906 L 528.558594 404.875 L 530.1875 403.078125 L 531.554688 401.878906 L 533.777344 403.25 L 534.804688 402.050781 L 536.003906 396.917969 L 539.082031 397.175781 C 539.082031 397.175781 539.9375 394.691406 540.707031 394.949219 C 541.480469 395.121094 542.078125 393.496094 542.078125 393.496094 L 543.359375 392.894531 L 545.328125 393.066406 L 546.011719 393.835938 L 546.785156 395.121094 L 546.953125 395.632812 C 547.125 394.523438 544.558594 389.816406 545.5 389.21875 C 545.5 389.21875 545.585938 386.90625 545.242188 386.566406 C 544.902344 386.222656 543.445312 383.230469 543.445312 383.230469 L 542.847656 380.746094 L 543.105469 378.867188 L 543.191406 377.839844 L 541.394531 375.101562 L 541.394531 372.875 L 543.875 369.710938 L 542.078125 369.027344 L 540.023438 369.113281 L 539.425781 369.882812 L 538.398438 370.140625 L 538.058594 366.117188 L 538.828125 364.320312 L 539.253906 363.550781 L 538.828125 362.609375 L 536.429688 361.667969 L 535.234375 360.472656 L 534.550781 361.15625 L 534.464844 354.824219 L 536.601562 354.480469 L 537.800781 351.914062 L 538.914062 350.460938 L 538.996094 348.578125 L 538.398438 346.527344 L 537.714844 344.730469 L 536.6875 344.042969 L 533.949219 343.789062 L 531.554688 343.019531 L 528.730469 343.019531 L 528.730469 341.90625 L 526.59375 340.195312 L 524.710938 339.425781 L 524.113281 337.714844 C 524.113281 337.714844 523.855469 337.113281 523.511719 337.113281 C 523.171875 337.113281 521.972656 335.660156 521.972656 335.660156 C 521.972656 335.660156 522.65625 334.632812 523 334.292969 C 523.339844 333.949219 524.113281 332.410156 524.113281 332.410156 L 524.027344 328.558594 L 527.535156 328.644531 L 527.617188 330.355469 L 529.5 330.613281 L 528.558594 329.5 L 528.644531 328.472656 L 530.1875 328.730469 L 530.527344 327.191406 L 531.726562 327.105469 L 531.640625 323.597656 L 538.65625 323.253906 L 538.65625 322.570312 L 541.734375 322.570312 L 542.503906 321.542969 L 542.589844 320.175781 L 542.847656 318.464844 L 541.648438 318.207031 L 541.394531 319.574219 L 540.710938 319.832031 L 539.339844 318.292969 L 537.542969 314.355469 C 537.542969 314.355469 536.859375 318.035156 533.609375 316.496094 C 530.355469 314.957031 530.527344 313.757812 530.527344 313.757812 L 530.1875 311.277344 L 526.933594 309.480469 L 523.339844 309.394531 L 523.425781 305.117188 L 524.625 303.75 L 524.539062 302.808594 L 524.453125 301.097656 L 527.535156 298.957031 L 528.902344 297.757812 L 529.160156 296.304688 L 529.585938 295.707031 L 531.46875 295.449219 L 531.210938 293.652344 L 529.5 293.394531 L 528.730469 292.453125 L 527.960938 291 L 527.875 290.316406 L 528.988281 288.433594 L 530.699219 291.515625 L 532.238281 291.769531 L 532.238281 293.226562 L 534.292969 293.140625 L 534.035156 294.25 L 535.832031 294.507812 L 536.089844 296.390625 L 535.492188 297.332031 L 535.0625 298.359375 L 536.773438 298.359375 L 537.972656 297.246094 L 539.683594 296.816406 L 540.625 297.589844 L 542.761719 297.671875 L 541.050781 294.9375 L 539.855469 293.480469 L 540.453125 293.054688 L 542.847656 292.96875 L 542.847656 293.996094 L 544.300781 294.59375 L 544.902344 295.277344 L 544.902344 298.871094 C 544.902344 298.871094 549.09375 302.722656 550.207031 302.722656 C 551.316406 302.722656 554.484375 302.976562 554.484375 302.976562 L 555.425781 301.4375 L 555.425781 300.410156 L 556.453125 298.957031 L 557.648438 297.84375 L 559.875 298.785156 L 560.300781 301.011719 L 559.957031 302.464844 L 561.414062 303.832031 L 560.984375 305.628906 L 560.644531 307.339844 L 561.328125 309.222656 L 560.984375 315.296875 L 561.242188 317.78125 L 562.78125 318.550781 C 562.78125 318.550781 565.863281 318.636719 566.203125 318.890625 C 566.546875 319.148438 568.429688 320.347656 568.429688 320.347656 L 570.996094 320.773438 L 573.132812 321.371094 L 590.160156 321.714844 C 590.160156 321.714844 593.238281 322.742188 593.753906 321.800781 C 594.351562 320.859375 595.292969 320.859375 596.234375 321.371094 C 597.175781 321.800781 597.175781 322.3125 598.457031 321.972656 C 599.828125 321.628906 600.511719 322.398438 600.511719 322.398438 L 603.933594 322.3125 L 604.019531 321.542969 L 613.859375 321.457031 L 615.996094 323.339844 L 619.417969 323.597656 L 620.019531 324.28125 L 619.933594 326.335938 L 622.15625 326.589844 L 622.15625 329.15625 L 620.105469 329.074219 L 616.597656 327.277344 L 616.339844 329.5 L 617.539062 330.441406 L 617.878906 331.46875 L 617.453125 332.410156 L 616.082031 333.605469 L 615.828125 337.027344 L 613.089844 340.453125 L 612.148438 341.648438 L 610.777344 340.453125 L 609.753906 341.050781 L 609.496094 342.589844 L 608.898438 343.1875 L 608.898438 347.039062 L 606.671875 345.242188 L 605.730469 345.15625 L 605.390625 346.269531 L 604.363281 346.355469 L 603.335938 344.984375 L 602.992188 346.097656 L 602.308594 347.296875 L 601.109375 348.238281 L 598.203125 348.152344 L 597.089844 348.238281 L 597.6875 350.289062 L 594.609375 350.890625 L 595.292969 354.140625 L 593.582031 355.851562 L 593.324219 357.648438 L 595.035156 358.246094 L 594.695312 360.8125 L 596.492188 362.695312 L 596.40625 364.578125 L 596.320312 365.691406 L 597.347656 367.144531 L 597.261719 371.082031 C 597.261719 371.082031 598.628906 372.019531 598.714844 371.679688 C 598.800781 371.335938 598.714844 367.65625 598.714844 367.65625 L 599.3125 366.71875 C 599.3125 366.71875 600.769531 366.289062 600.855469 367.144531 C 600.941406 368.085938 601.195312 368.597656 601.195312 368.597656 L 601.453125 372.449219 C 601.453125 372.449219 601.710938 373.046875 602.992188 373.476562 C 604.363281 373.902344 605.390625 374.417969 606.160156 373.390625 C 606.929688 372.363281 607.269531 372.621094 607.355469 371.25 C 607.441406 369.882812 606.585938 367.828125 606.585938 367.574219 C 606.585938 367.230469 606.5 366.03125 606.5 366.03125 L 607.871094 364.234375 L 609.066406 362.355469 L 610.265625 362.269531 L 609.835938 360.386719 L 609.410156 358.847656 L 609.496094 355.765625 C 609.496094 355.765625 610.691406 355.507812 610.863281 357.132812 C 610.949219 358.675781 612.234375 357.734375 612.234375 357.734375 L 613.6875 356.535156 L 614.800781 356.195312 L 615.484375 356.792969 L 616.167969 356.023438 L 617.195312 354.566406 L 618.5625 354.824219 L 618.5625 356.964844 L 618.648438 358.417969 L 618.308594 361.925781 L 620.191406 363.292969 L 619.933594 370.996094 L 620.53125 372.707031 L 621.132812 374.84375 L 624.808594 382.886719 L 625.835938 385.964844 Z M 626.351562 392.640625 " fill-opacity="1" fill-rule="nonzero"/></g></svg>