<svg xmlns="http://www.w3.org/2000/svg" xmlns:xlink="http://www.w3.org/1999/xlink" width="1024" zoomAndPan="magnify" viewBox="0 0 768 767.999994" height="1024" preserveAspectRatio="xMidYMid meet" version="1.0"><defs><clipPath id="79da8ccc0f"><path d="M 15.609375 15.609375 L 752 15.609375 L 752 752 L 15.609375 752 Z M 15.609375 15.609375 " clip-rule="nonzero"/></clipPath></defs><g clip-path="url(#79da8ccc0f)"><path fill="#000000" d="M 231.25 18.140625 C 192.082031 19.980469 165.335938 26.257812 141.953125 35.417969 C 117.738281 44.851562 97.238281 57.480469 76.839844 77.984375 C 56.40625 98.488281 43.847656 119.023438 34.515625 143.273438 C 25.460938 166.722656 19.320312 193.472656 17.585938 232.671875 C 15.851562 271.910156 15.46875 284.433594 15.644531 384.414062 C 15.816406 484.359375 16.265625 496.917969 18.140625 536.1875 C 20.015625 575.355469 26.257812 602.066406 35.417969 625.484375 C 44.851562 649.699219 57.480469 670.167969 77.984375 690.601562 C 98.488281 711.035156 119.023438 723.558594 143.273438 732.925781 C 166.691406 741.976562 193.472656 748.152344 232.636719 749.851562 C 271.910156 751.589844 284.433594 751.96875 384.378906 751.761719 C 484.359375 751.589844 496.882812 751.136719 536.152344 749.265625 C 575.320312 747.390625 602.03125 741.109375 625.449219 731.988281 C 649.664062 722.515625 670.167969 709.921875 690.566406 689.421875 C 710.964844 668.917969 723.523438 648.382812 732.890625 624.132812 C 741.945312 600.714844 748.117188 573.933594 749.820312 534.800781 C 751.519531 495.53125 751.933594 482.972656 751.761719 383.027344 C 751.589844 283.078125 751.101562 270.554688 749.265625 231.285156 C 747.390625 192.082031 741.144531 165.371094 731.988281 141.953125 C 722.515625 117.738281 709.921875 97.273438 689.421875 76.839844 C 668.917969 56.441406 648.382812 43.847656 624.132812 34.515625 C 600.714844 25.460938 573.933594 19.285156 534.765625 17.585938 C 495.496094 15.851562 482.9375 15.46875 382.992188 15.644531 C 283.046875 15.816406 270.519531 16.269531 231.25 18.140625 M 235.550781 683.558594 C 199.679688 681.996094 180.183594 676.03125 167.175781 671.035156 C 149.96875 664.375 137.722656 656.394531 124.78125 643.59375 C 111.878906 630.722656 103.898438 618.476562 97.167969 601.339844 C 92.136719 588.363281 86.066406 568.902344 84.367188 532.996094 C 82.527344 494.210938 82.113281 482.554688 81.9375 384.273438 C 81.765625 286.027344 82.113281 274.371094 83.8125 235.550781 C 85.339844 199.679688 91.339844 180.183594 96.335938 167.210938 C 102.996094 150.003906 110.941406 137.757812 123.777344 124.816406 C 136.648438 111.910156 148.894531 103.933594 166.066406 97.203125 C 179.039062 92.136719 198.5 86.101562 234.371094 84.402344 C 273.191406 82.5625 284.8125 82.179688 383.09375 81.972656 C 481.375 81.765625 493.03125 82.113281 531.851562 83.847656 C 567.722656 85.40625 587.21875 91.339844 600.195312 96.371094 C 617.402344 103.03125 629.683594 110.941406 642.585938 123.8125 C 655.492188 136.683594 663.507812 148.894531 670.203125 166.101562 C 675.265625 179.039062 681.304688 198.535156 683.003906 234.371094 C 684.839844 273.191406 685.257812 284.847656 685.429688 383.09375 C 685.605469 481.375 685.257812 493.03125 683.558594 531.816406 C 681.996094 567.6875 676.03125 587.21875 671.035156 600.195312 C 664.375 617.367188 656.429688 629.648438 643.558594 642.554688 C 630.6875 655.421875 618.476562 663.4375 601.269531 670.167969 C 588.328125 675.230469 568.832031 681.269531 532.996094 682.96875 C 494.175781 684.808594 482.554688 685.222656 384.238281 685.398438 C 285.992188 685.570312 274.335938 685.222656 235.519531 683.523438 M 535.632812 186.949219 C 535.667969 211.335938 555.511719 231.078125 579.863281 231.007812 C 604.253906 230.972656 623.992188 211.164062 623.957031 186.777344 C 623.921875 162.386719 604.078125 142.648438 579.691406 142.683594 C 555.304688 142.71875 535.5625 162.5625 535.597656 186.914062 M 194.6875 384.066406 C 194.894531 488.453125 279.679688 572.890625 384.03125 572.683594 C 488.417969 572.476562 572.890625 487.726562 572.683594 383.339844 C 572.476562 278.984375 487.691406 194.511719 383.304688 194.6875 C 278.953125 194.894531 194.476562 279.679688 194.6875 384.066406 M 260.980469 383.929688 C 260.878906 316.175781 315.691406 261.121094 383.441406 261.015625 C 451.195312 260.878906 506.25 315.691406 506.386719 383.476562 C 506.527344 451.230469 451.679688 506.285156 383.929688 506.390625 C 316.175781 506.527344 261.121094 451.679688 261.015625 383.929688 " fill-opacity="1" fill-rule="nonzero"/></g></svg>