<svg xmlns="http://www.w3.org/2000/svg" xmlns:xlink="http://www.w3.org/1999/xlink" width="1024" zoomAndPan="magnify" viewBox="0 0 768 767.999994" height="1024" preserveAspectRatio="xMidYMid meet" version="1.0"><defs><clipPath id="a55ad7d812"><path d="M 8.753906 64.019531 L 644 64.019531 L 644 699 L 8.753906 699 Z M 8.753906 64.019531 " clip-rule="nonzero"/></clipPath><clipPath id="c651780dfb"><path d="M 672 616 L 759.503906 616 L 759.503906 703.769531 L 672 703.769531 Z M 672 616 " clip-rule="nonzero"/></clipPath></defs><path fill="#000000" d="M 722.417969 662.796875 C 728.90625 662.855469 734.230469 657.652344 734.292969 651.167969 C 734.292969 650.898438 734.292969 650.628906 734.292969 650.359375 C 734.292969 641.542969 728.96875 637.328125 718.050781 637.328125 L 700.433594 637.328125 L 700.433594 683.449219 L 707.074219 683.449219 L 707.074219 663.332031 L 715.207031 663.332031 L 715.386719 663.574219 L 728.039062 683.417969 L 735.128906 683.417969 L 721.519531 662.855469 L 722.417969 662.734375 Z M 714.757812 658.164062 L 707.074219 658.164062 L 707.074219 642.558594 L 716.824219 642.558594 C 721.847656 642.558594 727.589844 643.398438 727.589844 649.972656 C 727.589844 657.535156 721.789062 658.164062 714.730469 658.164062 " fill-opacity="1" fill-rule="nonzero"/><g clip-path="url(#a55ad7d812)"><path fill="#000000" d="M 549.445312 604.988281 L 455.40625 604.988281 L 455.40625 457.839844 C 455.40625 422.75 454.777344 377.585938 406.503906 377.585938 C 358.226562 377.585938 350.03125 415.816406 350.03125 455.300781 L 350.03125 604.988281 L 255.996094 604.988281 L 255.996094 302.382812 L 346.265625 302.382812 L 346.265625 343.75 L 347.519531 343.75 C 365.914062 312.308594 400.164062 293.507812 436.59375 294.882812 C 531.886719 294.882812 549.476562 357.53125 549.476562 439.011719 L 549.476562 605.019531 Z M 149.933594 261.015625 C 119.78125 261.015625 95.375 236.628906 95.347656 206.5 C 95.316406 176.371094 119.753906 151.980469 149.902344 151.949219 C 180.050781 151.949219 204.460938 176.339844 204.488281 206.46875 C 204.519531 236.597656 180.082031 260.988281 149.933594 261.015625 M 196.953125 604.988281 L 102.824219 604.988281 L 102.824219 302.382812 L 196.953125 302.382812 Z M 596.316406 64.699219 L 55.59375 64.699219 C 30.023438 64.433594 9.054688 84.875 8.753906 110.433594 L 8.753906 653.050781 C 9.054688 678.605469 30.023438 699.082031 55.59375 698.8125 L 596.34375 698.8125 C 621.976562 699.140625 643.003906 678.667969 643.363281 653.050781 L 643.363281 110.371094 C 642.976562 84.785156 621.949219 64.34375 596.316406 64.671875 " fill-opacity="1" fill-rule="nonzero"/></g><g clip-path="url(#c651780dfb)"><path fill="#000000" d="M 715.566406 616.792969 C 691.667969 617.035156 672.496094 636.582031 672.707031 660.464844 C 672.945312 684.347656 692.507812 703.503906 716.40625 703.296875 C 740.304688 703.058594 759.476562 683.507812 759.265625 659.625 C 759.027344 636.074219 739.972656 617.035156 716.40625 616.792969 L 715.566406 616.792969 M 715.566406 698.335938 C 694.601562 698.691406 677.339844 681.984375 676.984375 661.0625 C 676.625 640.140625 693.34375 622.863281 714.28125 622.503906 C 735.25 622.144531 752.507812 638.855469 752.867188 659.777344 L 752.867188 660.402344 C 753.3125 680.878906 737.042969 697.855469 716.554688 698.304688 L 715.566406 698.304688 " fill-opacity="1" fill-rule="nonzero"/></g></svg>