<svg xmlns="http://www.w3.org/2000/svg" xmlns:xlink="http://www.w3.org/1999/xlink" width="1024" zoomAndPan="magnify" viewBox="0 0 768 767.999994" height="1024" preserveAspectRatio="xMidYMid meet" version="1.0"><defs><clipPath id="37decb3624"><path d="M 224 155 L 506 155 L 506 722.75 L 224 722.75 Z M 224 155 " clip-rule="nonzero"/></clipPath><clipPath id="31820cf8ff"><path d="M 502 418 L 733 418 L 733 722.75 L 502 722.75 Z M 502 418 " clip-rule="nonzero"/></clipPath><clipPath id="53359d87f8"><path d="M 9 373 L 259 373 L 259 722.75 L 9 722.75 Z M 9 373 " clip-rule="nonzero"/></clipPath></defs><path fill="#ffffff" d="M 344.453125 54.34375 C 348.816406 58.230469 352.023438 64.535156 350.070312 71.742188 L 328.859375 151.222656 L 278.78125 143.699219 L 300.476562 62.5625 C 302.511719 55.113281 308.808594 48.976562 318.007812 47.21875 C 327.316406 45.441406 338.15625 48.773438 344.453125 54.34375 Z M 344.453125 54.34375 " fill-opacity="1" fill-rule="nonzero"/><path fill="#ffffff" d="M 412.515625 106.128906 L 392.753906 166.34375 C 390.578125 172.9375 387.238281 173.734375 384.421875 169.085938 C 380.785156 163.144531 374.925781 158.113281 365.925781 156.738281 L 344.230469 153.5 L 361.378906 89.566406 C 368.632812 62.386719 422.734375 74.941406 412.515625 106.128906 Z M 412.515625 106.128906 " fill-opacity="1" fill-rule="nonzero"/><path fill="#ffffff" d="M 450.289062 98.949219 C 457.375 98.71875 464.480469 101.863281 469.667969 106.558594 C 476.632812 112.84375 479.554688 121.34375 477.21875 128.699219 C 477.21875 128.699219 457.421875 190.34375 447.492188 221.164062 C 445.109375 228.5 439.113281 234.601562 429.960938 236.5625 C 420.1875 238.636719 408.851562 236.832031 402.546875 231.113281 C 395.5625 224.863281 392.996094 216.550781 394.996094 209.101562 L 425.636719 115.242188 C 429.570312 103.183594 439.4375 99.257812 450.289062 98.949219 Z M 450.289062 98.949219 " fill-opacity="1" fill-rule="nonzero"/><path fill="#ffffff" d="M 508.410156 131.9375 C 515.476562 131.878906 522.59375 134.894531 527.78125 139.578125 C 534.753906 145.828125 537.125 154.367188 535.445312 160.71875 L 513.832031 238.925781 C 511.796875 246.390625 505.507812 252.324219 496.300781 254.269531 C 487.152344 256.210938 476.886719 253.507812 469.910156 247.199219 C 462.9375 240.953125 460.417969 232.5625 462.40625 225.171875 L 488.464844 144.089844 C 491.597656 134.277344 499.5 132.027344 508.410156 131.9375 Z M 508.410156 131.9375 " fill-opacity="1" fill-rule="nonzero"/><g clip-path="url(#37decb3624)"><path fill="#ffffff" d="M 255.152344 155.816406 L 361.910156 171.691406 C 369.355469 173.726562 375.316406 180.023438 377.253906 189.183594 C 379.1875 198.351562 376.425781 208.617188 370.183594 215.574219 C 364.371094 222.035156 356.515625 222.800781 346.109375 222.800781 L 281.105469 222.214844 C 271.324219 222.175781 271.222656 232.824219 280.957031 233.550781 L 372.398438 240.523438 C 391.90625 242.011719 413.957031 270.710938 394.773438 313.847656 C 390.316406 323.316406 402.324219 326.023438 405.960938 317.484375 C 415.351562 296.433594 419.804688 279.125 414.71875 263.308594 C 412.542969 256.519531 411.726562 252.695312 419.953125 252.828125 C 427.851562 252.996094 435.113281 251.972656 441.5 248.867188 C 449.164062 245.128906 449.164062 244.632812 452.984375 251.132812 C 454.6875 253.933594 457.003906 256.398438 459.53125 258.695312 C 470.328125 268.375 485.144531 271.628906 499.484375 269.390625 C 504.765625 268.570312 505.925781 269.121094 504.558594 276.382812 L 494.339844 329.945312 C 490.472656 350.339844 476.902344 373.664062 459.125 376.332031 L 446.589844 378.238281 C 436.023438 379.78125 436.601562 386.261719 447.117188 388.355469 L 459.125 390.773438 C 474.140625 393.730469 473.027344 397.980469 473.511719 411.445312 L 484.753906 702.832031 C 485.339844 717.832031 481.933594 722.824219 468.480469 722.824219 L 298.449219 722.824219 C 289.253906 722.824219 284.316406 717.832031 285.179688 704.476562 L 304.941406 399.339844 C 305.574219 389.109375 303.582031 378.089844 295.835938 367.40625 L 230.703125 277.609375 C 225.273438 271.089844 223.925781 265.039062 225.023438 250.78125 L 231.269531 171.679688 C 232.332031 158.484375 245.265625 154.367188 255.152344 155.816406 Z M 255.152344 155.816406 " fill-opacity="1" fill-rule="nonzero"/></g><path fill="#ffffff" d="M 381.222656 226.378906 C 381.222656 226.4375 381.269531 226.527344 381.324219 226.632812 C 381.222656 226.574219 381.128906 226.519531 381.039062 226.519531 C 381.074219 226.472656 381.121094 226.4375 381.222656 226.378906 Z M 381.222656 226.378906 " fill-opacity="1" fill-rule="nonzero"/><path fill="#ffffff" d="M 600.769531 335.933594 C 604.351562 339.132812 606.972656 344.304688 605.375 350.226562 L 587.984375 415.433594 L 546.871094 409.261719 L 564.691406 342.714844 C 566.335938 336.613281 571.570312 331.546875 579.074219 330.09375 C 586.71875 328.671875 595.589844 331.378906 600.769531 335.933594 Z M 600.769531 335.933594 " fill-opacity="1" fill-rule="nonzero"/><path fill="#ffffff" d="M 656.625 378.425781 L 640.386719 427.832031 C 638.601562 433.207031 635.828125 433.933594 633.570312 430.101562 C 630.566406 425.21875 625.769531 421.050781 618.355469 419.984375 L 600.585938 417.332031 L 614.617188 364.855469 C 620.644531 342.527344 665 352.851562 656.625 378.425781 Z M 656.625 378.425781 " fill-opacity="1" fill-rule="nonzero"/><path fill="#ffffff" d="M 687.617188 372.519531 C 693.429688 372.371094 699.25 374.9375 703.5 378.804688 C 709.21875 383.949219 711.601562 390.921875 709.703125 396.910156 C 709.703125 396.910156 693.429688 447.527344 685.300781 472.8125 C 683.347656 478.820312 678.421875 483.859375 670.90625 485.402344 C 662.917969 487.160156 653.621094 485.65625 648.394531 481.003906 C 642.683594 475.882812 640.601562 469.054688 642.246094 462.957031 L 667.382812 385.945312 C 670.617188 376.007812 678.699219 372.808594 687.617188 372.519531 Z M 687.617188 372.519531 " fill-opacity="1" fill-rule="nonzero"/><path fill="#ffffff" d="M 735.277344 399.636719 C 741.097656 399.523438 746.902344 402.054688 751.214844 405.886719 C 756.878906 411.007812 758.8125 418.039062 757.464844 423.210938 L 739.789062 487.394531 C 738.085938 493.492188 732.90625 498.402344 725.402344 499.996094 C 717.851562 501.59375 709.414062 499.34375 703.707031 494.21875 C 697.988281 489.09375 695.902344 482.195312 697.550781 476.09375 L 718.910156 409.625 C 721.476562 401.523438 728.003906 399.691406 735.277344 399.636719 Z M 735.277344 399.636719 " fill-opacity="1" fill-rule="nonzero"/><g clip-path="url(#31820cf8ff)"><path fill="#ffffff" d="M 527.492188 419.203125 L 615.101562 432.238281 C 621.164062 433.894531 626.054688 439.121094 627.65625 446.570312 C 629.253906 454.09375 627.023438 462.554688 621.882812 468.253906 C 617.101562 473.554688 610.648438 474.179688 602.128906 474.179688 L 548.796875 473.707031 C 540.753906 473.648438 540.699219 482.429688 548.695312 483.003906 L 623.675781 488.703125 C 639.707031 489.90625 657.832031 513.460938 642.03125 548.863281 C 638.394531 556.597656 648.234375 558.851562 651.230469 551.855469 C 658.949219 534.589844 662.574219 520.378906 658.410156 507.398438 C 656.613281 501.816406 655.972656 498.675781 662.714844 498.765625 C 669.207031 498.933594 675.15625 498.097656 680.390625 495.53125 C 686.6875 492.480469 686.6875 492.082031 689.839844 497.417969 C 691.199219 499.742188 693.132812 501.722656 695.214844 503.628906 C 704.03125 511.554688 716.25 514.167969 727.957031 512.382812 C 732.320312 511.691406 733.285156 512.128906 732.125 518.101562 L 723.792969 562.039062 C 720.59375 578.789062 709.453125 597.90625 694.878906 600.09375 L 684.613281 601.636719 C 675.945312 602.964844 676.441406 608.285156 685.003906 609.988281 L 694.890625 611.949219 C 707.238281 614.386719 706.019531 617.929688 706.710938 628.910156 L 711.257812 706.394531 C 711.992188 718.6875 708.996094 722.816406 697.941406 722.816406 L 575.441406 722.816406 C 567.878906 722.816406 564.105469 718.742188 564.542969 707.761719 L 568.324219 618.980469 C 568.714844 610.609375 567.210938 601.542969 560.859375 592.773438 L 507.398438 519.179688 C 502.980469 513.730469 501.882812 508.808594 502.792969 497.128906 L 507.925781 432.230469 C 508.800781 421.394531 519.410156 418.003906 527.492188 419.203125 Z M 527.492188 419.203125 " fill-opacity="1" fill-rule="nonzero"/></g><path fill="#ffffff" d="M 630.902344 477.082031 C 630.949219 477.117188 631.003906 477.230469 631.003906 477.277344 C 630.949219 477.277344 630.855469 477.21875 630.761719 477.21875 C 630.800781 477.191406 630.855469 477.117188 630.902344 477.082031 Z M 630.902344 477.082031 " fill-opacity="1" fill-rule="nonzero"/><path fill="#ffffff" d="M 115.855469 286.648438 C 119.726562 290.082031 122.597656 295.753906 120.851562 302.199219 L 101.964844 372.957031 L 57.355469 366.269531 L 76.6875 294.003906 C 78.472656 287.355469 84.136719 281.832031 92.320312 280.289062 C 100.597656 278.746094 110.242188 281.683594 115.855469 286.648438 Z M 115.855469 286.648438 " fill-opacity="1" fill-rule="nonzero"/><path fill="#ffffff" d="M 176.453125 332.800781 L 158.867188 386.421875 C 156.921875 392.269531 153.917969 393.015625 151.398438 388.894531 C 148.199219 383.558594 142.964844 379.066406 134.929688 377.882812 L 115.597656 374.992188 L 130.914062 318.015625 C 137.414062 293.820312 185.546875 304.988281 176.453125 332.800781 Z M 176.453125 332.800781 " fill-opacity="1" fill-rule="nonzero"/><path fill="#ffffff" d="M 210.105469 326.402344 C 216.410156 326.207031 222.753906 329.015625 227.402344 333.191406 C 233.605469 338.753906 236.171875 346.339844 234.089844 352.898438 C 234.089844 352.898438 216.457031 407.800781 207.640625 435.261719 C 205.503906 441.800781 200.191406 447.25 191.992188 448.941406 C 183.269531 450.828125 173.207031 449.210938 167.542969 444.140625 C 161.339844 438.5625 159.109375 431.160156 160.867188 424.53125 L 188.179688 340.890625 C 191.65625 330.140625 200.425781 326.636719 210.105469 326.402344 Z M 210.105469 326.402344 " fill-opacity="1" fill-rule="nonzero"/><path fill="#ffffff" d="M 261.886719 355.808594 C 268.179688 355.695312 274.53125 358.421875 279.179688 362.585938 C 285.335938 368.167969 287.46875 375.753906 285.960938 381.417969 L 266.738281 451.070312 C 264.945312 457.71875 259.273438 463.019531 251.132812 464.785156 C 242.953125 466.535156 233.800781 464.042969 227.597656 458.480469 C 221.394531 452.921875 219.117188 445.445312 220.902344 438.8125 L 244.113281 366.613281 C 246.921875 357.84375 253.980469 355.863281 261.886719 355.808594 Z M 261.886719 355.808594 " fill-opacity="1" fill-rule="nonzero"/><g clip-path="url(#53359d87f8)"><path fill="#ffffff" d="M 36.28125 373.394531 L 131.40625 387.574219 C 137.988281 389.371094 143.316406 394.984375 145.058594 403.125 C 146.757812 411.261719 144.339844 420.464844 138.761719 426.660156 C 133.582031 432.433594 126.605469 433.085938 117.308594 433.085938 L 59.382812 432.554688 C 50.660156 432.5 50.613281 442.003906 59.28125 442.691406 L 140.761719 448.847656 C 158.140625 450.195312 177.761719 475.769531 160.660156 514.15625 C 156.746094 522.582031 167.394531 524.964844 170.640625 517.410156 C 179.019531 498.664062 182.988281 483.265625 178.433594 469.140625 C 176.488281 463.132812 175.761719 459.691406 183.128906 459.839844 C 190.140625 459.933594 196.59375 459.058594 202.292969 456.296875 C 209.128906 452.957031 209.128906 452.519531 212.53125 458.332031 C 214.03125 460.851562 216.113281 463.019531 218.335938 465.019531 C 227.988281 473.707031 241.203125 476.53125 253.953125 474.550781 C 258.640625 473.824219 259.699219 474.320312 258.5 480.820312 L 249.386719 528.515625 C 245.953125 546.675781 233.839844 567.460938 218.011719 569.832031 L 206.878906 571.523438 C 197.421875 572.9375 197.960938 578.683594 207.308594 580.589844 L 218.011719 582.683594 C 231.421875 585.335938 230.257812 589.148438 230.84375 601.117188 L 235.835938 705.007812 C 236.449219 718.378906 233.308594 722.824219 221.359375 722.824219 L 88.339844 722.824219 C 80.15625 722.824219 76.09375 718.425781 76.519531 706.496094 L 80.632812 590.328125 C 80.917969 581.222656 79.414062 571.441406 72.503906 561.898438 L 14.476562 481.925781 C 9.628906 476.058594 8.429688 470.683594 9.445312 458.046875 L 15.003906 387.574219 C 15.9375 375.753906 27.457031 372.0625 36.28125 373.394531 Z M 36.28125 373.394531 " fill-opacity="1" fill-rule="nonzero"/></g><path fill="#ffffff" d="M 148.554688 439.882812 C 148.589844 439.996094 148.636719 440.03125 148.636719 440.132812 C 148.589844 440.078125 148.507812 440.078125 148.40625 440.023438 C 148.460938 439.996094 148.507812 439.921875 148.554688 439.882812 Z M 148.554688 439.882812 " fill-opacity="1" fill-rule="nonzero"/></svg>