<svg xmlns="http://www.w3.org/2000/svg" xmlns:xlink="http://www.w3.org/1999/xlink" width="1024" zoomAndPan="magnify" viewBox="0 0 768 767.999994" height="1024" preserveAspectRatio="xMidYMid meet" version="1.0"><defs><clipPath id="6fb61a6afa"><path d="M 275 76.800781 L 493 76.800781 L 493 284 L 275 284 Z M 275 76.800781 " clip-rule="nonzero"/></clipPath><clipPath id="dbedadb84a"><path d="M 43.3125 176 L 158 176 L 158 304 L 43.3125 304 Z M 43.3125 176 " clip-rule="nonzero"/></clipPath><clipPath id="9cf5ca2b3c"><path d="M 611 176.46875 L 724.3125 176.46875 L 724.3125 303.964844 L 611 303.964844 Z M 611 176.46875 " clip-rule="nonzero"/></clipPath><clipPath id="015c521065"><path d="M 160.046875 291.667969 L 536.070312 291.667969 L 536.070312 684.058594 L 160.046875 684.058594 Z M 160.046875 291.667969 " clip-rule="nonzero"/></clipPath></defs><g clip-path="url(#6fb61a6afa)"><path fill="#ffffff" d="M 388.292969 231.867188 C 387.050781 231.113281 385.652344 230.742188 384.253906 230.742188 C 382.855469 230.742188 381.453125 231.113281 380.210938 231.867188 L 333.863281 259.816406 L 346.121094 207.097656 C 346.78125 204.269531 345.820312 201.3125 343.625 199.410156 L 302.714844 163.96875 L 356.644531 159.335938 C 359.539062 159.085938 362.054688 157.257812 363.183594 154.582031 L 384.253906 104.726562 L 405.324219 154.582031 C 406.453125 157.257812 408.96875 159.085938 411.863281 159.335938 L 465.789062 163.96875 L 424.878906 199.410156 C 422.6875 201.3125 421.726562 204.269531 422.382812 207.097656 L 434.644531 259.816406 Z M 438.699219 208.148438 L 490.035156 163.667969 C 492.410156 161.609375 493.320312 158.328125 492.351562 155.335938 C 491.378906 152.34375 488.710938 150.226562 485.578125 149.957031 L 417.898438 144.148438 L 391.460938 81.578125 C 390.238281 78.683594 387.398438 76.800781 384.253906 76.800781 C 381.105469 76.800781 378.269531 78.683594 377.046875 81.578125 L 350.605469 144.148438 L 282.929688 149.957031 C 279.796875 150.226562 277.128906 152.34375 276.15625 155.335938 C 275.183594 158.328125 276.097656 161.609375 278.472656 163.667969 L 329.8125 208.148438 L 314.425781 274.308594 C 313.710938 277.371094 314.902344 280.5625 317.445312 282.410156 C 318.8125 283.40625 320.425781 283.90625 322.046875 283.90625 C 323.441406 283.90625 324.839844 283.535156 326.085938 282.785156 L 384.253906 247.703125 L 442.421875 282.785156 C 443.667969 283.535156 445.066406 283.90625 446.460938 283.90625 C 446.46875 283.902344 446.472656 283.902344 446.480469 283.90625 C 450.804688 283.90625 454.304688 280.402344 454.304688 276.082031 C 454.304688 275.277344 454.183594 274.5 453.960938 273.769531 L 438.699219 208.148438 " fill-opacity="1" fill-rule="nonzero"/></g><path fill="#ffffff" d="M 282.101562 206.464844 L 265.175781 221.128906 C 263.109375 222.917969 262.203125 225.699219 262.824219 228.359375 L 272.296875 269.089844 L 236.488281 247.5 C 234.148438 246.082031 231.222656 246.082031 228.882812 247.5 L 193.074219 269.089844 L 202.546875 228.359375 C 203.164062 225.699219 202.257812 222.917969 200.195312 221.128906 L 168.59375 193.746094 L 210.253906 190.167969 C 212.976562 189.933594 215.34375 188.214844 216.410156 185.695312 L 232.683594 147.183594 L 248.960938 185.695312 C 250.542969 189.445312 254.863281 191.199219 258.609375 189.617188 C 262.359375 188.035156 264.113281 183.710938 262.527344 179.964844 L 239.46875 125.394531 C 238.316406 122.667969 235.644531 120.898438 232.683594 120.898438 C 229.726562 120.898438 227.054688 122.667969 225.902344 125.394531 L 204.570312 175.871094 L 149.96875 180.5625 C 147.019531 180.8125 144.511719 182.808594 143.59375 185.621094 C 142.679688 188.4375 143.539062 191.527344 145.773438 193.464844 L 187.191406 229.351562 L 174.78125 282.730469 C 174.109375 285.609375 175.230469 288.613281 177.625 290.351562 C 178.910156 291.289062 180.429688 291.761719 181.953125 291.761719 C 183.265625 291.761719 184.582031 291.410156 185.757812 290.703125 L 232.683594 262.402344 L 279.613281 290.703125 C 282.148438 292.230469 285.351562 292.09375 287.746094 290.351562 C 290.140625 288.613281 291.261719 285.609375 290.589844 282.730469 L 278.175781 229.351562 L 291.746094 217.59375 C 294.820312 214.929688 295.152344 210.277344 292.492188 207.207031 C 289.828125 204.132812 285.179688 203.796875 282.101562 206.464844 " fill-opacity="1" fill-rule="nonzero"/><path fill="#ffffff" d="M 581.3125 229.351562 L 622.730469 193.464844 C 624.96875 191.527344 625.828125 188.4375 624.914062 185.621094 C 623.996094 182.808594 621.488281 180.8125 618.539062 180.5625 L 563.9375 175.871094 L 542.605469 125.394531 C 541.453125 122.667969 538.78125 120.898438 535.820312 120.898438 C 532.863281 120.898438 530.1875 122.667969 529.039062 125.394531 L 505.980469 179.964844 C 504.394531 183.710938 506.148438 188.035156 509.898438 189.617188 C 513.648438 191.199219 517.964844 189.445312 519.546875 185.695312 L 535.820312 147.183594 L 552.101562 185.695312 C 553.160156 188.214844 555.535156 189.933594 558.253906 190.167969 L 599.914062 193.746094 L 568.3125 221.128906 C 566.25 222.917969 565.34375 225.699219 565.964844 228.359375 L 575.433594 269.089844 L 539.625 247.5 C 537.285156 246.082031 534.359375 246.082031 532.019531 247.5 L 496.210938 269.089844 L 505.683594 228.359375 C 506.300781 225.699219 505.398438 222.917969 503.332031 221.128906 L 486.40625 206.464844 C 483.328125 203.796875 478.679688 204.132812 476.015625 207.207031 C 473.351562 210.277344 473.6875 214.929688 476.761719 217.59375 L 490.328125 229.351562 L 477.917969 282.730469 C 477.246094 285.609375 478.367188 288.613281 480.761719 290.351562 C 483.15625 292.09375 486.363281 292.230469 488.894531 290.703125 L 535.820312 262.402344 L 582.753906 290.703125 C 583.925781 291.410156 585.242188 291.761719 586.554688 291.761719 C 588.078125 291.761719 589.597656 291.289062 590.882812 290.351562 C 593.277344 288.613281 594.398438 285.609375 593.726562 282.730469 L 581.3125 229.351562 " fill-opacity="1" fill-rule="nonzero"/><g clip-path="url(#dbedadb84a)"><path fill="#ffffff" d="M 146.078125 238.246094 L 132.925781 249.644531 C 130.992188 251.316406 130.144531 253.929688 130.722656 256.421875 L 136.761719 282.390625 L 113.929688 268.625 C 111.738281 267.300781 108.992188 267.300781 106.800781 268.625 L 83.964844 282.390625 L 90.003906 256.421875 C 90.585938 253.929688 89.734375 251.316406 87.800781 249.644531 L 67.648438 232.183594 L 94.214844 229.902344 C 96.765625 229.679688 98.988281 228.066406 99.984375 225.707031 L 110.363281 201.148438 L 120.742188 225.707031 C 122.222656 229.222656 126.277344 230.867188 129.789062 229.378906 C 133.300781 227.898438 134.945312 223.847656 133.460938 220.335938 L 116.722656 180.722656 C 115.644531 178.167969 113.140625 176.507812 110.363281 176.507812 C 107.589844 176.507812 105.082031 178.167969 104.003906 180.722656 L 88.886719 216.496094 L 50.191406 219.820312 C 47.425781 220.058594 45.070312 221.925781 44.214844 224.566406 C 43.355469 227.207031 44.160156 230.101562 46.257812 231.917969 L 75.609375 257.351562 L 66.816406 295.179688 C 66.1875 297.882812 67.238281 300.699219 69.480469 302.328125 C 71.726562 303.960938 74.730469 304.089844 77.105469 302.65625 L 110.363281 282.597656 L 143.625 302.65625 C 144.722656 303.320312 145.957031 303.648438 147.1875 303.648438 C 148.617188 303.648438 150.042969 303.207031 151.246094 302.328125 C 153.492188 300.699219 154.542969 297.882812 153.914062 295.179688 L 145.117188 257.351562 L 155.121094 248.683594 C 158.003906 246.183594 158.316406 241.824219 155.816406 238.941406 C 153.320312 236.058594 148.960938 235.75 146.078125 238.246094 " fill-opacity="1" fill-rule="nonzero"/></g><g clip-path="url(#9cf5ca2b3c)"><path fill="#ffffff" d="M 724.292969 224.566406 C 723.4375 221.925781 721.082031 220.058594 718.316406 219.820312 L 679.625 216.496094 L 664.503906 180.722656 C 663.425781 178.167969 660.921875 176.507812 658.144531 176.507812 C 655.371094 176.507812 652.867188 178.167969 651.785156 180.722656 L 635.050781 220.335938 C 633.5625 223.847656 635.203125 227.898438 638.71875 229.378906 C 642.234375 230.867188 646.285156 229.222656 647.765625 225.707031 L 658.144531 201.148438 L 668.519531 225.707031 C 669.519531 228.066406 671.742188 229.679688 674.292969 229.902344 L 700.855469 232.183594 L 680.707031 249.644531 C 678.773438 251.316406 677.921875 253.929688 678.503906 256.421875 L 684.542969 282.390625 L 661.710938 268.625 C 659.515625 267.300781 656.773438 267.300781 654.582031 268.625 L 631.746094 282.390625 L 637.785156 256.421875 C 638.367188 253.929688 637.519531 251.316406 635.582031 249.644531 L 622.429688 238.246094 C 619.546875 235.75 615.1875 236.058594 612.691406 238.941406 C 610.191406 241.824219 610.507812 246.183594 613.386719 248.683594 L 623.394531 257.351562 L 614.59375 295.179688 C 613.964844 297.882812 615.015625 300.699219 617.261719 302.328125 C 619.507812 303.960938 622.507812 304.089844 624.882812 302.65625 L 658.144531 282.597656 L 691.402344 302.65625 C 692.503906 303.320312 693.738281 303.648438 694.96875 303.648438 C 696.394531 303.648438 697.820312 303.207031 699.027344 302.328125 C 701.269531 300.699219 702.320312 297.882812 701.695312 295.179688 L 692.894531 257.351562 L 722.25 231.917969 C 724.347656 230.101562 725.152344 227.207031 724.292969 224.566406 " fill-opacity="1" fill-rule="nonzero"/></g><g clip-path="url(#015c521065)"><path fill="#ffffff" d="M 527.1875 450.039062 C 520.234375 441.230469 510 436.375 498.359375 436.375 L 436.066406 436.375 C 444.546875 420.367188 449.714844 408.292969 451.476562 400.378906 C 451.511719 400.214844 451.546875 400.050781 451.574219 399.910156 C 454.675781 383.863281 453.453125 366.523438 448.046875 349.773438 C 442.625 332.964844 433.535156 318.425781 421.75 307.726562 C 414.1875 300.855469 406.035156 296.132812 397.511719 293.675781 C 388.675781 291.132812 379.84375 291.121094 371.257812 293.65625 C 357.292969 297.777344 348.640625 305.699219 345.542969 317.203125 C 343.167969 326.035156 344.816406 334.730469 346.410156 343.136719 C 348.769531 355.578125 350.996094 367.324219 341.855469 381.179688 C 341.734375 381.363281 341.621094 381.554688 341.511719 381.746094 C 341.410156 381.933594 331.113281 400.484375 317.171875 419.0625 C 300.394531 441.417969 285.054688 454.621094 275.039062 455.34375 L 189.261719 456.0625 C 189.253906 456.0625 189.246094 456.0625 189.238281 456.0625 C 173.277344 456.113281 160.308594 469.117188 160.308594 485.089844 L 160.308594 655.03125 C 160.308594 671.039062 173.328125 684.058594 189.332031 684.058594 C 189.339844 684.058594 189.351562 684.058594 189.359375 684.058594 L 228.089844 683.925781 C 232.765625 683.910156 236.542969 680.109375 236.527344 675.433594 C 236.507812 670.765625 232.722656 666.996094 228.0625 666.996094 C 228.050781 666.996094 228.042969 666.996094 228.03125 666.996094 L 189.328125 667.128906 C 182.660156 667.128906 177.238281 661.699219 177.238281 655.03125 L 177.238281 485.089844 C 177.238281 478.417969 182.664062 472.992188 189.332031 472.992188 C 189.355469 472.992188 189.378906 472.992188 189.402344 472.992188 L 275.417969 472.273438 C 275.554688 472.269531 275.695312 472.265625 275.832031 472.257812 C 285.082031 471.726562 294.859375 466.804688 305.726562 457.207031 C 313.566406 450.285156 321.972656 440.871094 330.710938 429.226562 C 344.554688 410.777344 354.726562 392.8125 356.167969 390.226562 C 361.832031 381.554688 364.828125 372.550781 365.335938 362.710938 C 365.765625 354.332031 364.320312 346.707031 363.046875 339.984375 C 361.691406 332.851562 360.523438 326.6875 361.890625 321.605469 C 362.917969 317.792969 365.453125 313.019531 376.046875 309.894531 C 387.199219 306.605469 399.386719 310.285156 410.367188 320.261719 C 430.078125 338.15625 440.1875 369.59375 434.949219 396.714844 C 433.167969 404.71875 425.875 420.335938 414.410156 440.6875 C 412.933594 443.308594 412.960938 446.515625 414.476562 449.113281 C 415.996094 451.710938 418.777344 453.308594 421.785156 453.308594 L 498.359375 453.308594 C 504.796875 453.308594 510.167969 455.800781 513.894531 460.523438 C 518.769531 466.710938 520.367188 475.894531 518.164062 485.089844 C 517.027344 489.832031 514.890625 493.964844 511.878906 497.304688 C 511.765625 497.300781 511.652344 497.296875 511.539062 497.296875 L 485.113281 497.296875 C 480.441406 497.296875 476.648438 501.085938 476.648438 505.761719 C 476.648438 510.4375 480.441406 514.226562 485.113281 514.226562 L 505.242188 514.226562 C 511.003906 522.308594 509.273438 533.257812 508.238281 537.65625 C 506.863281 543.5 504.175781 548.253906 500.226562 551.832031 C 499.945312 551.804688 499.660156 551.792969 499.363281 551.792969 L 472.9375 551.792969 C 468.265625 551.792969 464.472656 555.582031 464.472656 560.257812 C 464.472656 564.933594 468.265625 568.722656 472.9375 568.722656 L 496.980469 568.722656 C 500.441406 574.863281 500.960938 583.199219 498.304688 591.542969 C 496.082031 598.519531 492.0625 604.109375 486.632812 607.824219 L 460.765625 607.824219 C 456.089844 607.824219 452.300781 611.617188 452.300781 616.289062 C 452.300781 620.964844 456.089844 624.757812 460.765625 624.757812 L 484.328125 624.757812 C 486.417969 630.042969 486.425781 636.429688 484.261719 642.828125 C 478.449219 659.992188 464.0625 666.996094 434.597656 666.996094 L 343.054688 666.996094 C 342.949219 666.996094 342.839844 667 342.734375 667.003906 C 316.957031 667.976562 298.175781 663.222656 288.429688 653.253906 C 280.9375 645.59375 281.097656 637.179688 281.136719 636.308594 C 281.164062 636.035156 281.160156 635.941406 281.164062 635.640625 L 281.511719 523.429688 C 281.527344 518.75 277.75 514.949219 273.074219 514.9375 C 273.066406 514.9375 273.054688 514.9375 273.046875 514.9375 C 268.382812 514.9375 264.597656 518.707031 264.582031 523.371094 L 264.234375 635.324219 C 264.15625 636.679688 264.105469 640.277344 265.210938 645.023438 C 266.898438 652.285156 270.589844 659.066406 275.878906 664.628906 C 288.148438 677.535156 308.421875 684.058594 336.203125 684.058594 C 338.488281 684.058594 340.824219 684.015625 343.210938 683.925781 L 434.597656 683.925781 C 445.488281 683.925781 459.589844 683.28125 472.089844 678.230469 C 485.972656 672.621094 495.460938 662.539062 500.300781 648.257812 C 503.730469 638.105469 503.636719 627.714844 500.164062 618.757812 C 506.71875 613.117188 511.597656 605.609375 514.4375 596.679688 C 518.183594 584.917969 517.609375 572.808594 513.050781 562.996094 C 518.746094 557.296875 522.726562 550.003906 524.722656 541.53125 C 526.058594 535.839844 528.085938 522.816406 522.59375 510.605469 C 528.480469 504.875 532.59375 497.539062 534.628906 489.035156 C 538.03125 474.839844 535.246094 460.261719 527.1875 450.039062 " fill-opacity="1" fill-rule="nonzero"/></g><path fill="#ffffff" d="M 225.023438 624.757812 C 225.023438 626.074219 223.949219 627.152344 222.632812 627.152344 C 217.957031 627.152344 214.164062 630.941406 214.164062 635.617188 C 214.164062 640.289062 217.957031 644.082031 222.632812 644.082031 C 233.285156 644.082031 241.953125 635.414062 241.953125 624.757812 C 241.953125 620.082031 238.164062 616.289062 233.488281 616.289062 C 228.816406 616.289062 225.023438 620.082031 225.023438 624.757812 " fill-opacity="1" fill-rule="nonzero"/></svg>