<svg xmlns="http://www.w3.org/2000/svg" xmlns:xlink="http://www.w3.org/1999/xlink" width="1024" zoomAndPan="magnify" viewBox="0 0 768 767.999994" height="1024" preserveAspectRatio="xMidYMid meet" version="1.0"><defs><clipPath id="8d4dde208d"><path d="M 130.742188 104 L 535 104 L 535 745.953125 L 130.742188 745.953125 Z M 130.742188 104 " clip-rule="nonzero"/></clipPath><clipPath id="70342ac86f"><path d="M 505 182 L 636.992188 182 L 636.992188 335 L 505 335 Z M 505 182 " clip-rule="nonzero"/></clipPath><clipPath id="a3674ee722"><path d="M 297 22.203125 L 408 22.203125 L 408 129 L 297 129 Z M 297 22.203125 " clip-rule="nonzero"/></clipPath></defs><g clip-path="url(#8d4dde208d)"><path fill="#ffffff" d="M 480.054688 359.964844 L 351.527344 299.472656 L 435.667969 425.632812 L 416.152344 608.183594 L 406.3125 607.949219 L 395.050781 420.847656 L 303.003906 281.378906 L 223.472656 242.359375 L 265.835938 191.539062 L 306.316406 220.058594 L 371.746094 213.550781 L 381.460938 168.695312 L 230.351562 104.085938 L 130.957031 256.894531 L 276.160156 473.234375 L 233.679688 745.214844 L 478.097656 745.214844 L 477.140625 488.058594 L 525.640625 433.980469 L 534.710938 384.644531 Z M 480.054688 359.964844 " fill-opacity="1" fill-rule="nonzero"/></g><g clip-path="url(#70342ac86f)"><path fill="#ffffff" d="M 601.296875 182.363281 L 505.589844 313.199219 L 556.835938 334.460938 L 637.835938 231.234375 Z M 601.296875 182.363281 " fill-opacity="1" fill-rule="nonzero"/></g><path fill="#ffffff" d="M 530.859375 108.601562 L 419.554688 283.851562 L 473.660156 304.472656 L 579.308594 156.109375 Z M 530.859375 108.601562 " fill-opacity="1" fill-rule="nonzero"/><path fill="#ffffff" d="M 438.378906 56.179688 L 389.855469 140.039062 L 415.628906 151.066406 L 396.164062 240.90625 L 330.285156 247.761719 L 390.464844 274.097656 L 507.164062 88.175781 Z M 438.378906 56.179688 " fill-opacity="1" fill-rule="nonzero"/><g clip-path="url(#a3674ee722)"><path fill="#ffffff" d="M 407.75 46.410156 L 340.707031 22.777344 L 297.449219 100.511719 L 361.960938 128.109375 L 373.09375 109.070312 Z M 407.75 46.410156 " fill-opacity="1" fill-rule="nonzero"/></g></svg>