<svg xmlns="http://www.w3.org/2000/svg" xmlns:xlink="http://www.w3.org/1999/xlink" width="1024" zoomAndPan="magnify" viewBox="0 0 768 767.999994" height="1024" preserveAspectRatio="xMidYMid meet" version="1.0"><defs><clipPath id="219e90d7e8"><path d="M 7.855469 246 L 760 246 L 760 760 L 7.855469 760 Z M 7.855469 246 " clip-rule="nonzero"/></clipPath></defs><path fill="#ffffff" d="M 383.851562 8 C 300.882812 8 233.453125 75.425781 233.453125 158.398438 C 233.453125 241.367188 300.882812 308.796875 383.851562 308.796875 C 466.824219 308.796875 534.25 241.367188 534.25 158.398438 C 534.25 75.425781 466.824219 8 383.851562 8 Z M 430.726562 205.273438 C 407.792969 228.207031 378.964844 233.597656 356.53125 233.597656 C 345 233.597656 335.222656 232.09375 328.957031 230.839844 L 403.027344 156.769531 C 407.917969 151.878906 407.917969 143.984375 403.027344 139.097656 C 398.140625 134.207031 390.246094 134.207031 385.355469 139.097656 L 311.285156 213.167969 C 307.652344 194.742188 302.261719 146.242188 336.980469 111.523438 C 379.71875 68.785156 443.511719 86.832031 446.144531 87.585938 C 450.277344 88.839844 453.414062 91.972656 454.664062 96.109375 C 455.417969 98.738281 473.589844 162.535156 430.726562 205.273438 Z M 430.726562 205.273438 " fill-opacity="1" fill-rule="nonzero"/><g clip-path="url(#219e90d7e8)"><path fill="#ffffff" d="M 757.96875 452.550781 L 632.636719 252.019531 C 630.382812 248.386719 626.371094 246.128906 621.984375 246.128906 L 542.773438 246.128906 C 535.882812 246.128906 530.242188 251.769531 530.242188 258.664062 C 530.242188 265.554688 535.882812 271.195312 542.773438 271.195312 L 615.089844 271.195312 L 662.089844 346.394531 L 511.191406 346.394531 L 496.152344 312.054688 C 493.394531 305.789062 486 302.78125 479.605469 305.539062 C 473.214844 308.292969 470.332031 315.6875 473.089844 322.082031 L 483.742188 346.394531 L 289.101562 346.394531 L 297.75 323.335938 C 300.132812 316.816406 296.871094 309.671875 290.480469 307.167969 C 283.964844 304.660156 276.820312 308.042969 274.3125 314.4375 L 262.40625 346.269531 L 105.617188 346.269531 L 152.613281 271.070312 L 224.933594 271.070312 C 231.824219 271.070312 237.464844 265.429688 237.464844 258.539062 C 237.464844 251.644531 231.824219 246.003906 224.933594 246.003906 L 145.722656 246.003906 C 141.460938 246.003906 137.324219 248.261719 135.070312 251.894531 L 9.738281 452.550781 C 7.355469 456.4375 7.230469 461.324219 9.359375 465.210938 C 11.617188 469.222656 15.753906 471.726562 20.265625 471.726562 L 57.863281 471.726562 L 57.863281 722.390625 C 57.863281 743.070312 74.785156 759.992188 95.464844 759.992188 L 671.992188 759.992188 C 692.671875 759.992188 709.589844 743.070312 709.589844 722.390625 L 709.589844 471.726562 L 747.191406 471.726562 C 751.703125 471.726562 755.964844 469.222656 758.21875 465.210938 C 760.476562 461.199219 760.351562 456.3125 757.84375 452.550781 Z M 494.773438 371.460938 L 527.609375 446.660156 L 251.503906 446.660156 L 279.703125 371.460938 Z M 90.074219 371.460938 L 253.007812 371.460938 L 224.804688 446.660156 L 42.949219 446.660156 L 89.949219 371.460938 Z M 684.777344 722.390625 C 684.777344 729.285156 679.136719 734.925781 672.242188 734.925781 L 95.589844 734.925781 C 88.695312 734.925781 83.054688 729.285156 83.054688 722.390625 L 83.054688 471.726562 L 684.648438 471.726562 L 684.648438 722.390625 Z M 697.308594 446.660156 L 555.058594 446.660156 L 522.21875 371.460938 L 677.882812 371.460938 L 724.882812 446.660156 Z M 697.308594 446.660156 " fill-opacity="1" fill-rule="nonzero"/></g><path fill="#ffffff" d="M 333.71875 521.859375 L 433.984375 521.859375 C 434.808594 521.859375 435.625 521.941406 436.429688 522.101562 C 437.238281 522.261719 438.023438 522.5 438.78125 522.816406 C 439.542969 523.128906 440.265625 523.515625 440.949219 523.972656 C 441.632812 524.429688 442.265625 524.949219 442.847656 525.53125 C 443.429688 526.113281 443.949219 526.746094 444.40625 527.429688 C 444.863281 528.113281 445.25 528.835938 445.566406 529.597656 C 445.878906 530.359375 446.117188 531.140625 446.277344 531.949219 C 446.4375 532.753906 446.519531 533.570312 446.519531 534.394531 L 446.519531 659.726562 C 446.519531 660.550781 446.4375 661.363281 446.277344 662.171875 C 446.117188 662.976562 445.878906 663.761719 445.566406 664.523438 C 445.25 665.28125 444.863281 666.003906 444.40625 666.6875 C 443.949219 667.375 443.429688 668.007812 442.847656 668.589844 C 442.265625 669.171875 441.632812 669.691406 440.949219 670.148438 C 440.265625 670.605469 439.542969 670.988281 438.78125 671.304688 C 438.023438 671.621094 437.238281 671.859375 436.429688 672.019531 C 435.625 672.179688 434.808594 672.257812 433.984375 672.257812 L 333.71875 672.257812 C 332.898438 672.257812 332.082031 672.179688 331.273438 672.019531 C 330.46875 671.859375 329.683594 671.621094 328.925781 671.304688 C 328.164062 670.988281 327.441406 670.605469 326.757812 670.148438 C 326.074219 669.691406 325.441406 669.171875 324.859375 668.589844 C 324.277344 668.007812 323.757812 667.375 323.300781 666.6875 C 322.84375 666.003906 322.457031 665.28125 322.140625 664.523438 C 321.824219 663.761719 321.589844 662.976562 321.425781 662.171875 C 321.265625 661.363281 321.1875 660.550781 321.1875 659.726562 L 321.1875 534.394531 C 321.1875 533.570312 321.265625 532.753906 321.429688 531.949219 C 321.589844 531.140625 321.824219 530.359375 322.140625 529.597656 C 322.457031 528.835938 322.84375 528.113281 323.300781 527.429688 C 323.757812 526.746094 324.277344 526.113281 324.859375 525.53125 C 325.441406 524.949219 326.074219 524.429688 326.757812 523.972656 C 327.441406 523.515625 328.164062 523.128906 328.925781 522.816406 C 329.683594 522.5 330.46875 522.261719 331.273438 522.101562 C 332.082031 521.941406 332.898438 521.859375 333.71875 521.859375 Z M 333.71875 521.859375 " fill-opacity="1" fill-rule="nonzero"/><path fill="#ffffff" d="M 158.253906 521.859375 L 258.519531 521.859375 C 259.34375 521.859375 260.160156 521.941406 260.964844 522.101562 C 261.773438 522.261719 262.558594 522.5 263.316406 522.816406 C 264.078125 523.128906 264.800781 523.515625 265.484375 523.972656 C 266.167969 524.429688 266.800781 524.949219 267.382812 525.53125 C 267.964844 526.113281 268.484375 526.746094 268.941406 527.429688 C 269.398438 528.113281 269.785156 528.835938 270.101562 529.597656 C 270.414062 530.359375 270.652344 531.140625 270.8125 531.949219 C 270.972656 532.753906 271.054688 533.570312 271.054688 534.394531 L 271.054688 659.726562 C 271.054688 660.550781 270.972656 661.363281 270.8125 662.171875 C 270.652344 662.976562 270.414062 663.761719 270.101562 664.523438 C 269.785156 665.28125 269.398438 666.003906 268.941406 666.6875 C 268.484375 667.375 267.964844 668.007812 267.382812 668.589844 C 266.800781 669.171875 266.167969 669.691406 265.484375 670.148438 C 264.800781 670.605469 264.078125 670.988281 263.316406 671.304688 C 262.558594 671.621094 261.773438 671.859375 260.964844 672.019531 C 260.160156 672.179688 259.34375 672.257812 258.519531 672.257812 L 158.253906 672.257812 C 157.433594 672.257812 156.617188 672.179688 155.808594 672.019531 C 155.003906 671.859375 154.21875 671.621094 153.457031 671.304688 C 152.699219 670.988281 151.976562 670.605469 151.292969 670.148438 C 150.609375 669.691406 149.976562 669.171875 149.394531 668.589844 C 148.8125 668.007812 148.292969 667.375 147.835938 666.6875 C 147.378906 666.003906 146.992188 665.28125 146.675781 664.523438 C 146.359375 663.761719 146.125 662.976562 145.960938 662.171875 C 145.800781 661.363281 145.722656 660.550781 145.722656 659.726562 L 145.722656 534.394531 C 145.722656 533.570312 145.800781 532.753906 145.960938 531.949219 C 146.125 531.140625 146.359375 530.359375 146.675781 529.597656 C 146.992188 528.835938 147.378906 528.113281 147.835938 527.429688 C 148.292969 526.746094 148.8125 526.113281 149.394531 525.53125 C 149.976562 524.949219 150.609375 524.429688 151.292969 523.972656 C 151.976562 523.515625 152.699219 523.128906 153.457031 522.816406 C 154.21875 522.5 155.003906 522.261719 155.808594 522.101562 C 156.617188 521.941406 157.433594 521.859375 158.253906 521.859375 Z M 158.253906 521.859375 " fill-opacity="1" fill-rule="nonzero"/><path fill="#ffffff" d="M 509.183594 521.859375 L 609.449219 521.859375 C 610.273438 521.859375 611.089844 521.941406 611.894531 522.101562 C 612.703125 522.261719 613.488281 522.5 614.246094 522.816406 C 615.007812 523.128906 615.730469 523.515625 616.414062 523.972656 C 617.097656 524.429688 617.730469 524.949219 618.3125 525.53125 C 618.894531 526.113281 619.414062 526.746094 619.871094 527.429688 C 620.328125 528.113281 620.714844 528.835938 621.03125 529.597656 C 621.34375 530.359375 621.582031 531.140625 621.742188 531.949219 C 621.902344 532.753906 621.984375 533.570312 621.984375 534.394531 L 621.984375 659.726562 C 621.984375 660.550781 621.902344 661.363281 621.742188 662.171875 C 621.582031 662.976562 621.34375 663.761719 621.03125 664.523438 C 620.714844 665.28125 620.328125 666.003906 619.871094 666.6875 C 619.414062 667.375 618.894531 668.007812 618.3125 668.589844 C 617.730469 669.171875 617.097656 669.691406 616.414062 670.148438 C 615.730469 670.605469 615.007812 670.988281 614.246094 671.304688 C 613.488281 671.621094 612.703125 671.859375 611.894531 672.019531 C 611.089844 672.179688 610.273438 672.257812 609.449219 672.257812 L 509.183594 672.257812 C 508.363281 672.257812 507.546875 672.179688 506.738281 672.019531 C 505.933594 671.859375 505.148438 671.621094 504.390625 671.304688 C 503.628906 670.988281 502.90625 670.605469 502.222656 670.148438 C 501.539062 669.691406 500.90625 669.171875 500.324219 668.589844 C 499.742188 668.007812 499.222656 667.375 498.765625 666.6875 C 498.308594 666.003906 497.921875 665.28125 497.605469 664.523438 C 497.289062 663.761719 497.054688 662.976562 496.894531 662.171875 C 496.730469 661.363281 496.652344 660.550781 496.652344 659.726562 L 496.652344 534.394531 C 496.652344 533.570312 496.730469 532.753906 496.894531 531.949219 C 497.054688 531.140625 497.289062 530.359375 497.605469 529.597656 C 497.921875 528.835938 498.308594 528.113281 498.765625 527.429688 C 499.222656 526.746094 499.742188 526.113281 500.324219 525.53125 C 500.90625 524.949219 501.539062 524.429688 502.222656 523.972656 C 502.90625 523.515625 503.628906 523.128906 504.390625 522.816406 C 505.148438 522.5 505.933594 522.261719 506.738281 522.101562 C 507.546875 521.941406 508.363281 521.859375 509.183594 521.859375 Z M 509.183594 521.859375 " fill-opacity="1" fill-rule="nonzero"/></svg>