<svg xmlns="http://www.w3.org/2000/svg" xmlns:xlink="http://www.w3.org/1999/xlink" width="1024" zoomAndPan="magnify" viewBox="0 0 768 767.999994" height="1024" preserveAspectRatio="xMidYMid meet" version="1.0"><path fill="#f7d7b7" d="M 293.746094 75.050781 C 312.527344 44.710938 317.59375 33.570312 339.210938 27.832031 C 360.828125 22.09375 415.210938 16.351562 440.203125 33.570312 C 465.199219 50.789062 477.015625 85.222656 477.015625 85.222656 Z M 293.746094 75.050781 " fill-opacity="1" fill-rule="nonzero"/><path fill="#f7d7b7" d="M 535.117188 160 C 535.117188 161.816406 535.054688 163.628906 534.933594 165.445312 C 534.8125 167.257812 534.628906 169.066406 534.382812 170.871094 C 534.136719 172.679688 533.832031 174.480469 533.464844 176.273438 C 533.097656 178.070312 532.671875 179.859375 532.183594 181.636719 C 531.695312 183.417969 531.148438 185.1875 530.542969 186.949219 C 529.933594 188.710938 529.269531 190.457031 528.542969 192.195312 C 527.820312 193.933594 527.035156 195.65625 526.191406 197.363281 C 525.351562 199.074219 524.453125 200.765625 523.496094 202.441406 C 522.539062 204.117188 521.527344 205.777344 520.460938 207.417969 C 519.390625 209.058594 518.269531 210.679688 517.089844 212.28125 C 515.914062 213.882812 514.679688 215.460938 513.398438 217.015625 C 512.113281 218.574219 510.777344 220.105469 509.386719 221.617188 C 508 223.125 506.5625 224.609375 505.074219 226.066406 C 503.585938 227.523438 502.046875 228.953125 500.464844 230.355469 C 498.878906 231.761719 497.246094 233.132812 495.566406 234.480469 C 493.890625 235.824219 492.167969 237.136719 490.402344 238.421875 C 488.632812 239.703125 486.824219 240.957031 484.972656 242.175781 C 483.121094 243.394531 481.230469 244.578125 479.300781 245.730469 C 477.367188 246.882812 475.398438 247.996094 473.390625 249.078125 C 471.386719 250.160156 469.34375 251.203125 467.265625 252.214844 C 465.1875 253.222656 463.078125 254.191406 460.933594 255.125 C 458.792969 256.058594 456.617188 256.953125 454.414062 257.808594 C 452.210938 258.664062 449.980469 259.480469 447.722656 260.257812 C 445.464844 261.03125 443.179688 261.765625 440.871094 262.460938 C 438.5625 263.15625 436.230469 263.808594 433.878906 264.421875 C 431.527344 265.03125 429.15625 265.601562 426.765625 266.128906 C 424.375 266.65625 421.964844 267.140625 419.542969 267.582031 C 417.117188 268.019531 414.679688 268.417969 412.230469 268.773438 C 409.78125 269.125 407.320312 269.4375 404.847656 269.703125 C 402.375 269.96875 399.898438 270.191406 397.410156 270.371094 C 394.925781 270.546875 392.433594 270.679688 389.9375 270.769531 C 387.441406 270.859375 384.945312 270.902344 382.445312 270.902344 C 379.949219 270.902344 377.449219 270.859375 374.953125 270.769531 C 372.460938 270.679688 369.96875 270.546875 367.480469 270.371094 C 364.996094 270.191406 362.515625 269.96875 360.042969 269.703125 C 357.574219 269.4375 355.113281 269.125 352.660156 268.773438 C 350.210938 268.417969 347.773438 268.019531 345.351562 267.582031 C 342.925781 267.140625 340.519531 266.65625 338.128906 266.128906 C 335.738281 265.601562 333.363281 265.03125 331.011719 264.421875 C 328.660156 263.808594 326.328125 263.15625 324.019531 262.460938 C 321.710938 261.765625 319.429688 261.03125 317.171875 260.257812 C 314.910156 259.480469 312.679688 258.664062 310.476562 257.808594 C 308.273438 256.953125 306.101562 256.058594 303.957031 255.125 C 301.8125 254.191406 299.703125 253.222656 297.625 252.214844 C 295.546875 251.203125 293.507812 250.160156 291.5 249.078125 C 289.492188 247.996094 287.523438 246.882812 285.59375 245.730469 C 283.660156 244.578125 281.769531 243.394531 279.917969 242.175781 C 278.066406 240.957031 276.257812 239.703125 274.492188 238.421875 C 272.722656 237.136719 271 235.824219 269.324219 234.480469 C 267.644531 233.132812 266.015625 231.761719 264.429688 230.355469 C 262.84375 228.953125 261.308594 227.523438 259.820312 226.066406 C 258.332031 224.609375 256.890625 223.125 255.503906 221.617188 C 254.117188 220.105469 252.78125 218.574219 251.496094 217.015625 C 250.210938 215.460938 248.980469 213.882812 247.800781 212.28125 C 246.625 210.679688 245.5 209.058594 244.433594 207.417969 C 243.363281 205.777344 242.351562 204.117188 241.394531 202.441406 C 240.441406 200.765625 239.539062 199.074219 238.699219 197.363281 C 237.855469 195.65625 237.074219 193.933594 236.347656 192.195312 C 235.625 190.457031 234.957031 188.710938 234.351562 186.949219 C 233.742188 185.1875 233.195312 183.417969 232.707031 181.636719 C 232.21875 179.859375 231.792969 178.070312 231.425781 176.273438 C 231.058594 174.480469 230.753906 172.679688 230.507812 170.871094 C 230.265625 169.066406 230.082031 167.257812 229.957031 165.445312 C 229.835938 163.628906 229.773438 161.816406 229.773438 160 C 229.773438 158.1875 229.835938 156.371094 229.957031 154.558594 C 230.082031 152.746094 230.265625 150.9375 230.507812 149.132812 C 230.753906 147.324219 231.058594 145.523438 231.425781 143.730469 C 231.792969 141.933594 232.21875 140.144531 232.707031 138.367188 C 233.195312 136.585938 233.742188 134.816406 234.351562 133.054688 C 234.957031 131.292969 235.625 129.546875 236.347656 127.808594 C 237.074219 126.070312 237.855469 124.347656 238.699219 122.640625 C 239.539062 120.929688 240.441406 119.238281 241.394531 117.5625 C 242.351562 115.882812 243.363281 114.226562 244.433594 112.585938 C 245.5 110.945312 246.625 109.324219 247.800781 107.722656 C 248.980469 106.121094 250.210938 104.542969 251.496094 102.988281 C 252.78125 101.429688 254.117188 99.898438 255.503906 98.386719 C 256.890625 96.878906 258.332031 95.394531 259.820312 93.9375 C 261.308594 92.480469 262.84375 91.050781 264.429688 89.644531 C 266.015625 88.242188 267.644531 86.871094 269.324219 85.523438 C 271 84.179688 272.722656 82.867188 274.492188 81.582031 C 276.257812 80.300781 278.066406 79.046875 279.917969 77.828125 C 281.769531 76.609375 283.660156 75.425781 285.59375 74.273438 C 287.523438 73.121094 289.492188 72.003906 291.5 70.925781 C 293.507812 69.84375 295.546875 68.796875 297.625 67.789062 C 299.703125 66.78125 301.8125 65.8125 303.957031 64.878906 C 306.101562 63.945312 308.273438 63.050781 310.476562 62.195312 C 312.679688 61.339844 314.910156 60.523438 317.171875 59.746094 C 319.429688 58.972656 321.710938 58.238281 324.019531 57.542969 C 326.328125 56.847656 328.660156 56.195312 331.011719 55.582031 C 333.363281 54.972656 335.738281 54.402344 338.128906 53.875 C 340.519531 53.347656 342.925781 52.863281 345.351562 52.421875 C 347.773438 51.984375 350.210938 51.585938 352.660156 51.230469 C 355.113281 50.875 357.574219 50.566406 360.042969 50.300781 C 362.515625 50.035156 364.996094 49.8125 367.480469 49.632812 C 369.96875 49.457031 372.460938 49.324219 374.953125 49.234375 C 377.449219 49.144531 379.949219 49.101562 382.445312 49.101562 C 384.945312 49.101562 387.441406 49.144531 389.9375 49.234375 C 392.433594 49.324219 394.925781 49.457031 397.410156 49.632812 C 399.898438 49.8125 402.375 50.035156 404.847656 50.300781 C 407.320312 50.566406 409.78125 50.875 412.230469 51.230469 C 414.679688 51.585938 417.117188 51.984375 419.542969 52.421875 C 421.964844 52.863281 424.375 53.347656 426.765625 53.875 C 429.15625 54.402344 431.527344 54.972656 433.878906 55.582031 C 436.230469 56.195312 438.5625 56.847656 440.871094 57.542969 C 443.179688 58.238281 445.464844 58.972656 447.722656 59.746094 C 449.980469 60.523438 452.210938 61.339844 454.414062 62.195312 C 456.617188 63.050781 458.792969 63.945312 460.933594 64.878906 C 463.078125 65.8125 465.1875 66.78125 467.265625 67.789062 C 469.34375 68.796875 471.386719 69.84375 473.390625 70.925781 C 475.398438 72.003906 477.367188 73.121094 479.300781 74.273438 C 481.230469 75.425781 483.121094 76.609375 484.972656 77.828125 C 486.824219 79.046875 488.632812 80.300781 490.402344 81.582031 C 492.167969 82.867188 493.890625 84.179688 495.566406 85.523438 C 497.246094 86.871094 498.878906 88.242188 500.460938 89.644531 C 502.046875 91.050781 503.585938 92.480469 505.074219 93.9375 C 506.5625 95.394531 508 96.878906 509.386719 98.386719 C 510.777344 99.898438 512.113281 101.429688 513.398438 102.988281 C 514.679688 104.542969 515.914062 106.121094 517.089844 107.722656 C 518.269531 109.324219 519.390625 110.945312 520.460938 112.585938 C 521.527344 114.226562 522.539062 115.882812 523.496094 117.5625 C 524.453125 119.238281 525.351562 120.929688 526.191406 122.640625 C 527.035156 124.347656 527.820312 126.070312 528.542969 127.808594 C 529.269531 129.546875 529.933594 131.292969 530.542969 133.054688 C 531.148438 134.816406 531.695312 136.585938 532.183594 138.367188 C 532.671875 140.144531 533.097656 141.933594 533.464844 143.730469 C 533.832031 145.523438 534.136719 147.324219 534.382812 149.132812 C 534.628906 150.9375 534.8125 152.746094 534.933594 154.558594 C 535.054688 156.371094 535.117188 158.1875 535.117188 160 Z M 535.117188 160 " fill-opacity="1" fill-rule="nonzero"/><path fill="#662520" d="M 382.445312 75.09375 C 306.554688 73.476562 280.777344 115.605469 278.074219 168.609375 C 275.375 221.613281 250.714844 218.914062 257.472656 255.035156 C 264.226562 291.160156 265.914062 293.183594 252.066406 306.6875 C 238.21875 320.195312 250.039062 351.253906 276.722656 356.316406 C 303.40625 361.378906 449.269531 342.8125 482.90625 336.0625 C 516.539062 329.308594 527.011719 293.183594 505.730469 280.019531 C 484.453125 266.851562 504.042969 225.328125 499.652344 205.410156 C 495.261719 185.492188 482.90625 176.816406 482.90625 176.816406 C 482.90625 176.816406 499.949219 77.605469 382.445312 75.09375 Z M 382.445312 75.09375 " fill-opacity="1" fill-rule="nonzero"/><path fill="#9b9704" d="M 347.992188 303.988281 C 333.808594 293.859375 324.351562 306.6875 322.324219 313.105469 C 320.296875 319.519531 242.949219 329.308594 205.792969 358.003906 C 168.636719 386.699219 135.875 493.71875 135.875 493.71875 C 135.875 493.71875 129.121094 493.046875 126.417969 492.707031 C 123.714844 492.371094 121.351562 517.015625 121.011719 519.378906 C 120.675781 521.742188 166.273438 528.492188 186.203125 542.335938 C 206.128906 556.175781 220.65625 560.566406 225.046875 561.914062 C 229.4375 563.265625 236.53125 549.085938 230.113281 548.410156 L 237.882812 534.230469 L 514.851562 537.609375 L 524.308594 526.128906 L 538.832031 543.683594 C 538.832031 543.683594 536.804688 550.101562 534.441406 552.125 C 532.078125 554.152344 541.875 558.539062 542.546875 564.617188 C 543.222656 570.691406 556.058594 545.710938 593.550781 536.257812 C 631.042969 526.804688 650.636719 524.78125 650.636719 524.78125 C 650.636719 524.78125 645.566406 501.148438 642.191406 494.734375 C 638.8125 488.320312 633.410156 494.734375 633.410156 494.734375 C 633.410156 494.734375 601.996094 385.351562 568.558594 360.707031 C 535.117188 336.0625 445.945312 316.816406 445.945312 316.816406 C 445.945312 316.816406 444.59375 293.183594 418.925781 302.300781 C 393.253906 311.414062 347.992188 303.988281 347.992188 303.988281 Z M 347.992188 303.988281 " fill-opacity="1" fill-rule="nonzero"/><path fill="#f49f83" d="M 349.683594 261.113281 C 347.992188 274.617188 346.304688 296.222656 343.941406 303.652344 C 341.574219 311.078125 364.851562 336.0625 382.429688 336.0625 C 400.007812 336.0625 423.316406 315.46875 421.628906 301.289062 C 419.9375 287.109375 415.210938 249.636719 415.210938 249.636719 Z M 349.683594 261.113281 " fill-opacity="1" fill-rule="nonzero"/><path fill="#f49f83" d="M 300.707031 213.511719 C 311.851562 260.4375 345.292969 277.640625 385.148438 276.804688 C 425.003906 275.96875 457.160156 248.960938 461.855469 213.511719 C 490.195312 213.511719 488.167969 158.144531 466.214844 170.296875 C 466.214844 170.296875 465.199219 154.09375 464.1875 148.691406 C 463.171875 143.289062 423.992188 131.472656 423.652344 85.222656 C 406.089844 110.542969 361.167969 102.101562 328.402344 122.695312 C 295.640625 143.289062 298.679688 171.648438 298.679688 171.648438 C 277.738281 166.585938 274.359375 211.148438 300.707031 213.511719 Z M 300.707031 213.511719 " fill-opacity="1" fill-rule="nonzero"/><path fill="#f7d7b7" d="M 305.097656 316.140625 C 295.640625 314.453125 280.441406 323.90625 280.441406 323.90625 C 280.441406 323.90625 275.710938 393.453125 275.035156 402.230469 C 274.359375 411.007812 245.3125 487.304688 241.597656 527.480469 C 237.882812 567.65625 226.398438 689.527344 222.003906 705.058594 C 217.613281 720.589844 285.167969 751.648438 378.394531 751.648438 C 471.617188 751.648438 544.238281 727.339844 538.496094 691.554688 C 532.753906 655.769531 527.011719 540.308594 514.175781 497.097656 C 501.339844 453.882812 490.871094 439.703125 487.832031 402.90625 C 484.789062 366.105469 477.695312 322.558594 477.359375 321.207031 C 477.023438 319.855469 457.476562 315.398438 454.582031 315.941406 C 451.691406 316.480469 464.863281 396.828125 464.863281 396.828125 L 400.347656 425.523438 L 293.613281 418.773438 Z M 305.097656 316.140625 " fill-opacity="1" fill-rule="nonzero"/><path fill="#0f844f" d="M 324.21875 448.761719 C 329.046875 468.285156 299.789062 475.027344 294.421875 468.089844 C 277.089844 478.230469 271.105469 461.027344 274.835938 454.4375 C 278.566406 447.847656 273.179688 454.625 273.179688 454.625 C 255.003906 453.929688 269.632812 439.328125 269.632812 439.328125 C 261.210938 428.367188 274.777344 427.011719 274.777344 427.011719 C 260.570312 414.132812 276.066406 403.605469 276.066406 403.605469 C 274.027344 384.160156 291.40625 386.535156 291.40625 386.535156 C 292.804688 369.277344 314.730469 364.867188 314.730469 364.867188 C 316.644531 350.039062 331.058594 352.558594 336.84375 359.648438 C 346.199219 340.683594 371.617188 357.644531 371.617188 357.644531 C 384.304688 348.632812 393 363.734375 391.859375 372.8125 C 415.566406 369.691406 411.394531 392.238281 411.394531 392.238281 C 436.453125 393.933594 428.476562 414.527344 424.847656 417.53125 C 444.824219 432.132812 433.792969 446.917969 424.070312 448.828125 C 429.265625 461.15625 412.570312 466.453125 406.617188 461.371094 C 409.855469 475.710938 378.136719 483.527344 371.441406 466.804688 C 355.773438 477.550781 324.21875 448.769531 324.21875 448.769531 Z M 324.21875 448.761719 " fill-opacity="1" fill-rule="nonzero"/><path fill="#0f844f" d="M 304.335938 441.902344 C 311.121094 447.285156 328.910156 460.152344 331.015625 475.015625 C 333.125 489.886719 336.667969 520.414062 336.667969 520.414062 C 336.667969 520.414062 345.519531 524.765625 359.023438 522.816406 C 372.523438 520.871094 377.929688 514.285156 377.929688 514.285156 C 377.929688 514.285156 370.53125 467.496094 378.441406 453.269531 C 386.351562 439.042969 391.949219 430.644531 391.949219 430.644531 L 382.550781 421.589844 C 382.550781 421.589844 364.6875 446.105469 362.195312 452.15625 C 359.710938 458.203125 353.429688 458.925781 353.945312 451.3125 C 354.460938 443.703125 357.769531 411.914062 357.769531 411.914062 L 343.476562 412.164062 C 343.476562 412.164062 339.933594 433.246094 336.933594 441.738281 C 333.9375 450.234375 326.609375 440.144531 324.351562 437.816406 C 322.097656 435.492188 316.488281 429.972656 316.488281 429.972656 L 304.335938 441.90625 Z M 304.335938 441.902344 " fill-opacity="1" fill-rule="nonzero"/><path fill="#662520" d="M 333.5 446.601562 C 330.058594 446.601562 326.621094 442.683594 324.292969 440.019531 C 323.878906 439.546875 323.523438 439.136719 323.261719 438.871094 C 321.042969 436.585938 315.480469 431.105469 315.421875 431.050781 C 314.824219 430.464844 314.816406 429.5 315.40625 428.90625 C 315.992188 428.308594 316.957031 428.300781 317.554688 428.886719 C 317.613281 428.941406 323.199219 434.445312 325.441406 436.757812 C 325.753906 437.078125 326.132812 437.511719 326.574219 438.015625 C 328.121094 439.785156 331.753906 443.921875 333.75 443.539062 C 334.582031 443.378906 335.160156 442.195312 335.503906 441.230469 C 338.425781 432.957031 341.945312 412.117188 341.980469 411.90625 C 342.121094 411.078125 342.902344 410.523438 343.730469 410.660156 C 344.558594 410.796875 345.117188 411.582031 344.976562 412.410156 C 344.832031 413.277344 341.375 433.71875 338.367188 442.238281 C 337.484375 444.734375 336.125 446.175781 334.324219 446.519531 C 334.050781 446.574219 333.773438 446.597656 333.5 446.597656 Z M 333.5 446.601562 " fill-opacity="1" fill-rule="nonzero"/><path fill="#662520" d="M 356.976562 458.375 C 356.652344 458.375 356.328125 458.339844 356.011719 458.269531 C 353.507812 457.683594 352.171875 455.046875 352.433594 451.210938 C 352.945312 443.65625 356.226562 412.070312 356.257812 411.75 C 356.347656 410.917969 357.089844 410.3125 357.925781 410.398438 C 358.761719 410.484375 359.371094 411.230469 359.28125 412.066406 C 359.25 412.382812 355.972656 443.914062 355.464844 451.414062 C 355.320312 453.570312 355.804688 455.09375 356.703125 455.304688 C 357.644531 455.523438 359.597656 454.488281 360.792969 451.570312 C 363.316406 445.421875 380.589844 421.691406 381.320312 420.6875 C 381.816406 420.007812 382.765625 419.859375 383.445312 420.351562 C 384.125 420.847656 384.273438 421.796875 383.78125 422.476562 C 383.601562 422.71875 365.992188 446.910156 363.605469 452.726562 C 362.195312 456.152344 359.523438 458.375 356.976562 458.375 Z M 356.976562 458.375 " fill-opacity="1" fill-rule="nonzero"/><path fill="#662520" d="M 352.0625 524.84375 C 342.367188 524.84375 336.304688 521.929688 335.996094 521.78125 C 335.535156 521.554688 335.214844 521.105469 335.160156 520.59375 C 335.125 520.289062 331.589844 489.910156 329.511719 475.234375 C 327.644531 462.054688 312.375 450.121094 305.039062 444.390625 C 304.4375 443.921875 303.882812 443.488281 303.386719 443.09375 C 302.730469 442.574219 302.621094 441.613281 303.140625 440.960938 C 303.660156 440.300781 304.621094 440.195312 305.277344 440.714844 C 305.765625 441.101562 306.3125 441.53125 306.90625 441.996094 C 314.558594 447.976562 330.472656 460.414062 332.515625 474.808594 C 334.398438 488.117188 337.472656 514.265625 338.066406 519.371094 C 338.992188 519.738281 340.761719 520.367188 343.210938 520.890625 C 346.625 521.621094 352.101562 522.285156 358.796875 521.320312 C 365.421875 520.363281 369.953125 518.238281 372.582031 516.625 C 374.492188 515.457031 375.707031 514.375 376.304688 513.789062 C 375.355469 507.515625 369.488281 466.230469 377.101562 452.535156 C 384.953125 438.417969 390.621094 429.894531 390.675781 429.808594 C 391.140625 429.109375 392.082031 428.921875 392.78125 429.386719 C 393.480469 429.851562 393.671875 430.796875 393.203125 431.492188 C 393.148438 431.578125 387.542969 440.011719 379.757812 454.015625 C 372.191406 467.625 379.347656 513.589844 379.417969 514.054688 C 379.488281 514.484375 379.367188 514.917969 379.09375 515.257812 C 378.855469 515.542969 373.152344 522.320312 359.226562 524.332031 C 356.664062 524.703125 354.265625 524.851562 352.054688 524.851562 Z M 352.0625 524.84375 " fill-opacity="1" fill-rule="nonzero"/><path fill="#0f844f" d="M 410.296875 454.488281 C 407.890625 470.40625 384.1875 466.441406 382.339844 459.667969 C 366.414062 461.867188 367.261719 447.3125 372.035156 443.578125 C 376.8125 439.847656 370.75 443.210938 370.75 443.210938 C 357.519531 437.136719 372.808594 430.8125 372.808594 430.8125 C 369.9375 420.128906 380.390625 423.273438 380.390625 423.273438 C 373.824219 409.402344 388.503906 406.355469 388.503906 406.355469 C 392.953125 391.351562 405.078125 398.421875 405.078125 398.421875 C 411.394531 386.085938 428.960938 389.53125 428.960938 389.53125 C 434.917969 379.148438 444.804688 385.421875 446.917969 392.433594 C 459.644531 381.265625 473.253906 401.585938 473.253906 401.585938 C 485.394531 398.800781 487.207031 412.632812 483.578125 418.996094 C 502.066406 423.9375 492.082031 439.339844 492.082031 439.339844 C 510.097656 448.253906 497.890625 461.050781 494.289062 462.160156 C 504.59375 479.070312 491.910156 486.632812 484.132812 485.074219 C 484.203125 495.78125 470.230469 494.589844 467.386719 489.011719 C 465.390625 500.605469 439.535156 496.6875 439.703125 482.269531 C 424.824219 485.425781 410.296875 454.488281 410.296875 454.488281 Z M 410.296875 454.488281 " fill-opacity="1" fill-rule="nonzero"/><path fill="#662520" d="M 379.21875 461.414062 C 372.09375 461.414062 369.355469 457.699219 368.324219 455.269531 C 366.710938 451.460938 367.515625 447.074219 369.402344 444.25 C 365.664062 442.386719 363.792969 440.195312 363.839844 437.734375 C 363.878906 435.59375 365.367188 433.515625 368.261719 431.566406 C 369.285156 430.871094 370.300781 430.324219 371.046875 429.953125 C 370.433594 426.839844 370.910156 424.5 372.46875 422.988281 C 373.703125 421.792969 375.574219 421.21875 377.878906 421.339844 C 377.910156 421.339844 377.945312 421.339844 377.972656 421.34375 C 376.816406 417.8125 376.914062 414.652344 378.269531 411.929688 C 380.464844 407.527344 385.296875 405.691406 387.304688 405.101562 C 388.863281 400.390625 391.371094 397.320312 394.761719 395.976562 C 398.582031 394.464844 402.445312 395.601562 404.449219 396.441406 C 410.738281 386.28125 424.277344 387.328125 428.195312 387.867188 C 431.554688 382.710938 435.660156 382.320312 437.878906 382.578125 C 442.398438 383.097656 446.910156 387.144531 448.367188 391.996094 C 448.613281 392.800781 448.15625 393.648438 447.351562 393.890625 C 446.546875 394.132812 445.699219 393.679688 445.457031 392.875 C 444.347656 389.179688 440.863281 385.980469 437.53125 385.601562 C 434.730469 385.277344 432.21875 386.898438 430.273438 390.289062 C 429.949219 390.851562 429.300781 391.148438 428.664062 391.027344 C 428.5 390.996094 412.136719 387.964844 406.425781 399.117188 C 406.234375 399.488281 405.902344 399.765625 405.5 399.882812 C 405.097656 400.003906 404.667969 399.949219 404.304688 399.738281 C 404.265625 399.714844 399.855469 397.21875 395.863281 398.8125 C 393.199219 399.878906 391.210938 402.5625 389.957031 406.792969 C 389.800781 407.328125 389.355469 407.734375 388.808594 407.847656 C 388.753906 407.859375 383.058594 409.109375 380.980469 413.300781 C 379.742188 415.792969 380.007812 418.929688 381.757812 422.628906 C 382.015625 423.171875 381.925781 423.8125 381.535156 424.269531 C 381.140625 424.726562 380.519531 424.90625 379.941406 424.730469 C 378.96875 424.445312 375.882812 423.90625 374.578125 425.171875 C 373.453125 426.269531 373.789062 428.628906 374.269531 430.421875 C 374.46875 431.15625 374.085938 431.925781 373.382812 432.21875 C 371.277344 433.09375 366.914062 435.609375 366.871094 437.796875 C 366.851562 438.953125 368.199219 440.261719 370.691406 441.507812 C 372.753906 440.378906 374.257812 439.714844 375.121094 441.011719 C 376.027344 442.382812 374.675781 443.4375 372.964844 444.777344 C 370.957031 446.351562 369.707031 450.757812 371.117188 454.085938 C 372.582031 457.546875 376.390625 458.957031 382.121094 458.164062 C 382.953125 458.050781 383.71875 458.628906 383.835938 459.460938 C 383.949219 460.292969 383.367188 461.058594 382.539062 461.171875 C 381.335938 461.335938 380.226562 461.414062 379.210938 461.414062 Z M 379.21875 461.414062 " fill-opacity="1" fill-rule="nonzero"/><path fill="#0f844f" d="M 397.691406 443.328125 C 401.0625 449.386719 410.277344 464.34375 407.285156 475.984375 C 404.292969 487.625 397.566406 511.289062 397.566406 511.289062 C 397.566406 511.289062 402.78125 517.214844 413.363281 519.902344 C 423.945312 522.589844 429.960938 519.371094 429.960938 519.371094 C 429.960938 519.371094 438.808594 482.5 449.015625 474.398438 C 459.222656 466.296875 465.9375 461.796875 465.9375 461.796875 L 461.761719 452.222656 C 461.761719 452.222656 441.042969 464.890625 437.351562 468.605469 C 433.660156 472.320312 428.792969 470.933594 431.503906 465.460938 C 434.214844 459.988281 446.394531 437.484375 446.394531 437.484375 L 435.75 433.300781 C 435.75 433.300781 426.671875 447.808594 421.855469 453.175781 C 417.035156 458.539062 414.703125 448.835938 413.746094 446.425781 C 412.792969 444.015625 410.332031 438.21875 410.332031 438.21875 Z M 397.691406 443.328125 " fill-opacity="1" fill-rule="nonzero"/><path fill="#662520" d="M 419.136719 456.292969 C 418.890625 456.292969 418.644531 456.265625 418.394531 456.214844 C 415.261719 455.574219 413.742188 451.097656 412.738281 448.136719 C 412.578125 447.664062 412.441406 447.257812 412.332031 446.988281 C 411.394531 444.621094 408.953125 438.875 408.929688 438.816406 C 408.601562 438.042969 408.964844 437.152344 409.738281 436.824219 C 410.511719 436.496094 411.402344 436.859375 411.730469 437.632812 C 411.832031 437.867188 414.207031 443.472656 415.160156 445.867188 C 415.292969 446.210938 415.441406 446.652344 415.617188 447.160156 C 416.15625 448.746094 417.582031 452.949219 419.007812 453.238281 C 419.410156 453.320312 420.03125 452.929688 420.722656 452.160156 C 425.398438 446.957031 434.367188 432.640625 434.460938 432.496094 C 434.90625 431.785156 435.839844 431.566406 436.554688 432.011719 C 437.265625 432.460938 437.480469 433.394531 437.035156 434.105469 C 436.660156 434.703125 427.835938 448.789062 422.980469 454.191406 C 421.730469 455.589844 420.433594 456.289062 419.132812 456.289062 Z M 419.136719 456.292969 " fill-opacity="1" fill-rule="nonzero"/><path fill="#662520" d="M 433.109375 472.203125 C 432.222656 472.203125 431.402344 471.972656 430.722656 471.484375 C 430.046875 471.003906 428.007812 469.09375 430.140625 464.789062 C 432.835938 459.351562 444.558594 437.683594 445.054688 436.765625 C 445.453125 436.023438 446.375 435.75 447.117188 436.148438 C 447.855469 436.546875 448.128906 437.46875 447.730469 438.207031 C 447.609375 438.433594 435.535156 460.746094 432.863281 466.136719 C 432.074219 467.726562 432.117188 468.746094 432.492188 469.011719 C 433.042969 469.40625 434.710938 469.105469 436.269531 467.535156 C 440.046875 463.734375 460.113281 451.449219 460.96875 450.925781 C 461.683594 450.488281 462.617188 450.714844 463.058594 451.429688 C 463.496094 452.144531 463.269531 453.078125 462.554688 453.519531 C 455.441406 457.867188 441.246094 466.839844 438.429688 469.675781 C 436.800781 471.3125 434.835938 472.203125 433.109375 472.203125 Z M 433.109375 472.203125 " fill-opacity="1" fill-rule="nonzero"/><path fill="#662520" d="M 421.496094 522.496094 C 419.085938 522.496094 416.238281 522.203125 412.988281 521.375 C 402.074219 518.605469 396.648438 512.550781 396.421875 512.296875 C 396.082031 511.90625 395.960938 511.375 396.101562 510.878906 C 396.167969 510.640625 402.859375 487.097656 405.8125 475.609375 C 408.4375 465.40625 400.835938 451.984375 397.1875 445.539062 C 396.886719 445.003906 396.609375 444.515625 396.363281 444.074219 C 395.953125 443.339844 396.21875 442.414062 396.953125 442.007812 C 397.6875 441.597656 398.613281 441.863281 399.019531 442.597656 C 399.265625 443.03125 399.539062 443.519531 399.835938 444.042969 C 403.683594 450.839844 411.6875 464.976562 408.757812 476.367188 C 406.117188 486.644531 400.503906 506.503906 399.269531 510.855469 C 400.835938 512.34375 405.675781 516.386719 413.738281 518.4375 C 418.859375 519.738281 422.808594 519.558594 425.21875 519.179688 C 426.851562 518.921875 428.019531 518.539062 428.667969 518.289062 C 429.269531 515.890625 431.316406 507.96875 434.226562 499.4375 C 438.953125 485.585938 443.609375 476.757812 448.074219 473.214844 C 458.210938 465.167969 465.023438 460.585938 465.089844 460.539062 C 465.789062 460.070312 466.734375 460.261719 467.199219 460.957031 C 467.664062 461.652344 467.480469 462.597656 466.785156 463.0625 C 466.714844 463.105469 459.996094 467.628906 449.964844 475.589844 C 446.023438 478.722656 441.578125 487.300781 437.109375 500.394531 C 433.683594 510.441406 431.464844 519.636719 431.441406 519.730469 C 431.339844 520.152344 431.066406 520.507812 430.683594 520.714844 C 430.492188 520.816406 427.257812 522.492188 421.503906 522.492188 Z M 421.496094 522.496094 " fill-opacity="1" fill-rule="nonzero"/><path fill="#9b9704" d="M 388.527344 483.253906 C 341.515625 483.253906 303.40625 482.644531 303.40625 493.550781 C 303.40625 493.777344 303.433594 494.003906 303.460938 494.230469 C 307.273438 540.597656 322.644531 604.273438 388.527344 604.273438 C 454.40625 604.273438 473.644531 551.113281 473.644531 493.550781 C 473.644531 482.644531 435.535156 483.253906 388.527344 483.253906 Z M 388.527344 483.253906 " fill-opacity="1" fill-rule="nonzero"/><path fill="#f49f83" d="M 133.847656 519.714844 C 123.714844 568.667969 101.761719 617.957031 128.445312 646.992188 C 155.128906 676.023438 210.183594 661.84375 295.640625 611.878906 C 319.621094 623.359375 339.886719 596.6875 338.535156 586.898438 C 350.019531 573.730469 348.332031 565.96875 345.628906 561.578125 C 352.046875 547.398438 340.5625 541.660156 340.5625 541.660156 C 342.589844 527.816406 320.753906 524.53125 306.503906 533.769531 C 292.257812 543.007812 276.386719 559.550781 276.386719 559.550781 C 276.386719 559.550781 234.503906 566.304688 212.210938 572.042969 L 217.953125 557.527344 C 217.953125 557.527344 167.289062 522.417969 133.847656 519.714844 Z M 133.847656 519.714844 " fill-opacity="1" fill-rule="nonzero"/><path fill="#f49f83" d="M 636.449219 525.117188 C 605.375 528.15625 565.515625 540.984375 550.65625 557.527344 L 555.382812 570.355469 C 555.382812 570.355469 525.660156 564.277344 499.988281 563.605469 C 493.570312 544.359375 469.589844 530.519531 454.054688 528.15625 C 438.515625 525.792969 439.867188 541.660156 439.867188 541.660156 C 428.382812 546.046875 432.773438 560.226562 432.773438 560.226562 C 425.34375 567.992188 435.136719 584.871094 435.136719 584.871094 C 429.394531 591.625 439.867188 600.738281 445.609375 606.480469 C 451.351562 612.21875 468.914062 619.644531 476.007812 611.542969 C 476.007812 611.542969 559.773438 671.296875 613.140625 664.207031 C 666.511719 657.121094 656.039062 584.871094 636.449219 525.117188 Z M 636.449219 525.117188 " fill-opacity="1" fill-rule="nonzero"/><path fill="#662520" d="M 379.527344 205.28125 C 379.085938 205.28125 378.636719 205.230469 378.179688 205.121094 C 376.417969 204.710938 374.835938 203.550781 373.945312 202.019531 C 372.652344 199.792969 372.503906 196.828125 373.53125 193.667969 C 373.988281 192.261719 374.609375 190.949219 375.207031 189.675781 C 375.664062 188.707031 376.09375 187.796875 376.453125 186.851562 C 379.148438 179.804688 377.632812 171.457031 376.417969 164.75 C 376.269531 163.921875 376.816406 163.132812 377.640625 162.984375 C 378.464844 162.835938 379.257812 163.382812 379.40625 164.203125 C 380.691406 171.285156 382.289062 180.097656 379.292969 187.933594 C 378.890625 188.984375 378.414062 189.996094 377.953125 190.96875 C 377.371094 192.210938 376.816406 193.382812 376.421875 194.605469 C 375.980469 195.953125 375.417969 198.507812 376.570312 200.492188 C 377.039062 201.300781 377.921875 201.9375 378.867188 202.160156 C 379.351562 202.273438 380.0625 202.324219 380.679688 201.910156 C 381.378906 201.445312 382.320312 201.636719 382.789062 202.335938 C 383.253906 203.035156 383.0625 203.976562 382.363281 204.445312 C 381.53125 204.996094 380.554688 205.28125 379.523438 205.28125 Z M 379.527344 205.28125 " fill-opacity="1" fill-rule="nonzero"/><path fill="#662520" d="M 459.625 64.835938 C 459.429688 64.835938 459.226562 64.796875 459.035156 64.714844 C 436.207031 55.070312 410.699219 49.898438 385.28125 49.753906 C 359.855469 49.613281 334.300781 54.5 311.363281 63.890625 C 310.585938 64.207031 309.699219 63.835938 309.378906 63.058594 C 309.0625 62.285156 309.433594 61.394531 310.210938 61.078125 C 333.515625 51.539062 359.476562 46.570312 385.296875 46.714844 C 411.113281 46.863281 437.019531 52.117188 460.21875 61.914062 C 460.992188 62.242188 461.351562 63.132812 461.023438 63.90625 C 460.777344 64.488281 460.21875 64.835938 459.621094 64.835938 Z M 459.625 64.835938 " fill-opacity="1" fill-rule="nonzero"/><path fill="#662520" d="M 294.875 196.859375 C 294.601562 196.859375 294.324219 196.785156 294.070312 196.632812 C 293.359375 196.1875 293.144531 195.25 293.585938 194.539062 C 294.632812 192.855469 294.8125 190.675781 294.050781 188.847656 C 293.292969 187.015625 291.621094 185.605469 289.6875 185.160156 C 288.871094 184.972656 288.359375 184.15625 288.546875 183.335938 C 288.730469 182.515625 289.550781 182.011719 290.371094 182.195312 C 293.242188 182.855469 295.726562 184.957031 296.859375 187.679688 C 297.992188 190.398438 297.722656 193.644531 296.164062 196.140625 C 295.875 196.605469 295.378906 196.859375 294.871094 196.859375 Z M 294.875 196.859375 " fill-opacity="1" fill-rule="nonzero"/><path fill="#662520" d="M 471.664062 195.8125 C 471.292969 195.8125 470.917969 195.675781 470.625 195.398438 C 468.460938 193.378906 467.261719 190.402344 467.410156 187.445312 C 467.558594 184.488281 469.050781 181.648438 471.402344 179.851562 C 472.070312 179.34375 473.023438 179.472656 473.53125 180.136719 C 474.042969 180.800781 473.914062 181.757812 473.25 182.265625 C 471.597656 183.527344 470.550781 185.519531 470.445312 187.597656 C 470.339844 189.671875 471.183594 191.761719 472.703125 193.179688 C 473.316406 193.753906 473.351562 194.71875 472.777344 195.328125 C 472.476562 195.648438 472.074219 195.808594 471.664062 195.808594 Z M 471.664062 195.8125 " fill-opacity="1" fill-rule="nonzero"/><path fill="#662520" d="M 379.898438 281.308594 C 371.121094 281.308594 362.34375 279.457031 354.441406 275.742188 C 353.683594 275.382812 353.359375 274.480469 353.710938 273.71875 C 354.070312 272.960938 354.976562 272.636719 355.734375 272.988281 C 371.457031 280.378906 390.800781 279.996094 406.214844 271.980469 C 406.960938 271.59375 407.875 271.882812 408.265625 272.628906 C 408.652344 273.375 408.363281 274.289062 407.617188 274.679688 C 399.132812 279.089844 389.511719 281.308594 379.898438 281.308594 Z M 379.898438 281.308594 " fill-opacity="1" fill-rule="nonzero"/><path fill="#662520" d="M 348.914062 356.542969 C 347.015625 356.542969 345.164062 356.363281 343.371094 356 C 335.707031 354.445312 328.519531 349.21875 324.152344 342.019531 C 320.199219 335.496094 318.371094 327.261719 319.015625 318.832031 C 319.082031 317.996094 319.808594 317.367188 320.648438 317.433594 C 321.484375 317.496094 322.109375 318.226562 322.050781 319.0625 C 321.457031 326.863281 323.128906 334.457031 326.757812 340.441406 C 330.695312 346.929688 337.132812 351.632812 343.976562 353.023438 C 350.839844 354.414062 357.378906 352.550781 361.660156 350.742188 C 367.804688 348.148438 373.238281 344.066406 377.285156 340.796875 C 377.9375 340.269531 378.894531 340.371094 379.421875 341.023438 C 379.949219 341.675781 379.847656 342.632812 379.195312 343.160156 C 374.996094 346.550781 369.339844 350.792969 362.84375 353.539062 C 358.132812 355.53125 353.40625 356.539062 348.917969 356.539062 Z M 348.914062 356.542969 " fill-opacity="1" fill-rule="nonzero"/><path fill="#662520" d="M 413.414062 357.398438 C 411.945312 357.398438 410.492188 357.257812 409.074219 356.976562 C 399.582031 355.09375 392.328125 347.207031 387.03125 341.453125 C 386.464844 340.835938 386.507812 339.871094 387.125 339.304688 C 387.742188 338.738281 388.703125 338.777344 389.273438 339.394531 C 395.769531 346.457031 401.789062 352.433594 409.664062 353.996094 C 416.957031 355.445312 425.34375 352.507812 431.546875 346.332031 C 436.597656 341.304688 440.445312 334.230469 443.3125 324.707031 C 443.554688 323.902344 444.402344 323.449219 445.207031 323.691406 C 446.011719 323.933594 446.46875 324.78125 446.222656 325.585938 C 443.207031 335.601562 439.109375 343.09375 433.691406 348.484375 C 427.964844 354.1875 420.507812 357.398438 413.414062 357.398438 Z M 413.414062 357.398438 " fill-opacity="1" fill-rule="nonzero"/><path fill="#662520" d="M 237.742188 537.105469 C 236.976562 537.105469 236.320312 536.527344 236.234375 535.75 L 224.875 432.363281 C 224.78125 431.53125 225.382812 430.78125 226.21875 430.691406 C 227.054688 430.597656 227.800781 431.199219 227.894531 432.035156 L 239.253906 535.421875 C 239.34375 536.253906 238.742188 537.003906 237.90625 537.09375 C 237.851562 537.101562 237.796875 537.105469 237.738281 537.105469 Z M 237.742188 537.105469 " fill-opacity="1" fill-rule="nonzero"/><path fill="#662520" d="M 230.765625 472.726562 C 230.496094 472.726562 230.222656 472.652344 229.980469 472.503906 C 229.261719 472.070312 229.03125 471.136719 229.46875 470.417969 L 246.5 442.277344 C 246.9375 441.558594 247.867188 441.328125 248.589844 441.761719 C 249.308594 442.199219 249.539062 443.128906 249.101562 443.851562 L 232.066406 471.992188 C 231.78125 472.464844 231.28125 472.726562 230.765625 472.726562 Z M 230.765625 472.726562 " fill-opacity="1" fill-rule="nonzero"/><path fill="#662520" d="M 226.292969 541.371094 C 225.972656 541.371094 225.65625 541.273438 225.382812 541.070312 C 201.4375 523.183594 173.515625 509.65625 144.632812 501.949219 C 143.824219 501.730469 143.339844 500.898438 143.554688 500.085938 C 143.773438 499.277344 144.605469 498.792969 145.417969 499.011719 C 174.667969 506.816406 202.949219 520.515625 227.199219 538.632812 C 227.871094 539.132812 228.011719 540.085938 227.507812 540.757812 C 227.210938 541.15625 226.75 541.371094 226.289062 541.371094 Z M 226.292969 541.371094 " fill-opacity="1" fill-rule="nonzero"/><path fill="#662520" d="M 523.550781 532.699219 C 523.421875 532.699219 523.285156 532.683594 523.152344 532.644531 C 522.339844 532.425781 521.863281 531.589844 522.082031 530.78125 C 530.507812 499.902344 535.566406 468.035156 537.121094 436.066406 C 537.160156 435.226562 537.875 434.578125 538.710938 434.621094 C 539.550781 434.660156 540.199219 435.371094 540.15625 436.210938 C 538.59375 468.398438 533.5 500.484375 525.019531 531.578125 C 524.832031 532.253906 524.222656 532.699219 523.550781 532.699219 Z M 523.550781 532.699219 " fill-opacity="1" fill-rule="nonzero"/><path fill="#662520" d="M 536.878906 471.09375 C 536.304688 471.09375 535.753906 470.765625 535.496094 470.214844 C 530.777344 460.019531 525.25 450.097656 519.066406 440.71875 C 518.605469 440.023438 518.800781 439.078125 519.5 438.617188 C 520.203125 438.15625 521.144531 438.351562 521.605469 439.050781 C 527.871094 448.550781 533.472656 458.609375 538.253906 468.9375 C 538.605469 469.699219 538.273438 470.601562 537.511719 470.953125 C 537.304688 471.046875 537.089844 471.09375 536.875 471.09375 Z M 536.878906 471.09375 " fill-opacity="1" fill-rule="nonzero"/><path fill="#662520" d="M 541.507812 540.890625 C 541.066406 540.890625 540.628906 540.699219 540.328125 540.328125 C 539.800781 539.679688 539.898438 538.722656 540.546875 538.191406 C 562.609375 520.214844 588.835938 506.941406 616.386719 499.808594 C 617.199219 499.597656 618.03125 500.085938 618.238281 500.898438 C 618.449219 501.710938 617.960938 502.539062 617.148438 502.746094 C 590.015625 509.773438 564.191406 522.84375 542.464844 540.550781 C 542.183594 540.777344 541.84375 540.890625 541.503906 540.890625 Z M 541.507812 540.890625 " fill-opacity="1" fill-rule="nonzero"/><path fill="#662520" d="M 464.167969 616.738281 C 463.542969 616.738281 462.953125 616.351562 462.734375 615.726562 C 462.453125 614.9375 462.867188 614.066406 463.660156 613.789062 C 478.800781 608.429688 490.175781 593.5 491.320312 577.484375 C 491.378906 576.648438 492.113281 576.015625 492.945312 576.078125 C 493.78125 576.140625 494.414062 576.863281 494.351562 577.703125 C 493.125 594.886719 480.917969 610.902344 464.671875 616.652344 C 464.503906 616.710938 464.335938 616.738281 464.167969 616.738281 Z M 464.167969 616.738281 " fill-opacity="1" fill-rule="nonzero"/><path fill="#662520" d="M 455.304688 599.34375 C 455.082031 599.34375 454.855469 599.292969 454.640625 599.1875 C 446.578125 595.246094 439.113281 590.199219 432.453125 584.1875 C 431.832031 583.625 431.78125 582.664062 432.34375 582.039062 C 432.910156 581.414062 433.867188 581.367188 434.492188 581.933594 C 440.945312 587.753906 448.171875 592.640625 455.980469 596.457031 C 456.734375 596.824219 457.050781 597.734375 456.679688 598.488281 C 456.417969 599.027344 455.878906 599.339844 455.3125 599.339844 Z M 455.304688 599.34375 " fill-opacity="1" fill-rule="nonzero"/><path fill="#662520" d="M 464.371094 579.917969 C 464.15625 579.917969 463.9375 579.871094 463.726562 579.769531 C 451.847656 574.207031 440.453125 567.460938 429.863281 559.726562 C 429.183594 559.230469 429.039062 558.28125 429.53125 557.605469 C 430.023438 556.925781 430.976562 556.777344 431.65625 557.273438 C 442.089844 564.894531 453.3125 571.539062 465.015625 577.019531 C 465.777344 577.375 466.105469 578.277344 465.75 579.039062 C 465.488281 579.589844 464.941406 579.914062 464.371094 579.914062 Z M 464.371094 579.917969 " fill-opacity="1" fill-rule="nonzero"/><path fill="#662520" d="M 473.410156 562.199219 C 473.234375 562.199219 473.054688 562.167969 472.882812 562.105469 C 459.554688 557.171875 447.265625 550.054688 436.359375 540.949219 C 435.710938 540.414062 435.628906 539.453125 436.164062 538.808594 C 436.703125 538.164062 437.660156 538.082031 438.304688 538.617188 C 448.945312 547.5 460.9375 554.445312 473.9375 559.253906 C 474.726562 559.546875 475.125 560.421875 474.835938 561.207031 C 474.609375 561.820312 474.027344 562.199219 473.410156 562.199219 Z M 473.410156 562.199219 " fill-opacity="1" fill-rule="nonzero"/><path fill="#662520" d="M 149.640625 591.496094 C 149.101562 591.496094 148.582031 591.210938 148.304688 590.703125 C 147.902344 589.96875 148.175781 589.042969 148.914062 588.644531 C 168.84375 577.832031 191.339844 571.332031 213.96875 569.855469 C 214.804688 569.796875 215.527344 570.4375 215.582031 571.273438 C 215.636719 572.109375 215 572.832031 214.164062 572.886719 C 191.972656 574.335938 169.910156 580.710938 150.363281 591.3125 C 150.136719 591.4375 149.886719 591.5 149.640625 591.5 Z M 149.640625 591.496094 " fill-opacity="1" fill-rule="nonzero"/><path fill="#662520" d="M 300.019531 614.9375 C 299.636719 614.9375 299.257812 614.796875 298.960938 614.511719 C 286.714844 602.613281 278 586.871094 274.417969 570.179688 C 274.242188 569.359375 274.765625 568.554688 275.585938 568.378906 C 276.40625 568.203125 277.214844 568.726562 277.390625 569.546875 C 280.84375 585.652344 289.257812 600.851562 301.078125 612.332031 C 301.679688 612.917969 301.691406 613.878906 301.109375 614.480469 C 300.8125 614.789062 300.414062 614.9375 300.015625 614.9375 Z M 300.019531 614.9375 " fill-opacity="1" fill-rule="nonzero"/><path fill="#662520" d="M 307.46875 560.382812 C 306.988281 560.382812 306.515625 560.15625 306.222656 559.734375 C 305.742188 559.046875 305.90625 558.101562 306.597656 557.617188 C 317.136719 550.25 328.726562 544.628906 341.042969 540.914062 C 341.847656 540.671875 342.695312 541.125 342.9375 541.929688 C 343.179688 542.734375 342.722656 543.582031 341.921875 543.824219 C 329.917969 547.449219 318.617188 552.929688 308.335938 560.113281 C 308.074219 560.296875 307.769531 560.386719 307.46875 560.386719 Z M 307.46875 560.382812 " fill-opacity="1" fill-rule="nonzero"/><path fill="#662520" d="M 314.277344 580.820312 C 313.792969 580.820312 313.316406 580.589844 313.023438 580.164062 C 312.546875 579.472656 312.722656 578.527344 313.417969 578.050781 C 324.328125 570.554688 335.808594 563.632812 347.535156 557.484375 C 348.277344 557.089844 349.195312 557.378906 349.589844 558.121094 C 349.980469 558.863281 349.691406 559.78125 348.949219 560.171875 C 337.332031 566.269531 325.953125 573.128906 315.140625 580.554688 C 314.875 580.734375 314.574219 580.820312 314.28125 580.820312 Z M 314.277344 580.820312 " fill-opacity="1" fill-rule="nonzero"/><path fill="#662520" d="M 321.515625 602.074219 C 321.078125 602.074219 320.644531 601.882812 320.34375 601.523438 C 319.808594 600.875 319.902344 599.917969 320.546875 599.382812 C 327.109375 593.960938 333.9375 588.699219 340.851562 583.730469 C 341.53125 583.242188 342.480469 583.398438 342.972656 584.078125 C 343.460938 584.761719 343.304688 585.710938 342.625 586.199219 C 335.765625 591.125 328.992188 596.347656 322.480469 601.726562 C 322.199219 601.957031 321.855469 602.074219 321.515625 602.074219 Z M 321.515625 602.074219 " fill-opacity="1" fill-rule="nonzero"/><path fill="#662520" d="M 618.996094 590.8125 C 618.667969 590.8125 618.335938 590.707031 618.058594 590.488281 C 599.933594 576.320312 576.378906 569.246094 553.441406 571.082031 C 552.605469 571.148438 551.871094 570.523438 551.808594 569.6875 C 551.738281 568.851562 552.363281 568.117188 553.203125 568.054688 C 576.894531 566.164062 601.214844 573.464844 619.933594 588.097656 C 620.597656 588.613281 620.710938 589.570312 620.195312 590.230469 C 619.894531 590.613281 619.449219 590.8125 618.996094 590.8125 Z M 618.996094 590.8125 " fill-opacity="1" fill-rule="nonzero"/><path fill="#662520" d="M 361.636719 136.789062 C 362.167969 142.167969 353.03125 142.683594 341.804688 143.785156 C 330.582031 144.890625 321.519531 146.164062 320.988281 140.785156 C 320.457031 135.40625 328.972656 128.570312 340.199219 127.46875 C 351.421875 126.363281 361.105469 131.40625 361.636719 136.789062 Z M 361.636719 136.789062 " fill-opacity="1" fill-rule="nonzero"/><path fill="#662520" d="M 355.171875 172.335938 C 355.179688 173.089844 355.125 173.839844 355.007812 174.578125 C 354.894531 175.320312 354.722656 176.039062 354.492188 176.734375 C 354.261719 177.433594 353.976562 178.097656 353.640625 178.726562 C 353.300781 179.355469 352.917969 179.9375 352.488281 180.472656 C 352.054688 181.011719 351.585938 181.488281 351.078125 181.910156 C 350.570312 182.332031 350.03125 182.691406 349.464844 182.984375 C 348.902344 183.273438 348.316406 183.496094 347.714844 183.648438 C 347.113281 183.800781 346.503906 183.875 345.890625 183.878906 C 345.277344 183.886719 344.667969 183.816406 344.0625 183.671875 C 343.460938 183.527344 342.871094 183.316406 342.304688 183.03125 C 341.734375 182.746094 341.191406 182.394531 340.679688 181.980469 C 340.164062 181.566406 339.6875 181.09375 339.25 180.5625 C 338.8125 180.03125 338.421875 179.453125 338.074219 178.828125 C 337.730469 178.203125 337.4375 177.546875 337.195312 176.851562 C 336.957031 176.15625 336.773438 175.4375 336.648438 174.699219 C 336.523438 173.960938 336.460938 173.214844 336.453125 172.460938 C 336.449219 171.707031 336.503906 170.960938 336.621094 170.21875 C 336.734375 169.480469 336.90625 168.761719 337.136719 168.0625 C 337.367188 167.363281 337.652344 166.699219 337.988281 166.070312 C 338.328125 165.441406 338.710938 164.859375 339.140625 164.324219 C 339.574219 163.789062 340.042969 163.308594 340.550781 162.886719 C 341.058594 162.464844 341.597656 162.109375 342.164062 161.816406 C 342.726562 161.523438 343.3125 161.300781 343.914062 161.148438 C 344.515625 161 345.125 160.921875 345.738281 160.917969 C 346.351562 160.914062 346.960938 160.984375 347.566406 161.125 C 348.167969 161.269531 348.757812 161.484375 349.324219 161.769531 C 349.894531 162.050781 350.4375 162.402344 350.949219 162.816406 C 351.464844 163.234375 351.941406 163.707031 352.378906 164.238281 C 352.816406 164.765625 353.207031 165.34375 353.554688 165.96875 C 353.898438 166.59375 354.191406 167.253906 354.433594 167.949219 C 354.671875 168.644531 354.855469 169.359375 354.980469 170.097656 C 355.105469 170.835938 355.167969 171.582031 355.171875 172.335938 Z M 355.171875 172.335938 " fill-opacity="1" fill-rule="nonzero"/><path fill="#662520" d="M 399.6875 136.789062 C 399.160156 142.167969 408.296875 142.683594 419.519531 143.785156 C 430.742188 144.890625 439.804688 146.164062 440.335938 140.785156 C 440.867188 135.40625 432.351562 128.570312 421.128906 127.46875 C 409.902344 126.363281 400.21875 131.40625 399.6875 136.789062 Z M 399.6875 136.789062 " fill-opacity="1" fill-rule="nonzero"/><path fill="#662520" d="M 415.605469 160.929688 C 416.21875 160.9375 416.828125 161.011719 417.429688 161.164062 C 418.03125 161.316406 418.617188 161.535156 419.179688 161.828125 C 419.746094 162.121094 420.285156 162.480469 420.792969 162.902344 C 421.300781 163.324219 421.769531 163.800781 422.203125 164.339844 C 422.632812 164.875 423.015625 165.457031 423.355469 166.085938 C 423.691406 166.714844 423.976562 167.378906 424.207031 168.078125 C 424.4375 168.773438 424.609375 169.492188 424.722656 170.234375 C 424.839844 170.972656 424.894531 171.722656 424.890625 172.476562 C 424.882812 173.230469 424.820312 173.976562 424.695312 174.714844 C 424.570312 175.453125 424.386719 176.167969 424.148438 176.863281 C 423.90625 177.558594 423.613281 178.21875 423.269531 178.84375 C 422.921875 179.46875 422.53125 180.046875 422.09375 180.574219 C 421.65625 181.105469 421.179688 181.578125 420.664062 181.992188 C 420.152344 182.410156 419.609375 182.757812 419.039062 183.042969 C 418.472656 183.328125 417.882812 183.542969 417.28125 183.6875 C 416.675781 183.828125 416.066406 183.898438 415.453125 183.894531 C 414.839844 183.890625 414.230469 183.8125 413.628906 183.660156 C 413.027344 183.511719 412.441406 183.289062 411.878906 182.996094 C 411.3125 182.703125 410.773438 182.347656 410.265625 181.925781 C 409.757812 181.503906 409.289062 181.023438 408.859375 180.488281 C 408.425781 179.953125 408.042969 179.371094 407.707031 178.742188 C 407.367188 178.109375 407.085938 177.449219 406.851562 176.75 C 406.621094 176.050781 406.449219 175.332031 406.335938 174.59375 C 406.21875 173.851562 406.164062 173.105469 406.171875 172.351562 C 406.175781 171.597656 406.238281 170.851562 406.363281 170.113281 C 406.488281 169.375 406.671875 168.65625 406.910156 167.960938 C 407.152344 167.265625 407.445312 166.605469 407.789062 165.984375 C 408.136719 165.359375 408.527344 164.78125 408.964844 164.25 C 409.402344 163.71875 409.878906 163.246094 410.394531 162.832031 C 410.90625 162.417969 411.449219 162.066406 412.019531 161.78125 C 412.589844 161.496094 413.175781 161.28125 413.777344 161.140625 C 414.382812 160.996094 414.992188 160.925781 415.605469 160.929688 Z M 415.605469 160.929688 " fill-opacity="1" fill-rule="nonzero"/><path fill="#f7d7b7" d="M 409.246094 225.636719 C 409.246094 237.957031 397.480469 247.945312 382.964844 247.945312 C 368.453125 247.945312 356.6875 237.957031 356.6875 225.636719 C 356.6875 213.3125 368.453125 219.484375 382.964844 219.484375 C 397.480469 219.484375 409.246094 213.308594 409.246094 225.636719 Z M 409.246094 225.636719 " fill-opacity="1" fill-rule="nonzero"/><path fill="#662520" d="M 307.5 403.386719 C 307.191406 403.386719 306.878906 403.292969 306.609375 403.101562 C 305.929688 402.613281 305.777344 401.660156 306.265625 400.980469 C 308.457031 397.945312 312.523438 396.585938 316.113281 397.433594 C 316.195312 395.914062 316.347656 394.371094 316.714844 392.84375 C 317.355469 390.195312 318.585938 388.011719 320.273438 386.523438 C 322.402344 384.648438 325.246094 383.949219 327.695312 384.695312 C 329.691406 385.304688 331.433594 386.847656 332.597656 389.039062 C 333.1875 390.144531 333.578125 391.292969 333.890625 392.445312 C 335.089844 391.855469 336.449219 391.597656 337.773438 391.742188 C 339.949219 391.972656 341.992188 393.289062 343.101562 395.171875 C 343.53125 395.894531 343.292969 396.824219 342.570312 397.25 C 341.847656 397.679688 340.914062 397.441406 340.488281 396.71875 C 339.851562 395.644531 338.6875 394.894531 337.449219 394.761719 C 336.207031 394.632812 334.910156 395.113281 334.0625 396.027344 C 333.683594 396.441406 333.101562 396.609375 332.558594 396.464844 C 332.015625 396.320312 331.59375 395.882812 331.46875 395.335938 C 331.085938 393.660156 330.6875 391.925781 329.914062 390.464844 C 329.140625 389.011719 328.011719 387.96875 326.8125 387.601562 C 325.382812 387.167969 323.601562 387.636719 322.28125 388.800781 C 320.742188 390.15625 320.011719 392.132812 319.667969 393.554688 C 319.199219 395.496094 319.128906 397.601562 319.058594 399.640625 C 319.042969 400.167969 318.753906 400.648438 318.296875 400.910156 C 317.835938 401.175781 317.277344 401.175781 316.8125 400.925781 C 314.183594 399.488281 310.476562 400.328125 308.726562 402.761719 C 308.425781 403.171875 307.960938 403.390625 307.492188 403.390625 Z M 307.5 403.386719 " fill-opacity="1" fill-rule="nonzero"/><path fill="#662520" d="M 384.988281 388.417969 C 384.269531 388.417969 383.628906 387.90625 383.496094 387.171875 C 383.242188 385.769531 382.464844 384.453125 381.351562 383.558594 C 380.242188 382.664062 378.792969 382.175781 377.367188 382.222656 C 376.527344 382.25 375.824219 381.597656 375.796875 380.753906 C 375.769531 379.917969 376.421875 379.214844 377.265625 379.1875 C 379.40625 379.113281 381.589844 379.84375 383.261719 381.191406 C 384.929688 382.539062 386.105469 384.519531 386.484375 386.625 C 386.632812 387.453125 386.085938 388.242188 385.257812 388.390625 C 385.167969 388.410156 385.078125 388.414062 384.984375 388.414062 Z M 384.988281 388.417969 " fill-opacity="1" fill-rule="nonzero"/><path fill="#662520" d="M 403.582031 426.578125 C 403.378906 426.578125 403.171875 426.539062 402.972656 426.449219 C 402.207031 426.113281 401.855469 425.214844 402.195312 424.449219 C 403.234375 422.085938 405.328125 420.207031 407.796875 419.429688 C 409.5 418.890625 411.351562 418.882812 413.066406 419.367188 C 413.1875 418.019531 413.417969 416.601562 413.90625 415.222656 C 414.761719 412.792969 416.289062 410.871094 418.222656 409.800781 C 421.050781 408.234375 424.742188 408.601562 427.207031 410.6875 C 429.667969 412.773438 430.636719 416.359375 429.554688 419.402344 C 429.273438 420.191406 428.402344 420.605469 427.613281 420.324219 C 426.824219 420.042969 426.40625 419.175781 426.691406 418.382812 C 427.347656 416.535156 426.738281 414.273438 425.242188 413.003906 C 423.746094 411.734375 421.414062 411.503906 419.695312 412.457031 C 418.414062 413.164062 417.378906 414.503906 416.773438 416.226562 C 416.152344 417.996094 416.035156 419.957031 415.996094 421.644531 C 415.988281 422.1875 415.6875 422.683594 415.210938 422.945312 C 414.734375 423.207031 414.15625 423.195312 413.691406 422.914062 C 412.214844 422.023438 410.351562 421.804688 408.707031 422.324219 C 407.066406 422.84375 405.667969 424.097656 404.976562 425.671875 C 404.726562 426.242188 404.167969 426.582031 403.582031 426.582031 Z M 403.582031 426.578125 " fill-opacity="1" fill-rule="nonzero"/><path fill="#662520" d="M 478.105469 461.851562 C 477.632812 461.851562 477.164062 461.632812 476.867188 461.214844 C 476.378906 460.535156 476.535156 459.585938 477.222656 459.097656 C 478.203125 458.394531 478.707031 457.035156 478.417969 455.859375 C 478.128906 454.6875 477.050781 453.714844 475.851562 453.550781 C 475.164062 453.453125 474.625 452.90625 474.550781 452.210938 C 474.472656 451.519531 474.875 450.867188 475.527344 450.621094 C 476.875 450.121094 478.269531 449.597656 479.355469 448.777344 C 480.390625 447.996094 481.035156 446.957031 481.089844 445.992188 C 481.171875 444.449219 479.769531 443.035156 478.339844 442.441406 C 476.546875 441.695312 474.433594 441.730469 472.390625 441.761719 C 471.679688 441.773438 471.082031 441.304688 470.898438 440.632812 C 470.71875 439.960938 471.019531 439.25 471.628906 438.910156 C 473.578125 437.832031 474.644531 435.300781 474.050781 433.15625 C 473.460938 431.007812 471.25 429.382812 469.023438 429.449219 C 468.183594 429.484375 467.484375 428.816406 467.457031 427.976562 C 467.429688 427.140625 468.085938 426.4375 468.929688 426.410156 C 472.554688 426.292969 476.019531 428.847656 476.984375 432.34375 C 477.589844 434.53125 477.160156 436.902344 475.980469 438.804688 C 477.164062 438.917969 478.359375 439.152344 479.515625 439.636719 C 482.375 440.828125 484.273438 443.507812 484.128906 446.15625 C 484.027344 448.027344 482.960938 449.867188 481.191406 451.199219 C 480.695312 451.578125 480.167969 451.898438 479.628906 452.179688 C 480.46875 452.976562 481.09375 453.996094 481.375 455.128906 C 481.960938 457.5 480.980469 460.144531 478.996094 461.566406 C 478.726562 461.757812 478.417969 461.851562 478.113281 461.851562 Z M 478.105469 461.851562 " fill-opacity="1" fill-rule="nonzero"/><path fill="#662520" d="M 473.648438 506.953125 C 473.578125 506.953125 473.503906 506.949219 473.429688 506.941406 C 473.164062 506.902344 446.175781 503.105469 412.003906 500.84375 C 354.949219 497.066406 322.070312 500.390625 304.535156 503.847656 C 303.710938 504.011719 302.914062 503.472656 302.75 502.652344 C 302.585938 501.828125 303.125 501.03125 303.945312 500.867188 C 321.660156 497.375 354.832031 494.015625 412.222656 497.816406 C 446.507812 500.085938 473.585938 503.894531 473.851562 503.933594 C 474.683594 504.050781 475.261719 504.820312 475.144531 505.652344 C 475.035156 506.410156 474.382812 506.957031 473.640625 506.957031 Z M 473.648438 506.953125 " fill-opacity="1" fill-rule="nonzero"/></svg>