<svg xmlns="http://www.w3.org/2000/svg" xmlns:xlink="http://www.w3.org/1999/xlink" width="1024" zoomAndPan="magnify" viewBox="0 0 768 767.999994" height="1024" preserveAspectRatio="xMidYMid meet" version="1.0"><defs><clipPath id="8bc919d3f4"><path d="M 49 164 L 718 164 L 718 747.980469 L 49 747.980469 Z M 49 164 " clip-rule="nonzero"/></clipPath><clipPath id="a809fe2eee"><path d="M 79 378 L 718 378 L 718 747.980469 L 79 747.980469 Z M 79 378 " clip-rule="nonzero"/></clipPath></defs><g clip-path="url(#8bc919d3f4)"><path fill="#b78c56" d="M 714.441406 676.832031 C 707.960938 656.074219 696.039062 638.058594 687.058594 618.566406 C 671.703125 588.003906 672.335938 557.464844 670.210938 514.988281 C 668.464844 475.894531 666.367188 436.703125 660.585938 398.039062 C 657.964844 380.28125 653.382812 362.964844 649.871094 345.390625 C 646.378906 327.710938 643.3125 309.925781 640.476562 292.097656 C 637.113281 272.605469 635.378906 252.480469 628.953125 233.804688 C 622.21875 215.183594 607.742188 200.691406 591.164062 192.535156 C 571.457031 182.003906 549.289062 179.300781 527.589844 178.347656 C 501.347656 177.40625 475.027344 178.5625 448.851562 175.824219 C 421.925781 173.363281 396.636719 166.203125 363.539062 164.566406 C 326.21875 163.167969 289.0625 168.902344 252.09375 173.6875 C 233.769531 176.132812 215.429688 178.617188 196.988281 179.71875 C 181.070312 180.589844 165.058594 181.210938 149.476562 185.160156 C 144.960938 186.597656 139.746094 186.945312 135.941406 190.128906 C 132.148438 192.9375 130.84375 198.324219 132.015625 203.015625 C 114.792969 243.503906 109.65625 288.859375 105.894531 332.898438 C 103.273438 358.839844 104.589844 385.035156 101.859375 410.949219 C 98.863281 442.09375 78.414062 507.140625 72.246094 550.277344 C 69.070312 571.867188 65.683594 593.523438 59.125 614.253906 C 54.230469 630.84375 46.621094 648.042969 49.859375 665.816406 C 53.421875 684.785156 68.789062 699.375 85.863281 703.351562 C 98.339844 706.210938 110.828125 701.414062 123.398438 702.867188 C 145.136719 704.167969 187.09375 723.835938 219.074219 726.308594 C 264.648438 730.703125 310.371094 724.507812 356.011719 726.160156 C 398.910156 726.820312 441.09375 737.003906 484.019531 737.472656 C 526.929688 738.117188 575.367188 730.972656 609.070312 739.125 C 626.617188 742.523438 644.210938 746.113281 662.066406 746.945312 C 672.324219 747.28125 683.226562 747.710938 692.488281 742.203125 C 716.09375 729.226562 721.660156 703.066406 714.441406 676.832031 Z M 714.441406 676.832031 " fill-opacity="1" fill-rule="nonzero"/></g><path fill="#a37748" d="M 689.277344 197.761719 C 681.519531 183.898438 679.328125 178.039062 678.761719 168.109375 C 678.425781 158.773438 679.3125 149.382812 677.390625 140.140625 C 675.523438 129.851562 671.261719 120.164062 666.582031 110.878906 C 661.472656 101.609375 655.0625 92.863281 646.859375 86.09375 C 637.679688 78.394531 626.777344 73.277344 615.578125 69.207031 C 583.796875 56.886719 549.140625 57.667969 515.597656 57.910156 C 496.898438 58.539062 462.027344 56.996094 454 55.222656 C 411.128906 48.828125 368.070312 40.886719 324.59375 41.238281 C 305.003906 42.03125 285.59375 45.386719 266.558594 49.941406 C 257.292969 52.265625 249.859375 54.28125 243.003906 55.894531 C 215.417969 56.242188 187.480469 54.199219 160.515625 61.121094 C 147.554688 64.597656 134.152344 69.300781 124.3125 78.757812 C 117.253906 86.148438 112.183594 95.257812 109.269531 105.023438 C 106.902344 112.761719 106.539062 120.917969 104.816406 128.800781 C 101.214844 143.015625 100.71875 144.320312 91.710938 157.632812 C 84.761719 168.257812 78.46875 180.605469 78.695312 193.582031 C 80.847656 222.9375 108.714844 238.023438 135.5625 239.609375 C 161.804688 240.28125 185.53125 226.363281 211.316406 223.515625 C 239.710938 218.558594 294.628906 222.226562 326.179688 228.042969 C 349.625 232.070312 373.582031 233.46875 397.214844 230.394531 C 425.902344 226.792969 440.21875 222.332031 470.308594 223.40625 C 494.574219 224.898438 503.605469 225.582031 526.191406 230.824219 C 540.28125 234.035156 553.683594 239.542969 567.664062 243.113281 C 600.976562 250.328125 647.023438 255.460938 678.925781 242.28125 C 700.351562 232.582031 700.472656 216.476562 689.277344 197.761719 Z M 689.277344 197.761719 " fill-opacity="1" fill-rule="nonzero"/><g clip-path="url(#a809fe2eee)"><path fill="#a37748" d="M 714.441406 676.832031 C 707.960938 656.074219 696.039062 638.058594 687.058594 618.566406 C 671.703125 588.003906 672.335938 557.464844 670.210938 514.988281 C 668.464844 475.894531 666.367188 436.703125 660.585938 398.039062 C 659.632812 391.566406 658.410156 385.144531 657.078125 378.75 C 657.050781 381.058594 657.039062 383.382812 657.050781 385.707031 C 656.863281 398.617188 654.011719 411.328125 656.796875 423.714844 C 659.160156 433.921875 661.945312 444.441406 659.726562 455.742188 C 657.265625 469.042969 657.859375 483.632812 657.777344 497.238281 C 657.144531 508.550781 659.808594 519.757812 659.054688 531.039062 C 658.289062 546.300781 658.839844 577.175781 660.34375 597.582031 C 661.890625 612.777344 671.328125 627.808594 671.019531 645.878906 C 671.488281 667.011719 665.371094 681.023438 652.761719 687.914062 C 642.71875 693.515625 633.472656 697.078125 620.148438 698.097656 C 606.019531 699.1875 598.988281 696.726562 592.117188 694.859375 C 583.515625 693.152344 574.964844 690.855469 566.292969 689.417969 C 547.984375 686.382812 533.0625 687.496094 523.570312 687.914062 C 513.714844 688.34375 504.15625 689.699219 494.746094 692.765625 C 484.851562 695.988281 475.511719 699.882812 465.210938 701.75 C 446.390625 705.175781 425.367188 705.847656 406.933594 700.003906 C 390.128906 694.683594 374.023438 689.3125 356.238281 692.84375 C 339.355469 696.191406 325.265625 697.238281 308.851562 702.15625 C 290.996094 707.5 273.210938 707.691406 254.78125 706.0625 C 236.902344 704.480469 218.832031 702.113281 201.167969 706.519531 C 192.28125 708.738281 185.546875 708.5625 176.296875 708.480469 C 167.761719 708.414062 159.101562 705.929688 151.695312 701.964844 C 144.824219 698.285156 136.597656 696.324219 128.921875 694.496094 C 120.871094 692.574219 112.265625 693.664062 104.253906 695.277344 C 95.796875 696.96875 87.433594 699.1875 79.019531 701.148438 C 81.238281 702.0625 83.523438 702.8125 85.820312 703.351562 C 98.296875 706.210938 110.785156 701.414062 123.355469 702.867188 C 145.09375 704.171875 187.050781 723.835938 219.035156 726.308594 C 264.609375 730.703125 310.328125 724.507812 355.96875 726.160156 C 398.867188 726.820312 441.054688 737.003906 483.980469 737.472656 C 526.890625 738.117188 575.328125 730.972656 609.03125 739.125 C 626.574219 742.523438 644.171875 746.113281 662.023438 746.945312 C 672.28125 747.28125 683.183594 747.710938 692.449219 742.203125 C 716.09375 729.226562 721.660156 703.066406 714.441406 676.832031 Z M 714.441406 676.832031 " fill-opacity="1" fill-rule="nonzero"/></g><path fill="#713d22" d="M 578.851562 111.914062 C 575.179688 104.902344 568.257812 100.535156 562.113281 95.886719 C 554.933594 91.898438 550.847656 69.449219 540.160156 61.992188 C 523.328125 49.753906 504.253906 53.960938 488.96875 48.855469 C 476.222656 45.507812 463.101562 35.273438 446.699219 29.992188 C 438.339844 27.492188 423.875 37.21875 415.296875 36.304688 C 413.132812 36.453125 385.625 26.792969 377.628906 24.578125 C 360.851562 19.890625 352.015625 22.1875 335.238281 28.097656 C 324.285156 32.625 319.269531 36.640625 310.410156 39.046875 C 299.453125 42.445312 282.273438 38.484375 271.167969 41.210938 C 257.683594 44.515625 243.378906 53.113281 233.941406 63.417969 C 224.128906 75.078125 225.203125 86.847656 214.074219 92.488281 C 210.902344 94.734375 207.433594 96.519531 203.910156 98.132812 C 202.203125 98.683594 200.589844 99.582031 199.703125 101.207031 C 196.785156 105.910156 201.597656 112.292969 206.960938 110.640625 C 207.566406 110.382812 208.160156 110.074219 208.75 109.820312 C 211.667969 110.007812 215.136719 108.4375 219.542969 109.121094 C 232.976562 111.527344 262.484375 113.929688 282.300781 113.097656 C 317.425781 112.867188 365.714844 105.976562 394.296875 109.28125 C 421.964844 113.703125 448.582031 123.46875 476.613281 125.96875 C 507.800781 129.003906 539.378906 131.273438 570.621094 127.792969 C 578.421875 126.785156 583.179688 119.046875 578.851562 111.914062 Z M 578.851562 111.914062 " fill-opacity="1" fill-rule="nonzero"/><path fill="#8f673c" d="M 597.777344 115.984375 C 582.535156 116.078125 567.398438 118.1875 552.378906 120.660156 C 536.207031 123.722656 498.902344 126.425781 483.574219 123.132812 C 454.09375 118.699219 425.566406 109.148438 395.777344 106.367188 C 363.175781 101.585938 330.425781 105.226562 298 109.589844 C 263.128906 112.507812 236.78125 104.042969 201.371094 101.597656 C 193.828125 100.816406 186.273438 100.160156 178.703125 99.824219 C 176.996094 99.8125 175.371094 100.507812 174.160156 101.703125 C 170.179688 105.480469 173.125 112.84375 178.703125 112.667969 C 216.078125 114.210938 244 121.253906 280.457031 123.09375 C 305.773438 123.335938 330.667969 116.925781 356.011719 116.832031 C 382.574219 116.84375 401.652344 119.359375 425.609375 124.03125 C 455.761719 130.535156 486.0625 139.65625 517.238281 137.265625 C 550.929688 135.640625 575.4375 127.21875 608.277344 129.058594 C 611.707031 129.136719 614.785156 126.074219 614.703125 122.636719 C 614.195312 114.039062 603.761719 116.375 597.777344 115.984375 Z M 597.777344 115.984375 " fill-opacity="1" fill-rule="nonzero"/><path fill="#e8bb84" d="M 610.375 447.117188 C 608.910156 423.914062 609.714844 400.671875 609.8125 377.460938 C 609.675781 347.191406 611.519531 311.992188 587.695312 288.550781 C 574.628906 275.046875 553.589844 274.402344 535.039062 270.5625 C 505.246094 263.628906 487.3125 268.800781 456.878906 267.621094 C 426.738281 266.4375 404.636719 262.929688 379.078125 261.707031 C 344.71875 260.070312 322 262.957031 301.199219 263.910156 C 284.960938 264.652344 256.609375 261.964844 236.1875 265.699219 C 223.589844 267.445312 211.128906 270.910156 200.308594 277.359375 C 190.855469 283.121094 183.339844 291.183594 176.914062 299.792969 C 162.25 324.488281 159.976562 353.652344 156.265625 381.21875 C 151.882812 421.511719 147.621094 446.242188 139.488281 490.535156 C 135.441406 517.511719 126.730469 544.113281 126.191406 571.4375 C 126.140625 598.953125 138.15625 629.554688 166.941406 640.691406 C 180.113281 646.65625 194.847656 648.203125 209.289062 648.925781 C 238.191406 650.378906 267.121094 646.871094 296.011719 648.6875 C 334.648438 650.21875 366.792969 659.246094 413.238281 664.859375 C 437.746094 667.761719 462.429688 664.335938 487.019531 664.59375 C 511.902344 664.09375 536.878906 670.195312 561.574219 665.15625 C 577.84375 661.609375 595.414062 655.726562 604.835938 641.914062 C 617.890625 622.382812 614.839844 596.9375 615.847656 574.78125 C 616.371094 532.140625 613.953125 489.597656 610.375 447.117188 Z M 610.375 447.117188 " fill-opacity="1" fill-rule="nonzero"/><path fill="#618f2f" d="M 378.488281 475.019531 C 377.964844 474.132812 377.976562 473.125 378.5 472.253906 C 379.550781 470.210938 380.664062 468.195312 381.847656 466.207031 C 384.699219 461.410156 388.007812 456.800781 392.320312 453.203125 C 395.9375 450.191406 399.835938 447.507812 403.9375 445.195312 C 406.734375 443.785156 409.71875 442.738281 412.742188 441.902344 C 417.835938 440.507812 423.066406 439.699219 428.308594 439.054688 C 437.304688 437.941406 446.78125 437.738281 455.332031 441.125 C 459.214844 442.722656 463.464844 444.65625 465.574219 448.5 C 466.933594 451.011719 465.28125 453.699219 463.855469 455.792969 C 461.742188 458.84375 459.1875 461.585938 456.488281 464.109375 C 449.804688 470.210938 442.332031 475.785156 433.660156 478.632812 C 430.179688 479.761719 426.65625 480.808594 423.054688 481.507812 C 420.054688 481.992188 417.003906 482.152344 413.964844 482.246094 C 406.421875 482.449219 398.800781 481.84375 391.5 479.871094 C 388.34375 479.023438 385.195312 478.027344 382.144531 476.875 C 381.164062 476.605469 379.078125 476.015625 378.488281 475.019531 Z M 378.488281 475.019531 " fill-opacity="1" fill-rule="nonzero"/><path fill="#557d2f" d="M 457.980469 449.546875 C 457.480469 446.875 449.226562 449.441406 447.414062 450.019531 C 442.667969 451.617188 438.109375 453.726562 433.203125 454.773438 C 428.632812 455.847656 424.035156 456.855469 419.410156 457.636719 C 413.859375 458.523438 408.277344 459.394531 402.96875 461.261719 C 398.761719 462.726562 394.78125 464.742188 390.949219 467 C 389.714844 467.722656 388.558594 468.558594 387.359375 469.335938 C 386.863281 469.617188 386.351562 469.941406 386.21875 470.53125 C 385.828125 471.820312 387.359375 473.019531 388.515625 472.292969 C 394.675781 468.195312 400.023438 465.292969 406.519531 463.414062 C 411.464844 461.949219 416.601562 461.277344 421.683594 460.390625 C 428.808594 458.992188 436.039062 457.714844 442.800781 455.027344 C 446.257812 453.699219 449.726562 452.34375 453.382812 451.699219 C 454.203125 451.578125 454.1875 451.550781 455.800781 451.496094 C 457.050781 451.710938 458.289062 451.011719 457.980469 449.546875 Z M 457.980469 449.546875 " fill-opacity="1" fill-rule="nonzero"/><path fill="#618f2f" d="M 382.640625 473.191406 C 383.234375 472.347656 383.300781 471.351562 382.855469 470.4375 C 381.984375 468.316406 381.054688 466.207031 380.0625 464.136719 C 377.65625 459.113281 374.777344 454.25 370.824219 450.3125 C 367.503906 447.023438 363.902344 444.011719 360.042969 441.378906 C 357.410156 439.742188 354.558594 438.4375 351.640625 437.363281 C 346.734375 435.550781 341.652344 434.300781 336.542969 433.238281 C 327.777344 431.371094 318.460938 430.402344 309.75 433.0625 C 305.796875 434.339844 301.441406 435.910156 299.035156 439.554688 C 297.492188 441.945312 298.890625 444.765625 300.125 446.957031 C 301.953125 450.179688 304.226562 453.109375 306.6875 455.847656 C 312.75 462.472656 319.660156 468.652344 327.96875 472.210938 C 331.300781 473.621094 334.6875 474.964844 338.183594 475.960938 C 341.101562 476.683594 344.085938 477.117188 347.070312 477.449219 C 354.492188 478.285156 362.046875 478.3125 369.398438 476.941406 C 372.585938 476.363281 375.757812 475.625 378.878906 474.722656 C 379.871094 474.5625 381.984375 474.132812 382.640625 473.191406 Z M 382.640625 473.191406 " fill-opacity="1" fill-rule="nonzero"/><path fill="#557d2f" d="M 306.445312 441.21875 C 307.171875 438.597656 315.089844 441.835938 316.808594 442.5625 C 321.339844 444.535156 325.667969 447.023438 330.414062 448.488281 C 334.824219 449.9375 339.273438 451.320312 343.761719 452.476562 C 349.152344 453.820312 354.585938 455.148438 359.667969 457.460938 C 363.6875 459.261719 367.449219 461.597656 371.027344 464.164062 C 372.183594 464.984375 373.257812 465.910156 374.375 466.785156 C 374.832031 467.105469 375.316406 467.46875 375.410156 468.074219 C 375.691406 469.390625 374.078125 470.453125 373.003906 469.644531 C 367.277344 465.050781 362.246094 461.71875 356.011719 459.316406 C 351.25 457.433594 346.25 456.347656 341.316406 455.042969 C 334.40625 453.066406 327.402344 451.1875 320.949219 447.9375 C 317.65625 446.324219 314.347656 444.683594 310.800781 443.746094 C 310.007812 443.554688 310.019531 443.53125 308.421875 443.339844 C 307.183594 443.449219 306.015625 442.644531 306.445312 441.21875 Z M 306.445312 441.21875 " fill-opacity="1" fill-rule="nonzero"/><path fill="#618f2f" d="M 383.070312 486.101562 C 382.910156 484.222656 382.265625 478 381.6875 476.148438 C 381.527344 475.625 380.207031 470.855469 378.460938 470.976562 C 376.714844 471.097656 377.144531 473.890625 376.835938 474.46875 C 376.859375 483.199219 373.351562 513.886719 371.953125 522.5625 C 370.582031 530.515625 369.574219 538.484375 368.3125 546.4375 C 367.53125 551.527344 366.710938 556.605469 366.347656 561.710938 C 366.242188 563.164062 366.160156 564.625 366.132812 566.089844 C 366.121094 566.734375 366.066406 567.421875 366.605469 568 C 367.734375 569.234375 370.3125 569.394531 372.4375 569.449219 C 374.214844 569.542969 376.136719 569.328125 376.539062 568.121094 C 376.996094 566.628906 376.875 565.109375 376.929688 563.605469 C 376.996094 560.339844 377.007812 557.0625 377.222656 553.800781 C 377.601562 547.257812 378.582031 540.742188 379.386719 534.226562 C 380.503906 523.867188 383.636719 496.5 383.070312 486.101562 Z M 383.070312 486.101562 " fill-opacity="1" fill-rule="nonzero"/><path fill="#713d22" d="M 483.65625 593.457031 C 482.515625 591.871094 480.808594 590.929688 479.433594 589.613281 C 475.054688 586.054688 469.5 584.375 465.761719 582.199219 C 462.898438 580.199219 459.742188 578.960938 456.609375 577.683594 C 456.367188 577.5625 455.828125 577.269531 455.679688 577.160156 C 454.578125 576.503906 453.503906 575.804688 452.414062 575.132812 C 451.472656 574.5 447.128906 572.097656 447.464844 572.230469 C 445.851562 570.699219 444.535156 568.792969 442.894531 567.3125 C 441.230469 565.648438 441.617188 566.398438 441.335938 565.285156 C 441.1875 564.464844 441.109375 564.023438 440.71875 563.296875 C 440.167969 562.289062 439.46875 562.207031 439.050781 561.914062 C 437.167969 560.597656 437.261719 562.328125 435.367188 560.179688 C 434.25 558.542969 433.527344 556.929688 431.9375 556.363281 C 430.085938 555.691406 428.136719 555.667969 426.226562 555.960938 C 426.050781 556.003906 425.824219 555.988281 425.660156 555.976562 C 424.4375 555.707031 425.675781 552.226562 423.550781 551.972656 C 422.367188 551.769531 421.183594 551.90625 420.027344 552.253906 C 419.960938 552.265625 419.921875 552.265625 419.894531 552.28125 C 419.855469 552.28125 419.828125 552.292969 419.757812 552.292969 C 417.824219 552.363281 417.636719 549.125 415.699219 549.246094 C 414.824219 549.5 414.074219 548.398438 411.960938 547.1875 C 411.25 546.691406 410.457031 546.53125 409.703125 546.625 C 409.527344 546.167969 409.355469 545.726562 409.167969 545.335938 C 407.914062 543.050781 405.484375 542.285156 403.265625 542.257812 C 402.835938 541.988281 402.445312 541.652344 402.039062 541.34375 C 400.453125 539.949219 398.519531 539.222656 396.570312 538.859375 C 395.964844 539.074219 394.070312 536.722656 392.226562 537.222656 C 390.574219 537.476562 389.082031 538.578125 387.953125 539.988281 C 386.957031 539.355469 386.03125 538.484375 384.886719 538.296875 C 383.609375 538.054688 382.320312 538.160156 381.054688 538.484375 C 380.867188 538.417969 380.691406 538.347656 380.519531 538.253906 C 381.527344 538.699219 378.890625 537.382812 378.5 537.328125 C 377.210938 537.03125 375.933594 537.34375 374.695312 537.773438 C 374.507812 537.570312 373.996094 537.046875 373.863281 536.832031 C 372.867188 535.59375 371.792969 534.332031 370.410156 533.699219 C 368.164062 532.53125 364.304688 533.996094 363.363281 534.023438 C 362.597656 533.957031 361.523438 533.539062 359.855469 533.3125 C 358.457031 533.378906 357.140625 533.996094 355.984375 534.910156 C 355.957031 534.882812 355.941406 534.871094 355.917969 534.84375 C 354.761719 533.621094 353.46875 532.371094 351.84375 532.167969 C 350.1875 531.699219 347.367188 533.015625 347.125 533.203125 C 347.082031 533.230469 347.058594 533.230469 347.015625 533.246094 C 345.914062 533.269531 344.8125 533.351562 343.855469 534.0625 C 342.136719 535.085938 340.027344 538.214844 339.515625 538.578125 C 338.828125 539.035156 337.015625 539.410156 335.683594 540.914062 C 333.867188 542.824219 333.15625 544.703125 332.269531 545.214844 C 331.058594 545.535156 326.691406 548.949219 325.453125 549.417969 C 323.007812 549.941406 318.960938 552.253906 318.019531 552.84375 C 316.433594 553.53125 316.164062 553.019531 314.148438 553.800781 C 312.871094 554.390625 311.769531 555.410156 310.933594 556.660156 C 310.933594 556.660156 310.933594 556.660156 310.921875 556.660156 C 309.441406 556.6875 308.152344 557.613281 307.023438 558.636719 C 306.148438 559.292969 305.53125 560.289062 304.75 561.09375 C 304.738281 561.09375 304.738281 561.105469 304.722656 561.105469 C 303.660156 561.402344 301.523438 560.917969 299.628906 562.089844 C 297.949219 563.308594 298.660156 562.113281 296.132812 563.230469 C 295.191406 563.886719 294.371094 564.828125 293.859375 565.957031 C 293.792969 565.945312 293.714844 565.929688 293.644531 565.929688 C 291.925781 565.984375 290.835938 567.984375 290.417969 569.839844 C 289.921875 569.851562 289.4375 569.972656 288.996094 570.242188 C 288.308594 570.726562 287.675781 571.316406 287.152344 572.015625 C 286.9375 572.324219 286.722656 572.648438 286.507812 572.96875 C 286.453125 573.265625 285.875 573.777344 286.398438 573.144531 C 285.539062 574.21875 286.035156 573.304688 283.820312 574.300781 C 282.917969 574.824219 282.191406 575.644531 281.574219 576.570312 C 281.128906 576.367188 279.988281 575.910156 279.609375 576.019531 C 278.199219 576.019531 276.921875 576.988281 275.953125 578.101562 C 275.699219 578.425781 275.496094 578.773438 275.296875 579.136719 C 274.058594 578.503906 272.660156 579.203125 271.757812 580.304688 C 271.128906 580.089844 270.496094 579.941406 269.851562 580.265625 C 268.9375 580.679688 268.101562 581.421875 267.605469 582.414062 C 267.484375 582.65625 267.351562 582.898438 267.214844 583.125 C 266.582031 583.664062 266.222656 584.535156 266.167969 585.4375 C 266.113281 585.8125 266.179688 586.175781 266.234375 586.550781 C 266.261719 586.714844 266.289062 586.886719 266.316406 587.007812 C 266.316406 587.050781 266.316406 587.089844 266.316406 587.117188 C 266.328125 587.289062 266.34375 587.453125 266.355469 587.625 C 265.546875 588.351562 265.523438 588.03125 264.472656 589.5625 C 263.679688 591.039062 264.511719 592.917969 265.925781 593.375 C 266.8125 593.804688 267.738281 593.847656 268.679688 593.847656 C 268.894531 594.410156 269.351562 594.839844 270 594.8125 C 290.40625 597.230469 310.878906 598.375 331.394531 598.292969 C 347.03125 598.816406 362.636719 600.226562 378.285156 600.066406 C 392.792969 600.054688 407.230469 598.214844 421.722656 597.796875 C 435.664062 597.527344 449.605469 598.5625 463.546875 598.117188 C 469.890625 597.796875 476.34375 598.386719 482.621094 597.152344 C 484.019531 596.722656 484.515625 594.746094 483.65625 593.457031 Z M 483.65625 593.457031 " fill-opacity="1" fill-rule="nonzero"/><path fill="#713d22" d="M 172.144531 351.316406 C 171.941406 350.871094 171.847656 350.535156 171.832031 350.28125 C 171.859375 350.027344 172.074219 349.8125 172.519531 349.609375 C 172.628906 349.597656 173.003906 349.421875 173.675781 349.113281 L 174.507812 348.695312 L 202.539062 335.679688 C 203.089844 335.421875 203.65625 335.410156 204.207031 335.609375 C 204.757812 335.8125 205.1875 336.1875 205.441406 336.738281 L 206.289062 338.554688 L 211.289062 348.402344 C 211.410156 348.667969 211.4375 348.9375 211.316406 349.234375 C 211.210938 349.527344 211.023438 349.730469 210.753906 349.851562 L 209.730469 350.320312 C 209.476562 350.441406 209.195312 350.46875 208.882812 350.402344 C 208.574219 350.363281 208.347656 350.226562 208.171875 350.027344 C 206.449219 347.164062 204.460938 345.109375 202.1875 343.898438 C 199.902344 342.652344 197.484375 342.636719 194.917969 343.832031 L 188.222656 346.9375 C 189.632812 350.496094 191.785156 355.507812 194.6875 361.890625 L 196.113281 361.230469 C 196.730469 360.949219 197.46875 360.492188 198.34375 359.914062 C 200.710938 358.355469 201.773438 356.972656 201.542969 355.804688 L 201.488281 355.613281 C 201.394531 355.332031 201.355469 355.105469 201.410156 354.902344 C 201.464844 354.703125 201.730469 354.472656 202.296875 354.203125 C 202.742188 354.003906 203.050781 353.921875 203.304688 353.921875 C 203.546875 353.921875 203.75 354.109375 203.898438 354.433594 L 208.089844 363.445312 C 208.144531 363.566406 208.199219 363.675781 208.226562 363.808594 C 208.253906 363.945312 208.199219 364.066406 208.0625 364.238281 C 207.929688 364.402344 207.660156 364.601562 207.230469 364.804688 C 206.679688 365.058594 206.316406 365.125 206.128906 365.03125 C 205.941406 364.9375 205.792969 364.761719 205.628906 364.507812 C 205.335938 363.863281 204.597656 363.566406 203.441406 363.609375 C 201.730469 363.6875 200.105469 364.066406 198.480469 364.710938 L 196.433594 365.664062 C 198.761719 370.582031 200.859375 374.867188 202.742188 378.535156 C 203.0625 379.058594 203.492188 379.703125 204.042969 380.414062 C 205.414062 382.226562 206.613281 383.019531 207.582031 382.820312 C 207.929688 382.660156 208.226562 382.589844 208.425781 382.644531 C 208.667969 382.710938 208.910156 382.992188 209.167969 383.542969 C 209.367188 383.988281 209.449219 384.296875 209.449219 384.550781 C 209.460938 384.792969 209.328125 384.96875 209.03125 385.101562 L 208.761719 385.222656 C 207.417969 385.84375 206.746094 386.164062 206.746094 386.164062 C 206.761719 386.191406 204.714844 387.144531 200.65625 389.027344 C 196.597656 390.90625 194.554688 391.859375 194.539062 391.832031 C 194.539062 391.832031 193.867188 392.144531 192.523438 392.773438 L 192.253906 392.894531 C 192.175781 392.9375 192.078125 392.976562 191.945312 393.003906 C 191.851562 393.015625 191.714844 392.960938 191.542969 392.828125 C 191.367188 392.695312 191.179688 392.425781 190.976562 391.996094 C 190.722656 391.445312 190.65625 391.082031 190.761719 390.851562 C 190.855469 390.664062 191.085938 390.492188 191.449219 390.328125 C 192.457031 389.441406 192.429688 387.386719 191.394531 384.175781 C 189.5 379.554688 187.226562 374.4375 184.605469 368.808594 C 180.855469 360.746094 178.367188 355.910156 177.117188 354.296875 C 175.8125 352.632812 174.683594 351.878906 173.742188 352.066406 C 173.367188 352.242188 173.070312 352.308594 172.855469 352.230469 C 172.628906 352.121094 172.398438 351.851562 172.144531 351.316406 Z M 216.976562 332.804688 C 217.179688 332.910156 217.476562 332.882812 217.878906 332.761719 C 218.832031 332.695312 219.855469 333.597656 220.929688 335.421875 C 221.953125 337.195312 223.765625 342.328125 226.402344 350.820312 C 228.230469 356.757812 229.800781 362.128906 231.050781 366.96875 C 231.269531 367.972656 231.347656 369.128906 231.347656 370.417969 C 231.320312 371.734375 230.984375 372.621094 230.285156 373.078125 C 229.910156 373.199219 229.65625 373.335938 229.546875 373.507812 C 229.414062 373.722656 229.425781 374.085938 229.601562 374.679688 C 229.75 375.136719 229.898438 375.429688 230.042969 375.578125 C 230.191406 375.738281 230.3125 375.792969 230.449219 375.792969 C 230.554688 375.792969 230.636719 375.765625 230.730469 375.738281 L 233.136719 375.027344 L 262.671875 365.90625 C 263.261719 365.730469 263.679688 365.355469 263.960938 364.832031 C 264.246094 364.308594 264.285156 363.714844 264.109375 363.136719 L 263.53125 361.257812 L 260.640625 350.589844 C 260.5625 350.308594 260.386719 350.09375 260.105469 349.945312 C 259.820312 349.796875 259.539062 349.785156 259.269531 349.863281 L 258.195312 350.199219 C 257.914062 350.28125 257.699219 350.457031 257.496094 350.683594 C 257.292969 350.914062 257.214844 351.179688 257.242188 351.476562 C 257.589844 353.25 257.699219 355.035156 257.605469 356.785156 C 257.429688 359.363281 256.570312 361.417969 255.089844 362.949219 C 254.242188 363.824219 253.074219 364.480469 251.59375 364.9375 L 244.550781 367.113281 C 242.976562 362.789062 240.972656 356.863281 238.554688 349.328125 L 240.273438 348.789062 C 240.558594 348.710938 241.027344 348.589844 241.699219 348.480469 C 243.554688 348.144531 245.085938 348.105469 246.269531 348.347656 C 246.957031 348.507812 247.453125 348.789062 247.695312 349.261719 C 247.816406 349.621094 247.953125 349.890625 248.152344 350 C 248.367188 350.132812 248.730469 350.121094 249.28125 349.957031 C 249.738281 349.8125 250.035156 349.691406 250.195312 349.542969 C 250.359375 349.394531 250.453125 349.261719 250.4375 349.125 C 250.425781 348.964844 250.382812 348.84375 250.34375 348.722656 C 250.332031 348.65625 250.304688 348.601562 250.289062 348.535156 C 250.238281 348.453125 249.96875 347.59375 249.457031 345.957031 L 249.484375 345.941406 L 247.453125 339.386719 L 247.398438 339.105469 C 247.320312 338.820312 247.132812 338.6875 246.875 338.621094 C 246.632812 338.59375 246.3125 338.632812 245.839844 338.769531 C 245.289062 338.941406 244.980469 339.128906 244.886719 339.371094 C 244.777344 339.574219 244.804688 339.871094 244.914062 340.234375 C 244.980469 341.429688 243.742188 342.652344 241.214844 343.859375 C 240.316406 344.304688 239.65625 344.613281 239.320312 344.71875 L 237.289062 345.351562 C 235.3125 338.621094 233.820312 333.382812 232.90625 329.660156 L 239.980469 327.46875 C 242.65625 326.648438 245.046875 326.984375 247.144531 328.53125 C 249.226562 330.035156 250.921875 332.347656 252.238281 335.410156 C 252.375 335.636719 252.601562 335.800781 252.898438 335.878906 C 253.207031 335.988281 253.476562 336 253.757812 335.921875 L 254.835938 335.585938 C 255.117188 335.503906 255.332031 335.328125 255.480469 335.046875 C 255.628906 334.765625 255.640625 334.496094 255.558594 334.214844 L 251.929688 323.773438 L 251.339844 321.867188 C 251.164062 321.277344 250.789062 320.859375 250.261719 320.578125 C 249.738281 320.296875 249.175781 320.242188 248.597656 320.417969 L 219.0625 329.539062 L 218.171875 329.847656 C 217.460938 330.0625 217.070312 330.183594 216.964844 330.183594 C 216.507812 330.316406 216.25 330.507812 216.199219 330.761719 C 216.171875 331.003906 216.210938 331.367188 216.359375 331.824219 C 216.546875 332.398438 216.734375 332.710938 216.976562 332.804688 Z M 262.1875 318.28125 C 262.09375 317.808594 262.09375 317.449219 262.148438 317.207031 C 262.226562 316.964844 262.496094 316.816406 262.980469 316.722656 C 263.074219 316.734375 263.492188 316.65625 264.21875 316.519531 L 265.160156 316.304688 L 273.359375 314.789062 L 278.359375 313.875 C 285.445312 312.53125 291.050781 312.328125 295.136719 313.296875 C 300.019531 314.480469 302.921875 317.527344 303.847656 322.457031 C 304.253906 324.582031 304.210938 326.488281 303.78125 328.167969 C 303.351562 329.859375 302.558594 331.378906 301.429688 332.710938 C 300.273438 334.066406 298.863281 335.222656 297.140625 336.242188 C 298.121094 336.09375 299.15625 336.160156 300.164062 336.457031 C 301.753906 336.847656 303.042969 337.652344 304.105469 338.929688 C 305.367188 340.554688 306.242188 342.785156 306.78125 345.605469 L 307.453125 349.179688 C 307.761719 350.628906 308.191406 351.71875 308.824219 352.457031 C 309.457031 353.195312 310.101562 353.492188 310.828125 353.359375 C 311.335938 353.265625 311.621094 353.601562 311.769531 354.324219 C 311.957031 355.304688 311.753906 355.828125 311.164062 355.949219 L 309.644531 356.273438 C 304.546875 357.242188 301.320312 357.710938 300.042969 357.695312 C 298.769531 357.683594 297.515625 357.132812 296.363281 356.070312 C 295.179688 355.023438 294.359375 353.277344 293.902344 350.871094 L 293.59375 349.234375 C 293.054688 346.359375 292.53125 344.449219 292.046875 343.46875 C 290.984375 341.144531 289.140625 340.085938 286.5625 340.3125 C 285.433594 340.554688 284.167969 340.824219 282.808594 341.09375 C 283.496094 344.34375 284.128906 347.324219 284.734375 350.066406 C 284.8125 350.347656 284.933594 350.777344 285.042969 351.316406 C 285.203125 352.175781 285.605469 353.277344 286.226562 354.59375 C 287.070312 356.460938 287.972656 357.414062 288.886719 357.429688 C 289.261719 357.359375 289.558594 357.359375 289.746094 357.496094 C 289.960938 357.617188 290.125 357.953125 290.230469 358.515625 C 290.324219 358.988281 290.3125 359.324219 290.257812 359.566406 C 290.175781 359.804688 289.910156 359.996094 289.4375 360.074219 C 289.332031 360.0625 288.898438 360.140625 288.160156 360.277344 C 287.503906 360.398438 287.152344 360.464844 287.152344 360.464844 C 287.152344 360.492188 286.46875 360.625 285.070312 360.894531 C 284.921875 360.960938 282.769531 361.390625 278.5625 362.183594 L 271.949219 363.433594 C 271.855469 363.445312 271.757812 363.472656 271.625 363.460938 C 271.53125 363.445312 271.410156 363.367188 271.277344 363.191406 C 271.140625 363.015625 271.019531 362.722656 270.925781 362.238281 C 270.804688 361.632812 270.84375 361.269531 271.007812 361.082031 C 271.140625 360.921875 271.410156 360.8125 271.800781 360.734375 C 272.554688 360.398438 273.023438 359.390625 273.210938 357.644531 C 272.484375 352.242188 271.421875 345.765625 270.011719 338.257812 C 268.425781 329.875 267.257812 324.6875 266.449219 322.714844 C 265.546875 320.523438 264.582031 319.394531 263.519531 319.367188 C 263.140625 319.4375 262.847656 319.4375 262.660156 319.300781 C 262.457031 319.179688 262.296875 318.859375 262.1875 318.28125 Z M 278.925781 318.011719 C 279.679688 323.761719 280.644531 329.738281 281.84375 336.039062 L 282.015625 336.996094 L 282.339844 336.941406 C 284.277344 336.578125 285.902344 335.839844 287.273438 334.765625 C 288.605469 333.691406 289.597656 332.332031 290.164062 330.652344 C 290.742188 329 290.835938 327.121094 290.445312 325.039062 C 290.097656 323.171875 289.382812 321.667969 288.28125 320.496094 C 287.179688 319.355469 285.820312 318.578125 284.234375 318.144531 C 282.59375 317.703125 280.820312 317.675781 278.925781 318.011719 Z M 312.050781 323.15625 C 312.078125 323.4375 312.199219 323.695312 312.441406 323.894531 C 312.683594 324.097656 312.949219 324.179688 313.234375 324.152344 L 314.363281 324.058594 C 314.617188 324.03125 314.875 323.921875 315.140625 323.707031 C 315.382812 323.519531 315.53125 323.292969 315.53125 323.023438 C 315.652344 321.046875 315.933594 319.273438 316.351562 317.757812 C 317.050781 315.3125 318.316406 313.484375 320.15625 312.277344 C 321.164062 311.605469 322.429688 311.214844 323.960938 311.078125 L 326.433594 310.863281 C 327.269531 316.9375 327.941406 322.984375 328.449219 329.042969 C 328.960938 335.167969 329.339844 340.730469 329.527344 345.644531 C 329.433594 347.554688 329.136719 349.097656 328.691406 350.269531 C 328.34375 351.101562 327.859375 351.570312 327.253906 351.609375 C 326.972656 351.664062 326.742188 351.746094 326.597656 351.894531 C 326.449219 352.042969 326.378906 352.390625 326.433594 353.007812 C 326.476562 353.492188 326.570312 353.800781 326.675781 353.988281 C 326.785156 354.175781 326.890625 354.257812 327.027344 354.285156 C 327.160156 354.3125 327.28125 354.296875 327.414062 354.285156 L 345.671875 352.753906 C 346.023438 352.726562 346.277344 352.605469 346.359375 352.378906 C 346.4375 352.148438 346.464844 351.8125 346.425781 351.34375 C 346.371094 350.738281 346.25 350.390625 346.035156 350.242188 C 345.859375 350.121094 345.566406 350.09375 345.1875 350.121094 C 343.910156 349.933594 342.917969 348.078125 342.136719 344.597656 C 341.503906 339.707031 340.941406 334.171875 340.429688 328.046875 C 339.917969 321.988281 339.570312 315.917969 339.378906 309.789062 L 341.976562 309.574219 C 344.769531 309.347656 347.03125 310.179688 348.75 312.101562 C 350.066406 313.578125 351.035156 315.433594 351.707031 317.703125 C 351.949219 318.617188 352.136719 319.34375 352.285156 319.945312 C 352.339844 320.203125 352.515625 320.417969 352.824219 320.550781 C 353.09375 320.726562 353.363281 320.792969 353.617188 320.78125 L 354.746094 320.683594 C 355.027344 320.660156 355.285156 320.539062 355.484375 320.296875 C 355.6875 320.054688 355.769531 319.785156 355.742188 319.503906 L 354.425781 308.5 L 354.261719 306.539062 C 354.207031 305.933594 353.941406 305.4375 353.496094 305.046875 C 353.039062 304.671875 352.515625 304.484375 351.894531 304.539062 L 313.355469 307.773438 C 312.75 307.828125 312.25 308.097656 311.863281 308.539062 C 311.484375 308.996094 311.296875 309.519531 311.351562 310.140625 L 311.511719 312.101562 Z M 364.453125 352.027344 C 364.585938 352.054688 364.679688 352.054688 364.777344 352.066406 L 365.070312 352.066406 C 366.550781 352.082031 367.289062 352.082031 367.289062 352.082031 C 367.289062 352.109375 369.535156 352.136719 374.011719 352.164062 C 378.488281 352.203125 380.707031 352.214844 380.707031 352.175781 C 380.707031 352.175781 381.445312 352.175781 382.964844 352.1875 L 383.261719 352.1875 C 383.554688 352.1875 383.746094 352.09375 383.878906 351.867188 C 383.972656 351.636719 384.039062 351.316406 384.054688 350.832031 C 384.054688 350.226562 383.960938 349.863281 383.769531 349.703125 C 383.609375 349.570312 383.328125 349.503906 382.9375 349.503906 C 381.96875 349.273438 381.242188 348.078125 380.773438 345.886719 C 380.304688 343.699219 380.128906 337.425781 380.207031 327.09375 C 380.25 321.398438 380.382812 316.507812 380.640625 312.421875 C 381.042969 309.375 381.863281 307.667969 383.125 307.359375 C 383.515625 307.359375 383.796875 307.304688 383.972656 307.144531 C 384.160156 306.980469 384.269531 306.632812 384.269531 306.054688 C 384.269531 305.570312 384.242188 305.25 384.148438 305.0625 C 384.054688 304.875 383.917969 304.738281 383.769531 304.699219 C 383.609375 304.671875 383.449219 304.660156 383.21875 304.660156 C 383.125 304.683594 382.734375 304.683594 382.023438 304.683594 C 381.417969 304.644531 378.863281 304.632812 374.386719 304.589844 C 369.910156 304.5625 367.34375 304.539062 366.726562 304.5625 C 365.984375 304.5625 365.570312 304.550781 365.472656 304.523438 C 364.992188 304.523438 364.695312 304.617188 364.574219 304.832031 C 364.480469 305.0625 364.414062 305.410156 364.398438 305.894531 C 364.398438 306.472656 364.492188 306.835938 364.679688 306.996094 C 364.84375 307.15625 365.125 307.222656 365.515625 307.222656 C 366.484375 307.453125 367.183594 308.621094 367.652344 310.675781 C 368.082031 312.679688 368.269531 318.121094 368.203125 327 C 368.148438 333.207031 367.988281 338.808594 367.71875 343.792969 C 367.34375 347.136719 366.484375 348.992188 365.164062 349.367188 C 364.777344 349.367188 364.492188 349.421875 364.332031 349.554688 C 364.144531 349.71875 364.035156 350.066406 364.035156 350.683594 C 364.035156 351.167969 364.0625 351.492188 364.15625 351.679688 C 364.25 351.867188 364.332031 352 364.453125 352.027344 Z M 390.480469 352.269531 C 390.640625 352.308594 390.761719 352.324219 390.894531 352.335938 L 424.089844 355.117188 C 424.691406 355.171875 425.230469 354.984375 425.6875 354.605469 C 426.144531 354.230469 426.414062 353.734375 426.453125 353.117188 L 426.617188 351.15625 L 427.933594 340.191406 C 427.960938 339.898438 427.878906 339.640625 427.679688 339.398438 C 427.476562 339.15625 427.222656 339.035156 426.9375 339.011719 L 425.808594 338.914062 C 425.554688 338.890625 425.285156 338.96875 425.015625 339.105469 C 424.71875 339.238281 424.53125 339.453125 424.476562 339.734375 C 424.332031 340.339844 424.140625 341.066406 423.898438 341.953125 C 423.632812 342.867188 423.253906 343.804688 422.785156 344.800781 C 422.3125 345.792969 421.683594 346.707031 420.941406 347.554688 C 420.191406 348.425781 419.261719 349.097656 418.160156 349.582031 C 417.058594 350.066406 415.714844 350.253906 414.167969 350.121094 L 406.855469 349.503906 C 407.136719 341.871094 407.554688 334.925781 408.089844 328.613281 C 408.546875 323.222656 409.03125 318.550781 409.554688 314.585938 C 409.675781 313.59375 409.984375 312.492188 410.511719 311.28125 C 411.035156 310.058594 411.800781 309.386719 412.851562 309.1875 C 413.265625 309.226562 413.5625 309.1875 413.738281 309.039062 C 413.910156 308.890625 414.03125 308.539062 414.085938 307.964844 C 414.125 307.480469 414.125 307.15625 414.046875 306.957031 C 413.964844 306.753906 413.886719 306.621094 413.722656 306.578125 C 413.5625 306.539062 413.375 306.511719 413.144531 306.5 C 413.050781 306.527344 412.59375 306.484375 411.761719 306.417969 C 411.019531 306.324219 408.453125 306.109375 403.992188 305.734375 C 399.527344 305.355469 396.960938 305.140625 396.355469 305.128906 C 395.613281 305.0625 395.199219 305.035156 395.105469 304.992188 C 394.621094 304.953125 394.324219 305.019531 394.175781 305.234375 C 394.054688 305.449219 393.960938 305.800781 393.921875 306.285156 C 393.882812 306.863281 393.933594 307.222656 394.121094 307.398438 C 394.269531 307.574219 394.554688 307.652344 394.941406 307.695312 C 395.882812 308.003906 396.503906 309.210938 396.8125 311.308594 C 397.066406 313.230469 396.839844 318.671875 396.085938 327.617188 C 395.5625 333.8125 394.996094 339.386719 394.351562 344.328125 C 393.71875 347.636719 392.726562 349.421875 391.378906 349.703125 C 390.992188 349.675781 390.695312 349.71875 390.535156 349.824219 C 390.332031 349.972656 390.199219 350.308594 390.15625 350.925781 C 390.117188 351.410156 390.117188 351.730469 390.199219 351.933594 C 390.265625 352.121094 390.34375 352.230469 390.480469 352.269531 Z M 432.613281 356.273438 C 432.734375 356.328125 432.828125 356.339844 432.921875 356.355469 L 433.203125 356.394531 C 434.667969 356.621094 435.394531 356.730469 435.394531 356.730469 C 435.394531 356.757812 437.625 357.105469 442.050781 357.777344 C 446.472656 358.449219 448.675781 358.785156 448.675781 358.757812 C 448.675781 358.757812 449.402344 358.867188 450.910156 359.09375 L 451.191406 359.132812 C 451.472656 359.175781 451.6875 359.109375 451.847656 358.90625 C 451.984375 358.691406 452.089844 358.394531 452.160156 357.910156 C 452.253906 357.308594 452.210938 356.945312 452.039062 356.757812 C 451.902344 356.609375 451.621094 356.5 451.246094 356.433594 C 450.316406 356.070312 449.765625 354.78125 449.617188 352.539062 C 449.46875 350.308594 450.195312 344.0625 451.753906 333.851562 C 452.617188 328.222656 453.449219 323.398438 454.28125 319.382812 C 455.128906 316.414062 456.179688 314.855469 457.46875 314.71875 C 457.84375 314.773438 458.15625 314.761719 458.328125 314.625 C 458.542969 314.492188 458.691406 314.15625 458.785156 313.59375 C 458.851562 313.109375 458.878906 312.785156 458.8125 312.585938 C 458.746094 312.382812 458.636719 312.234375 458.492188 312.179688 C 458.328125 312.128906 458.179688 312.101562 457.953125 312.0625 C 457.859375 312.074219 457.46875 312.019531 456.769531 311.914062 C 456.164062 311.792969 453.652344 311.402344 449.226562 310.730469 C 444.804688 310.058594 442.25 309.667969 441.644531 309.601562 C 440.90625 309.496094 440.503906 309.425781 440.410156 309.386719 C 439.9375 309.320312 439.628906 309.359375 439.46875 309.574219 C 439.332031 309.789062 439.226562 310.125 439.144531 310.597656 C 439.066406 311.175781 439.105469 311.535156 439.265625 311.726562 C 439.402344 311.914062 439.683594 312.019531 440.058594 312.074219 C 440.988281 312.4375 441.511719 313.699219 441.671875 315.808594 C 441.820312 317.851562 441.214844 323.265625 439.882812 332.050781 C 438.945312 338.191406 437.976562 343.710938 437.007812 348.617188 C 436.148438 351.867188 435.042969 353.585938 433.671875 353.773438 C 433.296875 353.71875 433 353.734375 432.8125 353.839844 C 432.597656 353.976562 432.449219 354.3125 432.355469 354.917969 C 432.289062 355.386719 432.261719 355.722656 432.328125 355.925781 C 432.410156 356.113281 432.492188 356.21875 432.613281 356.273438 Z M 465.480469 329.5 L 466.582031 329.753906 C 466.839844 329.808594 467.132812 329.78125 467.429688 329.6875 C 467.726562 329.550781 467.925781 329.363281 468.046875 329.136719 C 469.824219 324.191406 472.351562 321.234375 475.628906 320.296875 C 476.800781 319.960938 478.144531 319.972656 479.652344 320.308594 L 488.09375 322.21875 L 457.480469 359.875 C 463.988281 361.3125 476.019531 364.039062 493.578125 368 C 494.144531 368.121094 494.71875 368.027344 495.246094 367.652344 C 495.753906 367.277344 496.105469 366.792969 496.226562 366.226562 L 496.671875 364.28125 L 499.480469 353.625 C 499.519531 353.304688 499.480469 353.035156 499.332031 352.808594 C 499.15625 352.539062 498.929688 352.390625 498.644531 352.324219 L 497.542969 352.082031 C 497.261719 352.015625 496.992188 352.054688 496.695312 352.148438 C 496.402344 352.28125 496.199219 352.457031 496.078125 352.699219 C 494.304688 357.644531 491.777344 360.597656 488.46875 361.539062 C 487.300781 361.875 485.984375 361.863281 484.476562 361.527344 L 475.148438 359.417969 L 506.589844 322.148438 L 470.507812 313.996094 C 469.917969 313.859375 469.367188 313.929688 468.867188 314.25 C 468.359375 314.601562 468.023438 315.042969 467.902344 315.621094 L 467.457031 317.570312 L 464.648438 328.222656 C 464.582031 328.53125 464.648438 328.8125 464.796875 329.042969 C 464.96875 329.285156 465.199219 329.445312 465.480469 329.5 Z M 503.714844 368.082031 C 503.351562 367.960938 503.054688 367.921875 502.855469 368 C 502.625 368.09375 502.410156 368.402344 502.222656 368.980469 C 502.0625 369.4375 502.019531 369.761719 502.0625 369.976562 C 502.085938 370.191406 502.15625 370.3125 502.261719 370.378906 C 502.34375 370.445312 502.4375 370.472656 502.53125 370.5 L 504.898438 371.332031 L 534.203125 381.207031 C 534.78125 381.410156 535.347656 381.355469 535.871094 381.085938 C 536.394531 380.816406 536.785156 380.375 536.988281 379.796875 L 537.617188 377.941406 L 541.519531 367.597656 C 541.613281 367.328125 541.597656 367.046875 541.464844 366.765625 C 541.316406 366.484375 541.113281 366.308594 540.832031 366.214844 L 539.757812 365.851562 C 539.488281 365.757812 539.207031 365.769531 538.910156 365.839844 C 538.613281 365.90625 538.386719 366.066406 538.238281 366.320312 C 537.484375 367.960938 536.53125 369.480469 535.429688 370.835938 C 533.773438 372.824219 531.878906 373.992188 529.78125 374.367188 C 528.585938 374.585938 527.242188 374.4375 525.773438 373.9375 L 518.785156 371.589844 C 520.046875 367.15625 521.890625 361.191406 524.324219 353.652344 L 526.03125 354.230469 C 526.300781 354.324219 526.757812 354.511719 527.363281 354.820312 C 529.054688 355.628906 530.332031 356.5 531.152344 357.386719 C 531.625 357.925781 531.851562 358.4375 531.785156 358.960938 C 531.664062 359.324219 531.625 359.617188 531.730469 359.820312 C 531.824219 360.046875 532.121094 360.261719 532.671875 360.449219 C 533.128906 360.597656 533.453125 360.679688 533.652344 360.652344 C 533.867188 360.625 534.015625 360.570312 534.097656 360.464844 C 534.175781 360.332031 534.21875 360.195312 534.257812 360.074219 C 534.285156 360.007812 534.296875 359.953125 534.324219 359.886719 C 534.324219 359.78125 534.609375 358.933594 535.160156 357.308594 L 535.1875 357.320312 L 537.378906 350.820312 L 537.5 350.550781 C 537.59375 350.28125 537.523438 350.054688 537.363281 349.851562 C 537.175781 349.691406 536.894531 349.527344 536.4375 349.367188 C 535.886719 349.179688 535.523438 349.167969 535.308594 349.285156 C 535.105469 349.394531 534.945312 349.636719 534.824219 350.011719 C 534.175781 351.019531 532.457031 351.289062 529.699219 350.804688 C 528.707031 350.644531 527.992188 350.507812 527.65625 350.390625 L 525.640625 349.703125 C 527.980469 343.082031 529.835938 337.976562 531.273438 334.414062 L 538.292969 336.78125 C 540.953125 337.679688 542.699219 339.34375 543.492188 341.832031 C 544.300781 344.277344 544.328125 347.136719 543.601562 350.390625 C 543.574219 350.65625 543.65625 350.914062 543.855469 351.15625 C 544.046875 351.421875 544.246094 351.597656 544.527344 351.691406 L 545.605469 352.054688 C 545.875 352.148438 546.15625 352.136719 546.4375 352 C 546.71875 351.851562 546.894531 351.652344 546.988281 351.371094 L 550.148438 340.78125 L 550.78125 338.890625 C 550.980469 338.3125 550.929688 337.746094 550.660156 337.222656 C 550.390625 336.6875 549.972656 336.308594 549.394531 336.121094 L 520.089844 326.246094 L 519.1875 325.976562 C 518.488281 325.75 518.085938 325.601562 518.003906 325.546875 C 517.546875 325.386719 517.238281 325.386719 517.050781 325.5625 C 516.890625 325.75 516.714844 326.058594 516.554688 326.515625 C 516.363281 327.066406 516.351562 327.429688 516.472656 327.644531 C 516.566406 327.847656 516.820312 328.007812 517.226562 328.140625 C 518.03125 328.652344 518.339844 329.980469 518.140625 332.078125 C 517.925781 334.121094 516.40625 339.34375 513.570312 347.753906 C 511.578125 353.640625 509.695312 358.917969 507.894531 363.582031 C 507.480469 364.523438 506.875 365.515625 506.105469 366.550781 C 505.339844 367.597656 504.546875 368.121094 503.714844 368.082031 Z M 593.222656 371.078125 C 592.253906 373.011719 591.070312 374.503906 589.699219 375.578125 C 588.328125 376.652344 586.769531 377.390625 585.074219 377.769531 C 583.328125 378.15625 581.5 378.210938 579.523438 377.984375 C 580.394531 378.453125 581.175781 379.136719 581.792969 379.984375 C 582.816406 381.246094 583.367188 382.683594 583.433594 384.335938 C 583.449219 386.394531 582.789062 388.703125 581.511719 391.269531 L 579.886719 394.519531 C 579.253906 395.863281 578.929688 396.992188 578.984375 397.960938 C 579.039062 398.925781 579.375 399.558594 580.035156 399.894531 C 580.492188 400.121094 580.515625 400.566406 580.195312 401.238281 C 579.75 402.125 579.265625 402.433594 578.714844 402.152344 L 577.316406 401.492188 C 572.679688 399.167969 569.828125 397.597656 568.820312 396.804688 C 567.8125 396.011719 567.15625 394.816406 566.886719 393.269531 C 566.589844 391.714844 566.992188 389.832031 568.09375 387.640625 L 568.847656 386.152344 C 570.164062 383.53125 570.90625 381.703125 571.121094 380.617188 C 571.683594 378.128906 570.863281 376.167969 568.671875 374.785156 C 567.625 374.289062 566.457031 373.75 565.21875 373.121094 C 563.792969 376.117188 562.476562 378.882812 561.304688 381.421875 C 561.199219 381.691406 561.039062 382.121094 560.78125 382.605469 C 560.390625 383.382812 560.042969 384.5 559.71875 385.9375 C 559.25 387.9375 559.398438 389.242188 560.125 389.804688 C 560.472656 389.980469 560.703125 390.167969 560.769531 390.382812 C 560.863281 390.609375 560.796875 390.972656 560.539062 391.484375 C 560.324219 391.914062 560.125 392.167969 559.933594 392.332031 C 559.71875 392.480469 559.398438 392.464844 558.96875 392.238281 C 558.898438 392.167969 558.496094 391.96875 557.824219 391.632812 C 557.21875 391.324219 556.898438 391.175781 556.898438 391.175781 C 556.882812 391.203125 556.25 390.894531 554.976562 390.25 C 554.8125 390.207031 552.835938 389.253906 549.003906 387.332031 L 542.984375 384.3125 C 542.890625 384.269531 542.808594 384.230469 542.714844 384.136719 C 542.648438 384.070312 542.59375 383.933594 542.59375 383.71875 C 542.59375 383.503906 542.6875 383.183594 542.902344 382.753906 C 543.171875 382.203125 543.425781 381.933594 543.667969 381.878906 C 543.871094 381.839844 544.152344 381.90625 544.503906 382.082031 C 545.308594 382.269531 546.289062 381.757812 547.5 380.480469 C 550.203125 375.738281 553.292969 369.949219 556.722656 363.125 C 560.554688 355.492188 562.773438 350.65625 563.324219 348.601562 C 563.929688 346.316406 563.847656 344.828125 563.027344 344.167969 C 562.679688 343.992188 562.449219 343.804688 562.382812 343.589844 C 562.289062 343.363281 562.355469 343 562.609375 342.476562 C 562.824219 342.046875 563.039062 341.75 563.230469 341.601562 C 563.445312 341.453125 563.753906 341.507812 564.183594 341.722656 C 564.25 341.789062 564.628906 341.980469 565.285156 342.316406 L 566.160156 342.71875 L 573.609375 346.492188 L 578.152344 348.804688 C 584.605469 352.042969 589.1875 355.265625 591.851562 358.515625 C 595.023438 362.386719 595.480469 366.578125 593.222656 371.078125 Z M 582.035156 360.019531 C 581.847656 358.449219 581.242188 357 580.234375 355.695312 C 579.199219 354.378906 577.800781 353.289062 576.09375 352.390625 C 573.203125 357.429688 570.339844 362.773438 567.464844 368.5 L 567.035156 369.359375 L 567.316406 369.507812 C 569.078125 370.390625 570.8125 370.796875 572.558594 370.769531 C 574.28125 370.726562 575.894531 370.246094 577.359375 369.25 C 578.808594 368.285156 580.046875 366.847656 581 364.953125 C 581.863281 363.246094 582.210938 361.621094 582.035156 360.019531 Z M 582.035156 360.019531 " fill-opacity="1" fill-rule="nonzero"/></svg>